NotoSansKharoshthi-Regular.ufo
<glyph name="A_khar" format="2">
  <advance width="589"/>
  <unicode hex="10A00"/>
  <outline>
    <contour>
      <point x="368" y="-15" type="line"/>
      <point x="429" y="109"/>
      <point x="516" y="313"/>
      <point x="516" y="478" type="curve" smooth="yes"/>
      <point x="516" y="613"/>
      <point x="461" y="716"/>
      <point x="294" y="716" type="curve" smooth="yes"/>
      <point x="161" y="716"/>
      <point x="88" y="631"/>
      <point x="88" y="536" type="curve" smooth="yes"/>
      <point x="88" y="483"/>
      <point x="110" y="428"/>
      <point x="158" y="380" type="curve"/>
      <point x="221" y="432" type="line"/>
      <point x="188" y="467"/>
      <point x="172" y="505"/>
      <point x="172" y="539" type="curve" smooth="yes"/>
      <point x="172" y="595"/>
      <point x="214" y="642"/>
      <point x="294" y="642" type="curve" smooth="yes"/>
      <point x="395" y="642"/>
      <point x="430" y="570"/>
      <point x="430" y="474" type="curve" smooth="yes"/>
      <point x="430" y="316"/>
      <point x="336" y="100"/>
      <point x="289" y="7" type="curve"/>
    </contour>
  </outline>
</glyph>
<glyph name="I_khar" format="2">
  <unicode hex="10A01"/>
  <outline>
    <contour>
      <point x="-208" y="381" type="curve"/>
      <point x="-156" y="362" type="line"/>
      <point x="-131" y="451"/>
      <point x="-106" y="546"/>
      <point x="-87" y="639" type="curve" smooth="yes"/>
      <point x="-56" y="794" type="line"/>
      <point x="-96" y="806" type="line"/>
      <point x="-119" y="695"/>
      <point x="-163" y="529"/>
    </contour>
  </outline>
</glyph>
<glyph name="U_khar" format="2">
  <unicode hex="10A02"/>
  <outline>
    <contour>
      <point x="-243" y="-51" type="curve" smooth="yes"/>
      <point x="-284" y="-51"/>
      <point x="-307" y="-31"/>
      <point x="-307" y="-6" type="curve" smooth="yes"/>
      <point x="-307" y="20"/>
      <point x="-285" y="38"/>
      <point x="-246" y="38" type="curve" smooth="yes"/>
      <point x="-212" y="38"/>
      <point x="-184" y="27"/>
      <point x="-150" y="5" type="curve"/>
      <point x="-174" y="-39"/>
      <point x="-206" y="-51"/>
    </contour>
    <contour>
      <point x="-232" y="-114" type="curve" smooth="yes"/>
      <point x="-169" y="-114"/>
      <point x="-104" y="-92"/>
      <point x="-64" y="0" type="curve"/>
      <point x="-131" y="54"/>
      <point x="-186" y="83"/>
      <point x="-245" y="83" type="curve" smooth="yes"/>
      <point x="-310" y="83"/>
      <point x="-357" y="45"/>
      <point x="-357" y="-21" type="curve" smooth="yes"/>
      <point x="-357" y="-76"/>
      <point x="-298" y="-114"/>
    </contour>
  </outline>
</glyph>
<glyph name="vocR_khar" format="2">
  <unicode hex="10A03"/>
  <outline>
    <contour>
      <point x="-202" y="97" type="curve" smooth="yes"/>
      <point x="-127" y="97"/>
      <point x="-60" y="116"/>
      <point x="-60" y="177" type="curve" smooth="yes"/>
      <point x="-60" y="287"/>
      <point x="-259" y="212"/>
      <point x="-259" y="274" type="curve" smooth="yes"/>
      <point x="-259" y="287"/>
      <point x="-256" y="303"/>
      <point x="-203" y="303" type="curve" smooth="yes"/>
      <point x="-178" y="303"/>
      <point x="-143" y="295"/>
      <point x="-112" y="285" type="curve"/>
      <point x="-93" y="333" type="line"/>
      <point x="-129" y="345"/>
      <point x="-164" y="350"/>
      <point x="-207" y="350" type="curve" smooth="yes"/>
      <point x="-272" y="350"/>
      <point x="-321" y="321"/>
      <point x="-321" y="268" type="curve" smooth="yes"/>
      <point x="-321" y="156"/>
      <point x="-124" y="239"/>
      <point x="-124" y="172" type="curve" smooth="yes"/>
      <point x="-124" y="149"/>
      <point x="-162" y="146"/>
      <point x="-202" y="146" type="curve" smooth="yes"/>
      <point x="-238" y="146"/>
      <point x="-278" y="155"/>
      <point x="-299" y="155" type="curve" smooth="yes"/>
      <point x="-319" y="155"/>
      <point x="-356" y="153"/>
      <point x="-376" y="146" type="curve"/>
      <point x="-364" y="99" type="line"/>
      <point x="-347" y="103"/>
      <point x="-322" y="103"/>
      <point x="-298" y="103" type="curve" smooth="yes"/>
      <point x="-275" y="103"/>
      <point x="-246" y="97"/>
    </contour>
  </outline>
</glyph>
<glyph name="E_khar" format="2">
  <unicode hex="10A05"/>
  <outline>
    <contour>
      <point x="-307" y="774" type="curve"/>
      <point x="-218" y="774" type="line"/>
      <point x="-164" y="856"/>
      <point x="-106" y="942"/>
      <point x="-54" y="1010" type="curve"/>
      <point x="-104" y="1046" type="line"/>
      <point x="-166" y="971"/>
      <point x="-237" y="880"/>
    </contour>
  </outline>
</glyph>
<glyph name="O_khar" format="2">
  <unicode hex="10A06"/>
  <outline>
    <contour>
      <point x="-54" y="200" type="curve"/>
      <point x="-78" y="247" type="line"/>
      <point x="-185" y="188"/>
      <point x="-360" y="99"/>
      <point x="-481" y="47" type="curve"/>
      <point x="-447" y="-10" type="line"/>
      <point x="-315" y="53"/>
      <point x="-177" y="124"/>
    </contour>
  </outline>
</glyph>
<glyph name="Lengthmark_khar" format="2">
  <unicode hex="10A0C"/>
  <outline>
    <contour>
      <point x="-77" y="-9" type="line"/>
      <point x="-67" y="36"/>
      <point x="-58" y="90"/>
      <point x="-58" y="127" type="curve" smooth="yes"/>
      <point x="-58" y="231"/>
      <point x="-113" y="274"/>
      <point x="-174" y="280" type="curve"/>
      <point x="-192" y="226" type="line"/>
      <point x="-188" y="226" type="line" smooth="yes"/>
      <point x="-133" y="226"/>
      <point x="-117" y="186"/>
      <point x="-117" y="130" type="curve" smooth="yes"/>
      <point x="-117" y="94"/>
      <point x="-125" y="45"/>
      <point x="-134" y="1" type="curve"/>
    </contour>
  </outline>
</glyph>
<glyph name="Doublering_khar" format="2">
  <unicode hex="10A0D"/>
  <outline>
    <contour>
      <point x="-318" y="-243" type="curve" smooth="yes"/>
      <point x="-278" y="-243"/>
      <point x="-247" y="-224"/>
      <point x="-221" y="-202" type="curve"/>
      <point x="-195" y="-224"/>
      <point x="-163" y="-243"/>
      <point x="-122" y="-243" type="curve" smooth="yes"/>
      <point x="-42" y="-243"/>
      <point x="-2" y="-195"/>
      <point x="-2" y="-149" type="curve" smooth="yes"/>
      <point x="-2" y="-105"/>
      <point x="-38" y="-62"/>
      <point x="-113" y="-62" type="curve" smooth="yes"/>
      <point x="-157" y="-62"/>
      <point x="-188" y="-93"/>
      <point x="-218" y="-124" type="curve"/>
      <point x="-247" y="-93"/>
      <point x="-278" y="-62"/>
      <point x="-326" y="-62" type="curve" smooth="yes"/>
      <point x="-401" y="-62"/>
      <point x="-438" y="-105"/>
      <point x="-438" y="-149" type="curve" smooth="yes"/>
      <point x="-438" y="-195"/>
      <point x="-397" y="-243"/>
    </contour>
    <contour>
      <point x="-320" y="-192" type="curve" smooth="yes"/>
      <point x="-350" y="-192"/>
      <point x="-366" y="-171"/>
      <point x="-366" y="-151" type="curve" smooth="yes"/>
      <point x="-366" y="-134"/>
      <point x="-355" y="-119"/>
      <point x="-329" y="-119" type="curve" smooth="yes"/>
      <point x="-305" y="-119"/>
      <point x="-283" y="-140"/>
      <point x="-258" y="-164" type="curve"/>
      <point x="-277" y="-181"/>
      <point x="-297" y="-192"/>
    </contour>
    <contour>
      <point x="-117" y="-192" type="curve" smooth="yes"/>
      <point x="-142" y="-192"/>
      <point x="-162" y="-180"/>
      <point x="-181" y="-164" type="curve"/>
      <point x="-158" y="-139"/>
      <point x="-138" y="-119"/>
      <point x="-118" y="-119" type="curve" smooth="yes"/>
      <point x="-88" y="-119"/>
      <point x="-73" y="-137"/>
      <point x="-73" y="-155" type="curve" smooth="yes"/>
      <point x="-73" y="-174"/>
      <point x="-88" y="-192"/>
    </contour>
  </outline>
</glyph>
<glyph name="Anusvara_khar" format="2">
  <unicode hex="10A0E"/>
  <outline>
    <contour>
      <point x="-184" y="-207" type="curve" smooth="yes"/>
      <point x="-82" y="-207"/>
      <point x="-11" y="-159"/>
      <point x="-11" y="-87" type="curve" smooth="yes"/>
      <point x="-11" y="-11"/>
      <point x="-70" y="34"/>
      <point x="-178" y="69" type="curve"/>
      <point x="-209" y="3" type="line"/>
      <point x="-125" y="-11"/>
      <point x="-87" y="-44"/>
      <point x="-87" y="-79" type="curve" smooth="yes"/>
      <point x="-87" y="-115"/>
      <point x="-131" y="-143"/>
      <point x="-187" y="-143" type="curve" smooth="yes"/>
      <point x="-284" y="-143"/>
      <point x="-388" y="-97"/>
      <point x="-441" y="-59" type="curve"/>
      <point x="-481" y="-112" type="line"/>
      <point x="-441" y="-141"/>
      <point x="-331" y="-207"/>
    </contour>
  </outline>
</glyph>
<glyph name="Visarga_khar" format="2">
  <unicode hex="10A0F"/>
  <outline>
    <contour>
      <point x="-98" y="773" type="curve" smooth="yes"/>
      <point x="-64" y="773"/>
      <point x="-45" y="793"/>
      <point x="-45" y="841" type="curve" smooth="yes"/>
      <point x="-45" y="890"/>
      <point x="-64" y="908"/>
      <point x="-98" y="908" type="curve" smooth="yes"/>
      <point x="-132" y="908"/>
      <point x="-149" y="890"/>
      <point x="-149" y="841" type="curve" smooth="yes"/>
      <point x="-149" y="793"/>
      <point x="-132" y="773"/>
    </contour>
    <contour>
      <point x="-308" y="773" type="curve" smooth="yes"/>
      <point x="-274" y="773"/>
      <point x="-255" y="793"/>
      <point x="-255" y="841" type="curve" smooth="yes"/>
      <point x="-255" y="890"/>
      <point x="-274" y="908"/>
      <point x="-308" y="908" type="curve" smooth="yes"/>
      <point x="-342" y="908"/>
      <point x="-359" y="890"/>
      <point x="-359" y="841" type="curve" smooth="yes"/>
      <point x="-359" y="793"/>
      <point x="-342" y="773"/>
    </contour>
  </outline>
</glyph>
<glyph name="Ka_khar" format="2">
  <advance width="795"/>
  <unicode hex="10A10"/>
  <outline>
    <contour>
      <point x="368" y="-16" type="line"/>
      <point x="409" y="68"/>
      <point x="462" y="188"/>
      <point x="492" y="307" type="curve"/>
      <point x="602" y="280"/>
      <point x="654" y="225"/>
      <point x="654" y="152" type="curve" smooth="yes"/>
      <point x="654" y="109"/>
      <point x="633" y="71"/>
      <point x="607" y="36" type="curve"/>
      <point x="667" y="-14" type="line"/>
      <point x="706" y="40"/>
      <point x="740" y="89"/>
      <point x="740" y="161" type="curve" smooth="yes"/>
      <point x="740" y="282"/>
      <point x="647" y="353"/>
      <point x="507" y="380" type="curve"/>
      <point x="513" y="414"/>
      <point x="516" y="446"/>
      <point x="516" y="478" type="curve" smooth="yes"/>
      <point x="516" y="613"/>
      <point x="461" y="716"/>
      <point x="294" y="716" type="curve" smooth="yes"/>
      <point x="161" y="716"/>
      <point x="88" y="631"/>
      <point x="88" y="536" type="curve" smooth="yes"/>
      <point x="88" y="483"/>
      <point x="110" y="428"/>
      <point x="158" y="380" type="curve"/>
      <point x="221" y="432" type="line"/>
      <point x="188" y="467"/>
      <point x="172" y="505"/>
      <point x="172" y="539" type="curve" smooth="yes"/>
      <point x="172" y="595"/>
      <point x="214" y="642"/>
      <point x="294" y="642" type="curve" smooth="yes"/>
      <point x="395" y="642"/>
      <point x="430" y="570"/>
      <point x="430" y="474" type="curve" smooth="yes"/>
      <point x="430" y="316"/>
      <point x="336" y="100"/>
      <point x="288" y="6" type="curve"/>
    </contour>
  </outline>
</glyph>
<glyph name="Kha_khar" format="2">
  <advance width="573"/>
  <unicode hex="10A11"/>
  <outline>
    <contour>
      <point x="385" y="-15" type="line"/>
      <point x="429" y="70"/>
      <point x="455" y="122"/>
      <point x="455" y="180" type="curve" smooth="yes"/>
      <point x="455" y="281"/>
      <point x="412" y="308"/>
      <point x="314" y="308" type="curve" smooth="yes"/>
      <point x="167" y="308"/>
      <point x="150" y="379"/>
      <point x="150" y="445" type="curve" smooth="yes"/>
      <point x="150" y="602"/>
      <point x="211" y="645"/>
      <point x="315" y="645" type="curve" smooth="yes"/>
      <point x="359" y="645"/>
      <point x="436" y="631"/>
      <point x="490" y="598" type="curve"/>
      <point x="522" y="670" type="line"/>
      <point x="467" y="701"/>
      <point x="374" y="720"/>
      <point x="320" y="720" type="curve" smooth="yes"/>
      <point x="164" y="720"/>
      <point x="66" y="643"/>
      <point x="66" y="442" type="curve" smooth="yes"/>
      <point x="66" y="337"/>
      <point x="126" y="234"/>
      <point x="297" y="234" type="curve" smooth="yes"/>
      <point x="361" y="234"/>
      <point x="369" y="207"/>
      <point x="369" y="178" type="curve" smooth="yes"/>
      <point x="369" y="131"/>
      <point x="331" y="56"/>
      <point x="306" y="7" type="curve"/>
    </contour>
  </outline>
</glyph>
<glyph name="Gha_khar" format="2">
  <advance width="680"/>
  <unicode hex="10A13"/>
  <outline>
    <contour>
      <point x="511" y="-14" type="line"/>
      <point x="546" y="40"/>
      <point x="584" y="85"/>
      <point x="584" y="151" type="curve" smooth="yes"/>
      <point x="584" y="243"/>
      <point x="514" y="296"/>
      <point x="349" y="313" type="curve"/>
      <point x="358" y="355" type="line"/>
      <point x="527" y="358"/>
      <point x="651" y="439"/>
      <point x="651" y="552" type="curve" smooth="yes"/>
      <point x="651" y="623"/>
      <point x="598" y="680"/>
      <point x="509" y="680" type="curve" smooth="yes"/>
      <point x="412" y="680"/>
      <point x="350" y="612"/>
      <point x="295" y="425" type="curve"/>
      <point x="224" y="441"/>
      <point x="180" y="484"/>
      <point x="180" y="553" type="curve" smooth="yes"/>
      <point x="180" y="611"/>
      <point x="207" y="654"/>
      <point x="235" y="698" type="curve"/>
      <point x="169" y="732" type="line"/>
      <point x="139" y="692"/>
      <point x="99" y="630"/>
      <point x="99" y="546" type="curve" smooth="yes"/>
      <point x="99" y="447"/>
      <point x="171" y="381"/>
      <point x="277" y="361" type="curve"/>
      <point x="254" y="265"/>
      <point x="220" y="87"/>
      <point x="207" y="-7" type="curve"/>
      <point x="287" y="-15" type="line"/>
      <point x="296" y="50"/>
      <point x="316" y="157"/>
      <point x="335" y="247" type="curve"/>
      <point x="478" y="226"/>
      <point x="498" y="188"/>
      <point x="498" y="148" type="curve" smooth="yes"/>
      <point x="498" y="110"/>
      <point x="475" y="72"/>
      <point x="451" y="36" type="curve"/>
    </contour>
    <contour>
      <point x="375" y="419" type="curve"/>
      <point x="421" y="580"/>
      <point x="457" y="606"/>
      <point x="505" y="606" type="curve" smooth="yes"/>
      <point x="547" y="606"/>
      <point x="567" y="580"/>
      <point x="567" y="550" type="curve" smooth="yes"/>
      <point x="567" y="472"/>
      <point x="473" y="424"/>
    </contour>
  </outline>
</glyph>
<glyph name="Ca_khar" format="2">
  <advance width="584"/>
  <unicode hex="10A15"/>
  <outline>
    <contour>
      <point x="291" y="-17" type="line"/>
      <point x="387" y="70"/>
      <point x="501" y="199"/>
      <point x="501" y="320" type="curve" smooth="yes"/>
      <point x="501" y="396"/>
      <point x="463" y="460"/>
      <point x="344" y="471" type="curve"/>
      <point x="386" y="498"/>
      <point x="486" y="606"/>
      <point x="529" y="678" type="curve"/>
      <point x="469" y="719" type="line"/>
      <point x="425" y="658"/>
      <point x="393" y="616"/>
      <point x="322" y="616" type="curve" smooth="yes"/>
      <point x="251" y="616"/>
      <point x="185" y="677"/>
      <point x="167" y="733" type="curve"/>
      <point x="99" y="691" type="line"/>
      <point x="124" y="631"/>
      <point x="207" y="537"/>
      <point x="317" y="537" type="curve" smooth="yes"/>
      <point x="320" y="537"/>
      <point x="329" y="538"/>
      <point x="336" y="539" type="curve"/>
      <point x="301" y="506"/>
      <point x="211" y="464"/>
      <point x="187" y="455" type="curve"/>
      <point x="205" y="386" type="line"/>
      <point x="233" y="397"/>
      <point x="282" y="404"/>
      <point x="311" y="404" type="curve" smooth="yes"/>
      <point x="349" y="404"/>
      <point x="415" y="388"/>
      <point x="415" y="318" type="curve" smooth="yes"/>
      <point x="415" y="217"/>
      <point x="330" y="118"/>
      <point x="228" y="26" type="curve"/>
    </contour>
  </outline>
</glyph>
<glyph name="Cha_khar" format="2">
  <advance width="715"/>
  <unicode hex="10A16"/>
  <outline>
    <contour>
      <point x="337" y="441" type="curve"/>
      <point x="341" y="441"/>
      <point x="341" y="441"/>
      <point x="343" y="441" type="curve" smooth="yes"/>
      <point x="477" y="441"/>
      <point x="552" y="369"/>
      <point x="552" y="267" type="curve" smooth="yes"/>
      <point x="552" y="221"/>
      <point x="527" y="155"/>
      <point x="497" y="98" type="curve"/>
      <point x="571" y="69" type="line"/>
      <point x="600" y="120"/>
      <point x="638" y="212"/>
      <point x="638" y="274" type="curve" smooth="yes"/>
      <point x="638" y="397"/>
      <point x="562" y="472"/>
      <point x="456" y="501" type="curve"/>
      <point x="504" y="568"/>
      <point x="570" y="579"/>
      <point x="635" y="678" type="curve"/>
      <point x="570" y="719" type="line"/>
      <point x="526" y="658"/>
      <point x="487" y="616"/>
      <point x="428" y="616" type="curve" smooth="yes"/>
      <point x="357" y="616"/>
      <point x="291" y="677"/>
      <point x="273" y="733" type="curve"/>
      <point x="205" y="691" type="line"/>
      <point x="228" y="635"/>
      <point x="300" y="550"/>
      <point x="398" y="538" type="curve"/>
      <point x="390" y="531"/>
      <point x="381" y="523"/>
      <point x="373" y="514" type="curve"/>
      <point x="366" y="515"/>
      <point x="358" y="515"/>
      <point x="350" y="515" type="curve" smooth="yes"/>
      <point x="207" y="515"/>
      <point x="66" y="438"/>
      <point x="66" y="289" type="curve" smooth="yes"/>
      <point x="66" y="236"/>
      <point x="88" y="181"/>
      <point x="136" y="133" type="curve"/>
      <point x="199" y="185" type="line"/>
      <point x="166" y="220"/>
      <point x="150" y="258"/>
      <point x="150" y="292" type="curve" smooth="yes"/>
      <point x="150" y="393"/>
      <point x="228" y="441"/>
    </contour>
    <contour>
      <point x="429" y="451" type="curve"/>
      <point x="344" y="458" type="line"/>
      <point x="297" y="300"/>
      <point x="249" y="112"/>
      <point x="233" y="-1" type="curve"/>
      <point x="312" y="-15" type="line"/>
      <point x="329" y="99"/>
      <point x="381" y="292"/>
    </contour>
  </outline>
</glyph>
<glyph name="Ja_khar" format="2">
  <advance width="559"/>
  <unicode hex="10A17"/>
  <outline>
    <contour>
      <point x="132" y="-15" type="line"/>
      <point x="274" y="107"/>
      <point x="513" y="449"/>
      <point x="563" y="704" type="curve"/>
      <point x="481" y="718" type="line"/>
      <point x="466" y="641"/>
      <point x="433" y="552"/>
      <point x="390" y="463" type="curve"/>
      <point x="268" y="591"/>
      <point x="207" y="690"/>
      <point x="189" y="730" type="curve"/>
      <point x="113" y="686" type="line"/>
      <point x="132" y="640"/>
      <point x="203" y="523"/>
      <point x="345" y="378" type="curve"/>
      <point x="265" y="235"/>
      <point x="159" y="102"/>
      <point x="84" y="41" type="curve"/>
    </contour>
  </outline>
</glyph>
<glyph name="Nya_khar" format="2">
  <advance width="629"/>
  <unicode hex="10A19"/>
  <outline>
    <contour>
      <point x="37" y="-22" type="line"/>
      <point x="103" y="34"/>
      <point x="192" y="130"/>
      <point x="252" y="337" type="curve"/>
      <point x="279" y="330"/>
      <point x="311" y="327"/>
      <point x="347" y="327" type="curve" smooth="yes"/>
      <point x="462" y="327"/>
      <point x="570" y="363"/>
      <point x="570" y="484" type="curve" smooth="yes"/>
      <point x="570" y="531"/>
      <point x="555" y="562"/>
      <point x="555" y="604" type="curve" smooth="yes"/>
      <point x="555" y="628"/>
      <point x="578" y="636"/>
      <point x="622" y="642" type="curve"/>
      <point x="597" y="711" type="line"/>
      <point x="532" y="711"/>
      <point x="474" y="680"/>
      <point x="474" y="606" type="curve" smooth="yes"/>
      <point x="474" y="557"/>
      <point x="484" y="525"/>
      <point x="484" y="482" type="curve" smooth="yes"/>
      <point x="484" y="407"/>
      <point x="424" y="398"/>
      <point x="349" y="398" type="curve" smooth="yes"/>
      <point x="324" y="398"/>
      <point x="296" y="401"/>
      <point x="270" y="407" type="curve"/>
      <point x="293" y="495"/>
      <point x="317" y="608"/>
      <point x="331" y="710" type="curve"/>
      <point x="246" y="717" type="line"/>
      <point x="227" y="569"/>
      <point x="179" y="370"/>
      <point x="157" y="300" type="curve" smooth="yes"/>
      <point x="124" y="195"/>
      <point x="49" y="81"/>
      <point x="-3" y="41" type="curve"/>
    </contour>
  </outline>
</glyph>
<glyph name="Tta_khar" format="2">
  <advance width="647"/>
  <unicode hex="10A1A"/>
  <outline>
    <contour>
      <point x="167" y="-17" type="line"/>
      <point x="284" y="56"/>
      <point x="401" y="129"/>
      <point x="581" y="129" type="curve"/>
      <point x="581" y="203" type="line"/>
      <point x="450" y="203"/>
      <point x="351" y="168"/>
      <point x="275" y="130" type="curve"/>
      <point x="317" y="214"/>
      <point x="363" y="317"/>
      <point x="402" y="408" type="curve" smooth="yes"/>
      <point x="447" y="513"/>
      <point x="490" y="610"/>
      <point x="518" y="655" type="curve"/>
      <point x="492" y="721" type="line"/>
      <point x="375" y="648"/>
      <point x="258" y="575"/>
      <point x="78" y="575" type="curve"/>
      <point x="78" y="501" type="line"/>
      <point x="216" y="501"/>
      <point x="317" y="538"/>
      <point x="393" y="578" type="curve"/>
      <point x="374" y="537"/>
      <point x="353" y="489"/>
      <point x="332" y="440" type="curve" smooth="yes"/>
      <point x="270" y="296"/>
      <point x="196" y="135"/>
      <point x="142" y="49" type="curve"/>
    </contour>
  </outline>
</glyph>
<glyph name="Ttha_khar" format="2">
  <advance width="614"/>
  <unicode hex="10A1B"/>
  <outline>
    <contour>
      <point x="387" y="-15" type="line"/>
      <point x="443" y="98"/>
      <point x="530" y="417"/>
      <point x="530" y="582" type="curve" smooth="yes"/>
      <point x="530" y="674"/>
      <point x="487" y="730"/>
      <point x="349" y="730" type="curve" smooth="yes"/>
      <point x="280" y="730"/>
      <point x="184" y="714"/>
      <point x="99" y="683" type="curve"/>
      <point x="117" y="614" type="line"/>
      <point x="198" y="641"/>
      <point x="269" y="652"/>
      <point x="338" y="652" type="curve" smooth="yes"/>
      <point x="406" y="652"/>
      <point x="444" y="635"/>
      <point x="444" y="578" type="curve" smooth="yes"/>
      <point x="444" y="534"/>
      <point x="438" y="482"/>
      <point x="428" y="428" type="curve"/>
      <point x="400" y="429"/>
      <point x="369" y="430"/>
      <point x="337" y="430" type="curve" smooth="yes"/>
      <point x="229" y="430"/>
      <point x="147" y="413"/>
      <point x="99" y="393" type="curve"/>
      <point x="117" y="324" type="line"/>
      <point x="163" y="341"/>
      <point x="239" y="357"/>
      <point x="338" y="357" type="curve" smooth="yes"/>
      <point x="363" y="357"/>
      <point x="389" y="356"/>
      <point x="414" y="355" type="curve"/>
      <point x="384" y="215"/>
      <point x="347" y="90"/>
      <point x="307" y="9" type="curve"/>
    </contour>
  </outline>
</glyph>
<glyph name="Dda_khar" format="2">
  <advance width="577"/>
  <unicode hex="10A1C"/>
  <outline>
    <contour>
      <point x="362" y="-15" type="line"/>
      <point x="390" y="173"/>
      <point x="512" y="573"/>
      <point x="559" y="685" type="curve"/>
      <point x="478" y="707" type="line"/>
      <point x="455" y="651"/>
      <point x="417" y="538"/>
      <point x="379" y="412" type="curve"/>
      <point x="222" y="435"/>
      <point x="170" y="472"/>
      <point x="170" y="566" type="curve" smooth="yes"/>
      <point x="170" y="612"/>
      <point x="193" y="656"/>
      <point x="215" y="692" type="curve"/>
      <point x="144" y="724" type="line"/>
      <point x="107" y="673"/>
      <point x="84" y="621"/>
      <point x="84" y="559" type="curve" smooth="yes"/>
      <point x="84" y="413"/>
      <point x="184" y="367"/>
      <point x="359" y="342" type="curve"/>
      <point x="322" y="213"/>
      <point x="294" y="82"/>
      <point x="283" y="-1" type="curve"/>
    </contour>
    <contour>
      <point x="362" y="-15" type="line"/>
      <point x="390" y="173"/>
      <point x="512" y="573"/>
      <point x="559" y="685" type="curve"/>
      <point x="478" y="707" type="line"/>
      <point x="455" y="651"/>
      <point x="417" y="538"/>
      <point x="379" y="412" type="curve"/>
      <point x="222" y="435"/>
      <point x="170" y="472"/>
      <point x="170" y="566" type="curve" smooth="yes"/>
      <point x="170" y="612"/>
      <point x="193" y="656"/>
      <point x="215" y="692" type="curve"/>
      <point x="144" y="724" type="line"/>
      <point x="107" y="673"/>
      <point x="84" y="621"/>
      <point x="84" y="559" type="curve" smooth="yes"/>
      <point x="84" y="413"/>
      <point x="184" y="367"/>
      <point x="359" y="342" type="curve"/>
      <point x="322" y="213"/>
      <point x="294" y="82"/>
      <point x="283" y="-1" type="curve"/>
    </contour>
  </outline>
</glyph>
<glyph name="Ddha_khar" format="2">
  <advance width="584"/>
  <unicode hex="10A1D"/>
  <outline>
    <contour>
      <point x="214" y="-15" type="line"/>
      <point x="239" y="152"/>
      <point x="338" y="487"/>
      <point x="393" y="638" type="curve"/>
      <point x="592" y="638" type="line"/>
      <point x="606" y="712" type="line"/>
      <point x="113" y="712" type="line"/>
      <point x="99" y="638" type="line"/>
      <point x="304" y="638" type="line"/>
      <point x="246" y="474"/>
      <point x="158" y="161"/>
      <point x="135" y="-1" type="curve"/>
    </contour>
  </outline>
</glyph>
<glyph name="Nna_khar" format="2">
  <advance width="421"/>
  <unicode hex="10A1E"/>
  <outline>
    <contour>
      <point x="140" y="-17" type="curve"/>
      <point x="220" y="16" type="line"/>
      <point x="193" y="81"/>
      <point x="188" y="128"/>
      <point x="188" y="326" type="curve" smooth="yes"/>
      <point x="188" y="406"/>
      <point x="191" y="487"/>
      <point x="201" y="571" type="curve"/>
      <point x="233" y="515"/>
      <point x="270" y="460"/>
      <point x="289" y="435" type="curve"/>
      <point x="359" y="479" type="line"/>
      <point x="303" y="557"/>
      <point x="224" y="667"/>
      <point x="222" y="713" type="curve"/>
      <point x="137" y="720" type="line"/>
      <point x="117" y="593"/>
      <point x="106" y="453"/>
      <point x="106" y="326" type="curve" smooth="yes"/>
      <point x="106" y="178"/>
      <point x="110" y="43"/>
    </contour>
  </outline>
</glyph>
<glyph name="Ta_khar" format="2">
  <advance width="601"/>
  <unicode hex="10A1F"/>
  <outline>
    <contour>
      <point x="141" y="-14" type="line"/>
      <point x="396" y="42"/>
      <point x="557" y="238"/>
      <point x="557" y="399" type="curve" smooth="yes"/>
      <point x="557" y="495"/>
      <point x="518" y="551"/>
      <point x="391" y="551" type="curve" smooth="yes"/>
      <point x="341" y="551"/>
      <point x="296" y="543"/>
      <point x="250" y="543" type="curve" smooth="yes"/>
      <point x="182" y="543"/>
      <point x="172" y="571"/>
      <point x="172" y="594" type="curve" smooth="yes"/>
      <point x="172" y="631"/>
      <point x="201" y="653"/>
      <point x="236" y="662" type="curve"/>
      <point x="211" y="731" type="line"/>
      <point x="148" y="721"/>
      <point x="88" y="669"/>
      <point x="88" y="596" type="curve" smooth="yes"/>
      <point x="88" y="509"/>
      <point x="147" y="465"/>
      <point x="238" y="465" type="curve" smooth="yes"/>
      <point x="288" y="465"/>
      <point x="333" y="473"/>
      <point x="379" y="473" type="curve" smooth="yes"/>
      <point x="461" y="473"/>
      <point x="471" y="436"/>
      <point x="471" y="399" type="curve" smooth="yes"/>
      <point x="471" y="271"/>
      <point x="355" y="109"/>
      <point x="120" y="58" type="curve"/>
    </contour>
  </outline>
</glyph>
<glyph name="Tha_khar" format="2">
  <advance width="645"/>
  <unicode hex="10A20"/>
  <outline>
    <contour>
      <point x="256" y="-15" type="line"/>
      <point x="278" y="100"/>
      <point x="325" y="301"/>
      <point x="374" y="465" type="curve"/>
      <point x="479" y="460"/>
      <point x="563" y="444"/>
      <point x="609" y="426" type="curve"/>
      <point x="638" y="500" type="line"/>
      <point x="589" y="519"/>
      <point x="499" y="532"/>
      <point x="396" y="537" type="curve"/>
      <point x="418" y="609"/>
      <point x="439" y="669"/>
      <point x="453" y="702" type="curve"/>
      <point x="372" y="724" type="line"/>
      <point x="356" y="686"/>
      <point x="333" y="619"/>
      <point x="308" y="539" type="curve"/>
      <point x="201" y="538"/>
      <point x="120" y="522"/>
      <point x="73" y="502" type="curve"/>
      <point x="91" y="433" type="line"/>
      <point x="133" y="448"/>
      <point x="199" y="463"/>
      <point x="286" y="465" type="curve"/>
      <point x="237" y="302"/>
      <point x="195" y="114"/>
      <point x="177" y="-1" type="curve"/>
    </contour>
  </outline>
</glyph>
<glyph name="Da_khar" format="2">
  <advance width="486"/>
  <unicode hex="10A21"/>
  <outline>
    <contour>
      <point x="191" y="-15" type="curve" smooth="yes"/>
      <point x="332" y="-15"/>
      <point x="442" y="81"/>
      <point x="442" y="199" type="curve" smooth="yes"/>
      <point x="442" y="314"/>
      <point x="370" y="386"/>
      <point x="303" y="450" type="curve" smooth="yes"/>
      <point x="253" y="497"/>
      <point x="210" y="541"/>
      <point x="210" y="594" type="curve" smooth="yes"/>
      <point x="210" y="631"/>
      <point x="239" y="653"/>
      <point x="274" y="662" type="curve"/>
      <point x="249" y="731" type="line"/>
      <point x="186" y="721"/>
      <point x="126" y="669"/>
      <point x="126" y="596" type="curve" smooth="yes"/>
      <point x="126" y="497"/>
      <point x="188" y="435"/>
      <point x="249" y="376" type="curve" smooth="yes"/>
      <point x="303" y="323"/>
      <point x="356" y="271"/>
      <point x="356" y="199" type="curve" smooth="yes"/>
      <point x="356" y="118"/>
      <point x="291" y="61"/>
      <point x="190" y="61" type="curve" smooth="yes"/>
      <point x="155" y="61"/>
      <point x="131" y="64"/>
      <point x="102" y="72" type="curve"/>
      <point x="84" y="-1" type="line"/>
      <point x="117" y="-11"/>
      <point x="153" y="-15"/>
    </contour>
  </outline>
</glyph>
<glyph name="Dha_khar" format="2">
  <advance width="535"/>
  <unicode hex="10A22"/>
  <outline>
    <contour>
      <point x="263" y="-19" type="line"/>
      <point x="357" y="59"/>
      <point x="491" y="199"/>
      <point x="491" y="320" type="curve" smooth="yes"/>
      <point x="491" y="390"/>
      <point x="452" y="450"/>
      <point x="335" y="450" type="curve"/>
      <point x="370" y="483"/>
      <point x="391" y="528"/>
      <point x="391" y="574" type="curve" smooth="yes"/>
      <point x="391" y="686"/>
      <point x="311" y="724"/>
      <point x="180" y="724" type="curve" smooth="yes"/>
      <point x="154" y="724"/>
      <point x="124" y="722"/>
      <point x="88" y="717" type="curve"/>
      <point x="99" y="646" type="line"/>
      <point x="131" y="651"/>
      <point x="155" y="652"/>
      <point x="174" y="652" type="curve" smooth="yes"/>
      <point x="259" y="652"/>
      <point x="305" y="627"/>
      <point x="305" y="572" type="curve" smooth="yes"/>
      <point x="305" y="474"/>
      <point x="245" y="452"/>
      <point x="167" y="433" type="curve"/>
      <point x="185" y="363" type="line"/>
      <point x="213" y="374"/>
      <point x="262" y="381"/>
      <point x="291" y="381" type="curve" smooth="yes"/>
      <point x="367" y="381"/>
      <point x="405" y="365"/>
      <point x="405" y="316" type="curve" smooth="yes"/>
      <point x="405" y="215"/>
      <point x="318" y="125"/>
      <point x="211" y="33" type="curve"/>
    </contour>
  </outline>
</glyph>
<glyph name="Na_khar" format="2">
  <advance width="462"/>
  <unicode hex="10A23"/>
  <outline>
    <contour>
      <point x="252" y="-15" type="line"/>
      <point x="307" y="103"/>
      <point x="366" y="246"/>
      <point x="366" y="346" type="curve" smooth="yes"/>
      <point x="366" y="444"/>
      <point x="317" y="468"/>
      <point x="264" y="488" type="curve" smooth="yes"/>
      <point x="224" y="503"/>
      <point x="184" y="519"/>
      <point x="184" y="575" type="curve" smooth="yes"/>
      <point x="184" y="617"/>
      <point x="206" y="654"/>
      <point x="271" y="654" type="curve" smooth="yes"/>
      <point x="306" y="654"/>
      <point x="360" y="651"/>
      <point x="389" y="643" type="curve"/>
      <point x="407" y="716" type="line"/>
      <point x="374" y="726"/>
      <point x="308" y="730"/>
      <point x="270" y="730" type="curve" smooth="yes"/>
      <point x="161" y="730"/>
      <point x="98" y="655"/>
      <point x="98" y="575" type="curve" smooth="yes"/>
      <point x="98" y="466"/>
      <point x="156" y="441"/>
      <point x="209" y="419" type="curve" smooth="yes"/>
      <point x="252" y="401"/>
      <point x="282" y="384"/>
      <point x="282" y="330" type="curve" smooth="yes"/>
      <point x="282" y="257"/>
      <point x="221" y="106"/>
      <point x="173" y="7" type="curve"/>
    </contour>
  </outline>
</glyph>
<glyph name="Pa_khar" format="2">
  <advance width="565"/>
  <unicode hex="10A24"/>
  <outline>
    <contour>
      <point x="260" y="534" type="curve"/>
      <point x="282" y="606"/>
      <point x="303" y="666"/>
      <point x="317" y="699" type="curve"/>
      <point x="236" y="721" type="line"/>
      <point x="165" y="547"/>
      <point x="64" y="194"/>
      <point x="39" y="0" type="curve"/>
      <point x="118" y="-8" type="line"/>
      <point x="139" y="107"/>
      <point x="190" y="302"/>
      <point x="238" y="463" type="curve"/>
      <point x="372" y="438"/>
      <point x="435" y="382"/>
      <point x="435" y="291" type="curve" smooth="yes"/>
      <point x="435" y="247"/>
      <point x="408" y="210"/>
      <point x="388" y="184" type="curve"/>
      <point x="448" y="133" type="line"/>
      <point x="481" y="181"/>
      <point x="521" y="242"/>
      <point x="521" y="298" type="curve" smooth="yes"/>
      <point x="521" y="438"/>
      <point x="415" y="510"/>
    </contour>
  </outline>
</glyph>
<glyph name="Pha_khar" format="2">
  <advance width="653"/>
  <unicode hex="10A25"/>
  <outline>
    <contour>
      <point x="202" y="-8" type="line"/>
      <point x="241" y="183"/>
      <point x="348" y="589"/>
      <point x="397" y="699" type="curve"/>
      <point x="316" y="721" type="line"/>
      <point x="245" y="547"/>
      <point x="147" y="193"/>
      <point x="122" y="-1" type="curve"/>
    </contour>
    <contour>
      <point x="535" y="133" type="line"/>
      <point x="572" y="181"/>
      <point x="609" y="231"/>
      <point x="609" y="298" type="curve" smooth="yes"/>
      <point x="609" y="443"/>
      <point x="501" y="514"/>
      <point x="343" y="535" type="curve"/>
      <point x="254" y="538" type="line"/>
      <point x="170" y="533"/>
      <point x="106" y="519"/>
      <point x="66" y="502" type="curve"/>
      <point x="84" y="433" type="line"/>
      <point x="118" y="445"/>
      <point x="167" y="457"/>
      <point x="230" y="462" type="curve"/>
      <point x="320" y="463" type="line"/>
      <point x="458" y="441"/>
      <point x="523" y="383"/>
      <point x="523" y="291" type="curve" smooth="yes"/>
      <point x="523" y="247"/>
      <point x="502" y="219"/>
      <point x="475" y="184" type="curve"/>
    </contour>
  </outline>
</glyph>
<glyph name="Ba_khar" format="2">
  <advance width="630"/>
  <unicode hex="10A26"/>
  <outline>
    <contour>
      <point x="390" y="-15" type="line"/>
      <point x="522" y="246"/>
      <point x="564" y="424"/>
      <point x="564" y="556" type="curve" smooth="yes"/>
      <point x="564" y="651"/>
      <point x="531" y="700"/>
      <point x="439" y="700" type="curve" smooth="yes"/>
      <point x="337" y="700"/>
      <point x="310" y="644"/>
      <point x="293" y="582" type="curve" smooth="yes"/>
      <point x="279" y="531"/>
      <point x="260" y="511"/>
      <point x="230" y="511" type="curve" smooth="yes"/>
      <point x="194" y="511"/>
      <point x="183" y="538"/>
      <point x="183" y="594" type="curve" smooth="yes"/>
      <point x="183" y="632"/>
      <point x="194" y="672"/>
      <point x="208" y="708" type="curve"/>
      <point x="130" y="729" type="line"/>
      <point x="107" y="685"/>
      <point x="99" y="641"/>
      <point x="99" y="596" type="curve" smooth="yes"/>
      <point x="99" y="465"/>
      <point x="166" y="433"/>
      <point x="228" y="433" type="curve" smooth="yes"/>
      <point x="309" y="433"/>
      <point x="349" y="478"/>
      <point x="372" y="551" type="curve" smooth="yes"/>
      <point x="387" y="598"/>
      <point x="398" y="620"/>
      <point x="436" y="620" type="curve" smooth="yes"/>
      <point x="468" y="620"/>
      <point x="478" y="587"/>
      <point x="478" y="556" type="curve" smooth="yes"/>
      <point x="478" y="438"/>
      <point x="444" y="277"/>
      <point x="318" y="20" type="curve"/>
    </contour>
  </outline>
</glyph>
<glyph name="Bha_khar" format="2">
  <advance width="698"/>
  <unicode hex="10A27"/>
  <outline>
    <contour>
      <point x="369" y="534" type="curve"/>
      <point x="324" y="536" type="line"/>
      <point x="301" y="465" type="line"/>
      <point x="347" y="463" type="line"/>
      <point x="482" y="439"/>
      <point x="546" y="382"/>
      <point x="546" y="291" type="curve" smooth="yes"/>
      <point x="546" y="245"/>
      <point x="523" y="201"/>
      <point x="501" y="165" type="curve"/>
      <point x="572" y="133" type="line"/>
      <point x="609" y="184"/>
      <point x="632" y="236"/>
      <point x="632" y="298" type="curve" smooth="yes"/>
      <point x="632" y="439"/>
      <point x="525" y="514"/>
    </contour>
    <contour>
      <point x="99" y="635" type="line"/>
      <point x="592" y="635" type="line"/>
      <point x="606" y="709" type="line"/>
      <point x="113" y="709" type="line"/>
    </contour>
    <contour>
      <point x="410" y="665" type="curve"/>
      <point x="321" y="666" type="line"/>
      <point x="252" y="480"/>
      <point x="168" y="174"/>
      <point x="145" y="-1" type="curve"/>
      <point x="223" y="-14" type="line"/>
      <point x="262" y="173"/>
      <point x="356" y="519"/>
    </contour>
  </outline>
</glyph>
<glyph name="Ma_khar" format="2">
  <advance width="696"/>
  <unicode hex="10A28"/>
  <outline>
    <contour>
      <point x="393" y="285" type="curve" smooth="yes"/>
      <point x="536" y="285"/>
      <point x="677" y="362"/>
      <point x="677" y="511" type="curve" smooth="yes"/>
      <point x="677" y="564"/>
      <point x="655" y="619"/>
      <point x="607" y="667" type="curve"/>
      <point x="544" y="615" type="line"/>
      <point x="577" y="580"/>
      <point x="593" y="542"/>
      <point x="593" y="508" type="curve" smooth="yes"/>
      <point x="593" y="407"/>
      <point x="514" y="359"/>
      <point x="406" y="359" type="curve" smooth="yes"/>
      <point x="280" y="359"/>
      <point x="191" y="417"/>
      <point x="191" y="533" type="curve" smooth="yes"/>
      <point x="191" y="579"/>
      <point x="213" y="645"/>
      <point x="246" y="699" type="curve"/>
      <point x="175" y="731" type="line"/>
      <point x="138" y="680"/>
      <point x="105" y="588"/>
      <point x="105" y="526" type="curve" smooth="yes"/>
      <point x="105" y="364"/>
      <point x="236" y="285"/>
    </contour>
  </outline>
</glyph>
<glyph name="Ya_khar" format="2">
  <advance width="653"/>
  <unicode hex="10A29"/>
  <outline>
    <contour>
      <point x="71" y="-17" type="line"/>
      <point x="136" y="87"/>
      <point x="274" y="347"/>
      <point x="353" y="540" type="curve"/>
      <point x="388" y="341"/>
      <point x="458" y="119"/>
      <point x="529" y="-16" type="curve"/>
      <point x="609" y="19" type="line"/>
      <point x="518" y="195"/>
      <point x="426" y="524"/>
      <point x="412" y="720" type="curve"/>
      <point x="331" y="714" type="line"/>
      <point x="303" y="570"/>
      <point x="79" y="138"/>
      <point x="0" y="16" type="curve"/>
    </contour>
  </outline>
</glyph>
<glyph name="Ra_khar" format="2">
  <advance width="557"/>
  <unicode hex="10A2A"/>
  <outline>
    <contour>
      <point x="318" y="-17" type="line"/>
      <point x="392" y="116"/>
      <point x="513" y="338"/>
      <point x="513" y="441" type="curve" smooth="yes"/>
      <point x="513" y="521"/>
      <point x="470" y="569"/>
      <point x="332" y="569" type="curve" smooth="yes"/>
      <point x="192" y="569"/>
      <point x="178" y="576"/>
      <point x="178" y="612" type="curve" smooth="yes"/>
      <point x="178" y="632"/>
      <point x="186" y="669"/>
      <point x="197" y="707" type="curve"/>
      <point x="117" y="720" type="line"/>
      <point x="106" y="683"/>
      <point x="99" y="634"/>
      <point x="99" y="596" type="curve" smooth="yes"/>
      <point x="99" y="505"/>
      <point x="136" y="491"/>
      <point x="321" y="491" type="curve" smooth="yes"/>
      <point x="404" y="491"/>
      <point x="427" y="475"/>
      <point x="427" y="437" type="curve" smooth="yes"/>
      <point x="427" y="338"/>
      <point x="310" y="132"/>
      <point x="246" y="20" type="curve"/>
    </contour>
  </outline>
</glyph>
<glyph name="La_khar" format="2">
  <advance width="533"/>
  <unicode hex="10A2B"/>
  <outline>
    <contour>
      <point x="307" y="-15" type="line"/>
      <point x="347" y="201"/>
      <point x="457" y="590"/>
      <point x="504" y="702" type="curve"/>
      <point x="423" y="724" type="line"/>
      <point x="407" y="686"/>
      <point x="384" y="618"/>
      <point x="359" y="538" type="curve"/>
      <point x="188" y="535"/>
      <point x="116" y="520"/>
      <point x="73" y="502" type="curve"/>
      <point x="91" y="433" type="line"/>
      <point x="130" y="447"/>
      <point x="192" y="461"/>
      <point x="337" y="465" type="curve"/>
      <point x="288" y="301"/>
      <point x="246" y="109"/>
      <point x="228" y="-1" type="curve"/>
    </contour>
  </outline>
</glyph>
<glyph name="Va_khar" format="2">
  <advance width="574"/>
  <unicode hex="10A2C"/>
  <outline>
    <contour>
      <point x="309" y="-17" type="line"/>
      <point x="383" y="106"/>
      <point x="530" y="369"/>
      <point x="530" y="535" type="curve" smooth="yes"/>
      <point x="530" y="627"/>
      <point x="487" y="713"/>
      <point x="349" y="713" type="curve" smooth="yes"/>
      <point x="280" y="713"/>
      <point x="184" y="697"/>
      <point x="99" y="666" type="curve"/>
      <point x="117" y="597" type="line"/>
      <point x="198" y="624"/>
      <point x="269" y="635"/>
      <point x="338" y="635" type="curve" smooth="yes"/>
      <point x="406" y="635"/>
      <point x="444" y="589"/>
      <point x="444" y="531" type="curve" smooth="yes"/>
      <point x="444" y="360"/>
      <point x="301" y="125"/>
      <point x="240" y="26" type="curve"/>
    </contour>
  </outline>
</glyph>
<glyph name="Sha_khar" format="2">
  <advance width="741"/>
  <unicode hex="10A2D"/>
  <outline>
    <contour>
      <point x="549" y="-16" type="line"/>
      <point x="608" y="107"/>
      <point x="690" y="370"/>
      <point x="690" y="535" type="curve" smooth="yes"/>
      <point x="690" y="627"/>
      <point x="647" y="713"/>
      <point x="509" y="713" type="curve" smooth="yes"/>
      <point x="429" y="713"/>
      <point x="300" y="694"/>
      <point x="220" y="667" type="curve"/>
      <point x="198" y="524"/>
      <point x="87" y="107"/>
      <point x="44" y="8" type="curve"/>
      <point x="123" y="-13" type="line"/>
      <point x="174" y="104"/>
      <point x="263" y="444"/>
      <point x="296" y="613" type="curve"/>
      <point x="366" y="629"/>
      <point x="444" y="635"/>
      <point x="498" y="635" type="curve" smooth="yes"/>
      <point x="566" y="635"/>
      <point x="604" y="589"/>
      <point x="604" y="531" type="curve" smooth="yes"/>
      <point x="604" y="360"/>
      <point x="522" y="108"/>
      <point x="469" y="5" type="curve"/>
    </contour>
  </outline>
</glyph>
<glyph name="Ssa_khar" format="2">
  <advance width="704"/>
  <unicode hex="10A2E"/>
  <outline>
    <contour>
      <point x="153" y="-22" type="line"/>
      <point x="338" y="123"/>
      <point x="398" y="341"/>
      <point x="444" y="628" type="curve"/>
      <point x="523" y="607"/>
      <point x="574" y="552"/>
      <point x="574" y="465" type="curve" smooth="yes"/>
      <point x="574" y="403"/>
      <point x="542" y="330"/>
      <point x="497" y="285" type="curve"/>
      <point x="559" y="238" type="line"/>
      <point x="607" y="279"/>
      <point x="660" y="379"/>
      <point x="660" y="472" type="curve" smooth="yes"/>
      <point x="660" y="634"/>
      <point x="529" y="713"/>
      <point x="372" y="713" type="curve" smooth="yes"/>
      <point x="229" y="713"/>
      <point x="88" y="636"/>
      <point x="88" y="487" type="curve" smooth="yes"/>
      <point x="88" y="434"/>
      <point x="110" y="379"/>
      <point x="158" y="331" type="curve"/>
      <point x="221" y="383" type="line"/>
      <point x="188" y="418"/>
      <point x="172" y="456"/>
      <point x="172" y="490" type="curve" smooth="yes"/>
      <point x="172" y="591"/>
      <point x="253" y="639"/>
      <point x="362" y="639" type="curve"/>
      <point x="329" y="411"/>
      <point x="287" y="188"/>
      <point x="114" y="42" type="curve"/>
    </contour>
  </outline>
</glyph>
<glyph name="Sa_khar" format="2">
  <advance width="567"/>
  <unicode hex="10A2F"/>
  <outline>
    <contour>
      <point x="48" y="-22" type="line"/>
      <point x="137" y="54"/>
      <point x="221" y="154"/>
      <point x="250" y="289" type="curve"/>
      <point x="265" y="288"/>
      <point x="281" y="287"/>
      <point x="300" y="287" type="curve" smooth="yes"/>
      <point x="415" y="287"/>
      <point x="523" y="358"/>
      <point x="523" y="479" type="curve" smooth="yes"/>
      <point x="523" y="604"/>
      <point x="430" y="627"/>
      <point x="303" y="643" type="curve" smooth="yes"/>
      <point x="200" y="656"/>
      <point x="175" y="687"/>
      <point x="166" y="722" type="curve"/>
      <point x="97" y="697" type="line"/>
      <point x="114" y="625"/>
      <point x="148" y="590"/>
      <point x="294" y="572" type="curve" smooth="yes"/>
      <point x="387" y="561"/>
      <point x="437" y="542"/>
      <point x="437" y="477" type="curve" smooth="yes"/>
      <point x="437" y="401"/>
      <point x="377" y="358"/>
      <point x="302" y="358" type="curve" smooth="yes"/>
      <point x="289" y="358"/>
      <point x="276" y="358"/>
      <point x="264" y="359" type="curve"/>
      <point x="264" y="405"/>
      <point x="254" y="447"/>
      <point x="242" y="462" type="curve"/>
      <point x="176" y="446" type="line"/>
      <point x="182" y="425"/>
      <point x="184" y="405"/>
      <point x="184" y="373" type="curve" smooth="yes"/>
      <point x="184" y="226"/>
      <point x="74" y="94"/>
      <point x="9" y="42" type="curve"/>
    </contour>
  </outline>
</glyph>
<glyph name="Za_khar" format="2">
  <advance width="611"/>
  <unicode hex="10A30"/>
  <outline>
    <contour>
      <point x="392" y="-15" type="line"/>
      <point x="420" y="173"/>
      <point x="542" y="590"/>
      <point x="589" y="702" type="curve"/>
      <point x="508" y="724" type="line"/>
      <point x="484" y="667"/>
      <point x="445" y="547"/>
      <point x="407" y="415" type="curve"/>
      <point x="308" y="415"/>
      <point x="255" y="417"/>
      <point x="222" y="422" type="curve"/>
      <point x="255" y="467"/>
      <point x="269" y="513"/>
      <point x="269" y="572" type="curve" smooth="yes"/>
      <point x="269" y="635"/>
      <point x="246" y="683"/>
      <point x="187" y="725" type="curve"/>
      <point x="134" y="669" type="line"/>
      <point x="178" y="628"/>
      <point x="189" y="599"/>
      <point x="189" y="559" type="curve" smooth="yes"/>
      <point x="189" y="483"/>
      <point x="145" y="427"/>
      <point x="99" y="377" type="curve"/>
      <point x="143" y="359"/>
      <point x="217" y="345"/>
      <point x="387" y="342" type="curve"/>
      <point x="351" y="212"/>
      <point x="324" y="81"/>
      <point x="313" y="-1" type="curve"/>
    </contour>
  </outline>
</glyph>
<glyph name="Ha_khar" format="2">
  <advance width="549"/>
  <unicode hex="10A31"/>
  <outline>
    <contour>
      <point x="269" y="-15" type="curve" smooth="yes"/>
      <point x="327" y="-15"/>
      <point x="398" y="0"/>
      <point x="442" y="21" type="curve"/>
      <point x="417" y="92" type="line"/>
      <point x="380" y="75"/>
      <point x="328" y="56"/>
      <point x="274" y="56" type="curve" smooth="yes"/>
      <point x="224" y="56"/>
      <point x="209" y="80"/>
      <point x="209" y="117" type="curve" smooth="yes"/>
      <point x="209" y="185"/>
      <point x="285" y="248"/>
      <point x="358" y="302" type="curve" smooth="yes"/>
      <point x="474" y="389"/>
      <point x="527" y="456"/>
      <point x="527" y="544" type="curve" smooth="yes"/>
      <point x="527" y="626"/>
      <point x="472" y="715"/>
      <point x="305" y="715" type="curve" smooth="yes"/>
      <point x="172" y="715"/>
      <point x="99" y="630"/>
      <point x="99" y="535" type="curve" smooth="yes"/>
      <point x="99" y="482"/>
      <point x="121" y="427"/>
      <point x="169" y="379" type="curve"/>
      <point x="232" y="431" type="line"/>
      <point x="199" y="466"/>
      <point x="183" y="504"/>
      <point x="183" y="538" type="curve" smooth="yes"/>
      <point x="183" y="594"/>
      <point x="225" y="641"/>
      <point x="305" y="641" type="curve" smooth="yes"/>
      <point x="406" y="641"/>
      <point x="441" y="585"/>
      <point x="441" y="531" type="curve" smooth="yes"/>
      <point x="441" y="465"/>
      <point x="416" y="436"/>
      <point x="313" y="356" type="curve" smooth="yes"/>
      <point x="213" y="278"/>
      <point x="125" y="197"/>
      <point x="125" y="118" type="curve" smooth="yes"/>
      <point x="125" y="19"/>
      <point x="186" y="-15"/>
    </contour>
  </outline>
</glyph>
<glyph name="Kka_khar" format="2">
  <advance width="806"/>
  <unicode hex="10A32"/>
  <outline>
    <contour>
      <point x="368" y="-16" type="line"/>
      <point x="409" y="68"/>
      <point x="462" y="188"/>
      <point x="492" y="307" type="curve"/>
      <point x="602" y="280"/>
      <point x="654" y="225"/>
      <point x="654" y="152" type="curve" smooth="yes"/>
      <point x="654" y="109"/>
      <point x="634" y="72"/>
      <point x="607" y="36" type="curve"/>
      <point x="667" y="-14" type="line"/>
      <point x="706" y="40"/>
      <point x="740" y="89"/>
      <point x="740" y="161" type="curve" smooth="yes"/>
      <point x="740" y="272"/>
      <point x="650" y="350"/>
      <point x="514" y="379" type="curve"/>
      <point x="539" y="469"/>
      <point x="589" y="598"/>
      <point x="630" y="692" type="curve"/>
      <point x="551" y="713" type="line"/>
      <point x="532" y="670"/>
      <point x="515" y="628"/>
      <point x="500" y="587" type="curve"/>
      <point x="473" y="664"/>
      <point x="412" y="716"/>
      <point x="294" y="716" type="curve" smooth="yes"/>
      <point x="161" y="716"/>
      <point x="88" y="631"/>
      <point x="88" y="536" type="curve" smooth="yes"/>
      <point x="88" y="483"/>
      <point x="110" y="428"/>
      <point x="158" y="380" type="curve"/>
      <point x="221" y="432" type="line"/>
      <point x="188" y="467"/>
      <point x="172" y="505"/>
      <point x="172" y="539" type="curve" smooth="yes"/>
      <point x="172" y="595"/>
      <point x="214" y="642"/>
      <point x="294" y="642" type="curve" smooth="yes"/>
      <point x="395" y="642"/>
      <point x="430" y="570"/>
      <point x="430" y="474" type="curve" smooth="yes"/>
      <point x="430" y="316"/>
      <point x="336" y="100"/>
      <point x="288" y="6" type="curve"/>
    </contour>
  </outline>
</glyph>
<glyph name="Tttha_khar" format="2">
  <advance width="619"/>
  <unicode hex="10A33"/>
  <outline>
    <contour>
      <point x="426" y="-16" type="line"/>
      <point x="489" y="108"/>
      <point x="553" y="324"/>
      <point x="553" y="416" type="curve" smooth="yes"/>
      <point x="553" y="508"/>
      <point x="510" y="564"/>
      <point x="382" y="564" type="curve" smooth="yes"/>
      <point x="311" y="564"/>
      <point x="258" y="547"/>
      <point x="226" y="536" type="curve"/>
      <point x="244" y="466" type="line"/>
      <point x="278" y="478"/>
      <point x="309" y="486"/>
      <point x="371" y="486" type="curve" smooth="yes"/>
      <point x="429" y="486"/>
      <point x="467" y="469"/>
      <point x="467" y="412" type="curve" smooth="yes"/>
      <point x="467" y="389"/>
      <point x="461" y="355"/>
      <point x="452" y="317" type="curve"/>
      <point x="382" y="294"/>
      <point x="337" y="283"/>
      <point x="258" y="283" type="curve" smooth="yes"/>
      <point x="190" y="283"/>
      <point x="152" y="300"/>
      <point x="152" y="357" type="curve" smooth="yes"/>
      <point x="152" y="443"/>
      <point x="209" y="605"/>
      <point x="255" y="710" type="curve"/>
      <point x="176" y="731" type="line"/>
      <point x="118" y="597"/>
      <point x="66" y="451"/>
      <point x="66" y="353" type="curve" smooth="yes"/>
      <point x="66" y="261"/>
      <point x="109" y="205"/>
      <point x="247" y="205" type="curve" smooth="yes"/>
      <point x="310" y="205"/>
      <point x="367" y="215"/>
      <point x="429" y="234" type="curve"/>
      <point x="404" y="151"/>
      <point x="376" y="61"/>
      <point x="347" y="6" type="curve"/>
    </contour>
  </outline>
</glyph>
<glyph name="TTta_khar" format="2">
  <advance width="579"/>
  <unicode hex="10A34"/>
  <outline>
    <contour>
      <point x="179" y="-17" type="line"/>
      <point x="261" y="113"/>
      <point x="389" y="368"/>
      <point x="460" y="540" type="curve" smooth="yes"/>
      <point x="476" y="579"/>
      <point x="501" y="627"/>
      <point x="518" y="655" type="curve"/>
      <point x="492" y="721" type="line"/>
      <point x="375" y="648"/>
      <point x="258" y="575"/>
      <point x="78" y="575" type="curve"/>
      <point x="78" y="501" type="line"/>
      <point x="216" y="501"/>
      <point x="317" y="538"/>
      <point x="393" y="578" type="curve"/>
      <point x="393" y="577"/>
      <point x="393" y="577"/>
      <point x="392" y="576" type="curve"/>
      <point x="317" y="387"/>
      <point x="169" y="110"/>
      <point x="108" y="16" type="curve"/>
    </contour>
  </outline>
</glyph>
<glyph name="VHa_khar" format="2">
  <advance width="802"/>
  <unicode hex="10A35"/>
  <outline>
    <contour>
      <point x="309" y="-17" type="line"/>
      <point x="337" y="40"/>
      <point x="400" y="153"/>
      <point x="455" y="273" type="curve"/>
      <point x="468" y="272"/>
      <point x="508" y="269"/>
      <point x="531" y="269" type="curve" smooth="yes"/>
      <point x="646" y="269"/>
      <point x="719" y="344"/>
      <point x="719" y="464" type="curve" smooth="yes"/>
      <point x="719" y="507"/>
      <point x="705" y="568"/>
      <point x="705" y="609" type="curve" smooth="yes"/>
      <point x="705" y="640"/>
      <point x="711" y="667"/>
      <point x="724" y="689" type="curve"/>
      <point x="659" y="730" type="line"/>
      <point x="635" y="693"/>
      <point x="624" y="653"/>
      <point x="624" y="611" type="curve" smooth="yes"/>
      <point x="624" y="553"/>
      <point x="633" y="516"/>
      <point x="633" y="462" type="curve" smooth="yes"/>
      <point x="633" y="378"/>
      <point x="600" y="339"/>
      <point x="533" y="339" type="curve" smooth="yes"/>
      <point x="520" y="339"/>
      <point x="496" y="341"/>
      <point x="484" y="342" type="curve"/>
      <point x="511" y="411"/>
      <point x="530" y="479"/>
      <point x="530" y="535" type="curve" smooth="yes"/>
      <point x="530" y="627"/>
      <point x="487" y="713"/>
      <point x="349" y="713" type="curve" smooth="yes"/>
      <point x="280" y="713"/>
      <point x="184" y="697"/>
      <point x="99" y="666" type="curve"/>
      <point x="117" y="597" type="line"/>
      <point x="198" y="624"/>
      <point x="269" y="635"/>
      <point x="338" y="635" type="curve" smooth="yes"/>
      <point x="406" y="635"/>
      <point x="444" y="589"/>
      <point x="444" y="531" type="curve" smooth="yes"/>
      <point x="444" y="360"/>
      <point x="296" y="125"/>
      <point x="240" y="26" type="curve"/>
    </contour>
  </outline>
</glyph>
<glyph name="BarAbove_khar" format="2">
  <unicode hex="10A38"/>
  <outline>
    <contour>
      <point x="-552" y="794" type="line"/>
      <point x="-62" y="794" type="line"/>
      <point x="-48" y="868" type="line"/>
      <point x="-535" y="868" type="line"/>
    </contour>
  </outline>
</glyph>
<glyph name="Cauda_khar" format="2">
  <unicode hex="10A39"/>
  <outline>
    <contour>
      <point x="-424" y="72" type="curve"/>
      <point x="-453" y="16" type="line"/>
      <point x="-409" y="0"/>
      <point x="-362" y="-12"/>
      <point x="-310" y="-12" type="curve" smooth="yes"/>
      <point x="-203" y="-12"/>
      <point x="-125" y="38"/>
      <point x="-66" y="86" type="curve"/>
      <point x="-90" y="141" type="line"/>
      <point x="-146" y="94"/>
      <point x="-215" y="54"/>
      <point x="-307" y="54" type="curve" smooth="yes"/>
      <point x="-344" y="54"/>
      <point x="-384" y="58"/>
    </contour>
  </outline>
</glyph>
<glyph name="DotBelow_khar" format="2">
  <unicode hex="10A3A"/>
  <outline>
    <contour>
      <point x="-137" y="-195" type="curve" smooth="yes"/>
      <point x="-103" y="-195"/>
      <point x="-74" y="-175"/>
      <point x="-74" y="-127" type="curve" smooth="yes"/>
      <point x="-74" y="-78"/>
      <point x="-103" y="-60"/>
      <point x="-137" y="-60" type="curve" smooth="yes"/>
      <point x="-171" y="-60"/>
      <point x="-198" y="-78"/>
      <point x="-198" y="-127" type="curve" smooth="yes"/>
      <point x="-198" y="-175"/>
      <point x="-171" y="-195"/>
    </contour>
  </outline>
</glyph>
<glyph name="Virama_khar" format="2">
  <unicode hex="10A3F"/>
  <outline>
    <contour>
      <point x="-406" y="-184" type="line"/>
      <point x="-284" y="-184" type="line"/>
      <point x="-284" y="-301" type="line"/>
      <point x="-220" y="-301" type="line"/>
      <point x="-220" y="-184" type="line"/>
      <point x="-98" y="-184" type="line"/>
      <point x="-98" y="-134" type="line"/>
      <point x="-220" y="-134" type="line"/>
      <point x="-220" y="-45" type="line"/>
      <point x="-284" y="-45" type="line"/>
      <point x="-284" y="-134" type="line"/>
      <point x="-406" y="-134" type="line"/>
    </contour>
  </outline>
</glyph>
<glyph name="One_khar" format="2">
  <advance width="325"/>
  <unicode hex="10A40"/>
  <outline>
    <contour>
      <point x="114" y="-16" type="line"/>
      <point x="156" y="85"/>
      <point x="271" y="543"/>
      <point x="292" y="710" type="curve"/>
      <point x="207" y="717" type="line"/>
      <point x="189" y="572"/>
      <point x="74" y="104"/>
      <point x="33" y="6" type="curve"/>
    </contour>
  </outline>
</glyph>
<glyph name="Two_khar" format="2">
  <advance width="628"/>
  <unicode hex="10A41"/>
  <outline>
    <contour>
      <point x="114" y="-16" type="line"/>
      <point x="138" y="41"/>
      <point x="185" y="215"/>
      <point x="226" y="384" type="curve"/>
      <point x="253" y="317"/>
      <point x="300" y="275"/>
      <point x="381" y="275" type="curve" smooth="yes"/>
      <point x="506" y="275"/>
      <point x="584" y="388"/>
      <point x="584" y="536" type="curve" smooth="yes"/>
      <point x="584" y="611"/>
      <point x="576" y="686"/>
      <point x="553" y="730" type="curve"/>
      <point x="475" y="709" type="line"/>
      <point x="489" y="673"/>
      <point x="500" y="633"/>
      <point x="500" y="546" type="curve" smooth="yes"/>
      <point x="500" y="466"/>
      <point x="461" y="353"/>
      <point x="379" y="353" type="curve" smooth="yes"/>
      <point x="294" y="353"/>
      <point x="272" y="488"/>
      <point x="271" y="587" type="curve"/>
      <point x="280" y="636"/>
      <point x="288" y="678"/>
      <point x="292" y="710" type="curve"/>
      <point x="207" y="717" type="line"/>
      <point x="189" y="572"/>
      <point x="74" y="104"/>
      <point x="33" y="6" type="curve"/>
    </contour>
  </outline>
</glyph>
<glyph name="Three_khar" format="2">
  <advance width="871"/>
  <unicode hex="10A42"/>
  <outline>
    <contour>
      <point x="114" y="-16" type="line"/>
      <point x="137" y="40"/>
      <point x="184" y="209"/>
      <point x="224" y="376" type="curve"/>
      <point x="248" y="317"/>
      <point x="291" y="275"/>
      <point x="371" y="275" type="curve" smooth="yes"/>
      <point x="431" y="275"/>
      <point x="483" y="312"/>
      <point x="496" y="407" type="curve"/>
      <point x="513" y="322"/>
      <point x="570" y="275"/>
      <point x="649" y="275" type="curve" smooth="yes"/>
      <point x="779" y="275"/>
      <point x="827" y="414"/>
      <point x="827" y="535" type="curve" smooth="yes"/>
      <point x="827" y="604"/>
      <point x="819" y="685"/>
      <point x="796" y="729" type="curve"/>
      <point x="718" y="708" type="line"/>
      <point x="732" y="672"/>
      <point x="743" y="602"/>
      <point x="743" y="545" type="curve" smooth="yes"/>
      <point x="743" y="426"/>
      <point x="708" y="353"/>
      <point x="647" y="353" type="curve" smooth="yes"/>
      <point x="588" y="353"/>
      <point x="546" y="441"/>
      <point x="546" y="542" type="curve" smooth="yes"/>
      <point x="546" y="556"/>
      <point x="547" y="571"/>
      <point x="549" y="586" type="curve" smooth="yes"/>
      <point x="563" y="703" type="line"/>
      <point x="483" y="717" type="line"/>
      <point x="469" y="592" type="line" smooth="yes"/>
      <point x="456" y="473"/>
      <point x="445" y="353"/>
      <point x="369" y="353" type="curve" smooth="yes"/>
      <point x="300" y="353"/>
      <point x="272" y="435"/>
      <point x="271" y="587" type="curve"/>
      <point x="280" y="636"/>
      <point x="288" y="678"/>
      <point x="292" y="710" type="curve"/>
      <point x="207" y="717" type="line"/>
      <point x="189" y="572"/>
      <point x="74" y="104"/>
      <point x="33" y="6" type="curve"/>
    </contour>
  </outline>
</glyph>
<glyph name="Four_khar" format="2">
  <advance width="634"/>
  <unicode hex="10A43"/>
  <outline>
    <contour>
      <point x="454" y="-10" type="curve"/>
      <point x="541" y="34" type="line"/>
      <point x="518" y="95"/>
      <point x="423" y="222"/>
      <point x="331" y="323" type="curve"/>
      <point x="452" y="457"/>
      <point x="582" y="591"/>
      <point x="645" y="648" type="curve"/>
      <point x="590" y="702" type="line"/>
      <point x="510" y="634"/>
      <point x="388" y="508"/>
      <point x="274" y="381" type="curve"/>
      <point x="212" y="440"/>
      <point x="143" y="490"/>
      <point x="107" y="507" type="curve"/>
      <point x="56" y="431" type="line"/>
      <point x="89" y="413"/>
      <point x="154" y="365"/>
      <point x="212" y="311" type="curve"/>
      <point x="139" y="226"/>
      <point x="73" y="145"/>
      <point x="33" y="86" type="curve"/>
      <point x="99" y="44" type="line"/>
      <point x="136" y="97"/>
      <point x="198" y="173"/>
      <point x="269" y="253" type="curve"/>
      <point x="356" y="156"/>
      <point x="434" y="44"/>
    </contour>
  </outline>
</glyph>
<glyph name="Ten_khar" format="2">
  <advance width="493"/>
  <unicode hex="10A44"/>
  <outline>
    <contour>
      <point x="229" y="-14" type="line"/>
      <point x="335" y="77"/>
      <point x="449" y="206"/>
      <point x="449" y="371" type="curve" smooth="yes"/>
      <point x="449" y="506"/>
      <point x="394" y="609"/>
      <point x="227" y="609" type="curve" smooth="yes"/>
      <point x="126" y="609"/>
      <point x="59" y="560"/>
      <point x="33" y="495" type="curve"/>
      <point x="109" y="460" type="line"/>
      <point x="129" y="506"/>
      <point x="161" y="535"/>
      <point x="227" y="535" type="curve" smooth="yes"/>
      <point x="328" y="535"/>
      <point x="363" y="463"/>
      <point x="363" y="367" type="curve" smooth="yes"/>
      <point x="363" y="209"/>
      <point x="246" y="106"/>
      <point x="164" y="38" type="curve"/>
    </contour>
  </outline>
</glyph>
<glyph name="Twenty_khar" format="2">
  <advance width="521"/>
  <unicode hex="10A45"/>
  <outline>
    <contour>
      <point x="281" y="-8" type="line"/>
      <point x="404" y="26"/>
      <point x="477" y="101"/>
      <point x="477" y="206" type="curve" smooth="yes"/>
      <point x="477" y="292"/>
      <point x="424" y="331"/>
      <point x="301" y="338" type="curve"/>
      <point x="351" y="365"/>
      <point x="395" y="401"/>
      <point x="395" y="468" type="curve" smooth="yes"/>
      <point x="395" y="563"/>
      <point x="305" y="608"/>
      <point x="174" y="608" type="curve" smooth="yes"/>
      <point x="129" y="608"/>
      <point x="77" y="602"/>
      <point x="33" y="579" type="curve"/>
      <point x="62" y="509" type="line"/>
      <point x="98" y="523"/>
      <point x="138" y="534"/>
      <point x="176" y="534" type="curve" smooth="yes"/>
      <point x="227" y="534"/>
      <point x="307" y="517"/>
      <point x="307" y="466" type="curve" smooth="yes"/>
      <point x="307" y="414"/>
      <point x="290" y="368"/>
      <point x="126" y="342" type="curve"/>
      <point x="150" y="278" type="line"/>
      <point x="351" y="278"/>
      <point x="391" y="253"/>
      <point x="391" y="194" type="curve" smooth="yes"/>
      <point x="391" y="125"/>
      <point x="333" y="89"/>
      <point x="259" y="69" type="curve"/>
    </contour>
  </outline>
</glyph>
<glyph name="OneHundred_khar" format="2">
  <advance width="326"/>
  <unicode hex="10A46"/>
  <outline>
    <contour>
      <point x="112" y="-12" type="line"/>
      <point x="228" y="155"/>
      <point x="282" y="357"/>
      <point x="282" y="509" type="curve"/>
      <point x="237" y="509" type="line"/>
      <point x="251" y="539"/>
      <point x="262" y="567"/>
      <point x="267" y="586" type="curve"/>
      <point x="194" y="614" type="line"/>
      <point x="175" y="564"/>
      <point x="124" y="449"/>
      <point x="57" y="380" type="curve"/>
      <point x="127" y="336" type="line"/>
      <point x="148" y="358"/>
      <point x="172" y="392"/>
      <point x="194" y="429" type="curve"/>
      <point x="180" y="285"/>
      <point x="127" y="169"/>
      <point x="33" y="20" type="curve"/>
    </contour>
  </outline>
</glyph>
<glyph name="OneThousand_khar" format="2">
  <advance width="629"/>
  <unicode hex="10A47"/>
  <outline>
    <contour>
      <point x="233" y="-6" type="curve" smooth="yes"/>
      <point x="312" y="-6"/>
      <point x="521" y="9"/>
      <point x="557" y="23" type="curve"/>
      <point x="538" y="97" type="line"/>
      <point x="502" y="82"/>
      <point x="321" y="67"/>
      <point x="235" y="67" type="curve" smooth="yes"/>
      <point x="193" y="67"/>
      <point x="164" y="84"/>
      <point x="164" y="128" type="curve" smooth="yes"/>
      <point x="164" y="159"/>
      <point x="207" y="216"/>
      <point x="246" y="279" type="curve"/>
      <point x="274" y="276"/>
      <point x="305" y="275"/>
      <point x="337" y="275" type="curve" smooth="yes"/>
      <point x="510" y="275"/>
      <point x="585" y="307"/>
      <point x="585" y="348" type="curve" smooth="yes"/>
      <point x="585" y="456"/>
      <point x="571" y="530"/>
      <point x="550" y="621" type="curve"/>
      <point x="479" y="598" type="line"/>
      <point x="497" y="504"/>
      <point x="504" y="438"/>
      <point x="504" y="393" type="curve" smooth="yes"/>
      <point x="504" y="346"/>
      <point x="487" y="339"/>
      <point x="324" y="339" type="curve" smooth="yes"/>
      <point x="309" y="339"/>
      <point x="294" y="339"/>
      <point x="280" y="340" type="curve"/>
      <point x="295" y="371"/>
      <point x="305" y="401"/>
      <point x="305" y="429" type="curve" smooth="yes"/>
      <point x="305" y="515"/>
      <point x="266" y="580"/>
      <point x="162" y="580" type="curve" smooth="yes"/>
      <point x="86" y="580"/>
      <point x="33" y="523"/>
      <point x="33" y="452" type="curve" smooth="yes"/>
      <point x="33" y="362"/>
      <point x="86" y="315"/>
      <point x="170" y="292" type="curve"/>
      <point x="127" y="218"/>
      <point x="77" y="141"/>
      <point x="77" y="104" type="curve" smooth="yes"/>
      <point x="77" y="46"/>
      <point x="104" y="-6"/>
    </contour>
    <contour>
      <point x="201" y="350" type="curve"/>
      <point x="152" y="363"/>
      <point x="117" y="391"/>
      <point x="117" y="450" type="curve" smooth="yes"/>
      <point x="117" y="480"/>
      <point x="137" y="506"/>
      <point x="163" y="506" type="curve" smooth="yes"/>
      <point x="210" y="506"/>
      <point x="226" y="466"/>
      <point x="226" y="429" type="curve" smooth="yes"/>
      <point x="226" y="408"/>
      <point x="216" y="380"/>
    </contour>
  </outline>
</glyph>
<glyph name="OneHalf_khar" format="2">
  <advance width="325"/>
  <unicode hex="10A48"/>
  <outline>
    <contour>
      <point x="-180" y="202"/>
      <point x="-210" y="144" type="curve"/>
      <point x="-146" y="99" type="line"/>
      <point x="-116" y="143"/>
      <point x="136" y="345"/>
      <point x="218" y="396" type="curve"/>
      <point x="159" y="456" type="line"/>
      <point x="97" y="415"/>
    </contour>
    <component base="One_khar"/>
  </outline>
</glyph>
<glyph name="Dot_khar" format="2">
  <advance width="268"/>
  <unicode hex="10A50"/>
  <outline>
    <contour>
      <point x="133" y="586" type="curve" smooth="yes"/>
      <point x="167" y="586"/>
      <point x="196" y="606"/>
      <point x="196" y="654" type="curve" smooth="yes"/>
      <point x="196" y="703"/>
      <point x="167" y="721"/>
      <point x="133" y="721" type="curve" smooth="yes"/>
      <point x="99" y="721"/>
      <point x="72" y="703"/>
      <point x="72" y="654" type="curve" smooth="yes"/>
      <point x="72" y="606"/>
      <point x="99" y="586"/>
    </contour>
  </outline>
</glyph>
<glyph name="SmallCircle_khar" format="2">
  <advance width="362"/>
  <unicode hex="10A51"/>
  <outline>
    <contour>
      <point x="175" y="306" type="curve" smooth="yes"/>
      <point x="239" y="306"/>
      <point x="296" y="350"/>
      <point x="296" y="418" type="curve" smooth="yes"/>
      <point x="296" y="483"/>
      <point x="254" y="527"/>
      <point x="180" y="527" type="curve" smooth="yes"/>
      <point x="115" y="527"/>
      <point x="66" y="478"/>
      <point x="66" y="412" type="curve" smooth="yes"/>
      <point x="66" y="345"/>
      <point x="110" y="306"/>
    </contour>
    <contour>
      <point x="175" y="356" type="curve" smooth="yes"/>
      <point x="139" y="356"/>
      <point x="119" y="377"/>
      <point x="119" y="412" type="curve" smooth="yes"/>
      <point x="119" y="447"/>
      <point x="143" y="468"/>
      <point x="175" y="468" type="curve" smooth="yes"/>
      <point x="207" y="468"/>
      <point x="231" y="447"/>
      <point x="231" y="412" type="curve" smooth="yes"/>
      <point x="231" y="377"/>
      <point x="208" y="356"/>
    </contour>
  </outline>
</glyph>
<glyph name="Circle_khar" format="2">
  <advance width="612"/>
  <unicode hex="10A52"/>
  <outline>
    <contour>
      <point x="295" y="175" type="curve" smooth="yes"/>
      <point x="416" y="175"/>
      <point x="524" y="258"/>
      <point x="524" y="387" type="curve" smooth="yes"/>
      <point x="524" y="511"/>
      <point x="444" y="594"/>
      <point x="304" y="594" type="curve" smooth="yes"/>
      <point x="181" y="594"/>
      <point x="88" y="501"/>
      <point x="88" y="376" type="curve" smooth="yes"/>
      <point x="88" y="249"/>
      <point x="171" y="175"/>
    </contour>
    <contour>
      <point x="297" y="232" type="curve" smooth="yes"/>
      <point x="202" y="232"/>
      <point x="150" y="287"/>
      <point x="150" y="378" type="curve" smooth="yes"/>
      <point x="150" y="469"/>
      <point x="213" y="524"/>
      <point x="297" y="524" type="curve" smooth="yes"/>
      <point x="380" y="524"/>
      <point x="443" y="469"/>
      <point x="443" y="378" type="curve" smooth="yes"/>
      <point x="443" y="287"/>
      <point x="383" y="232"/>
    </contour>
  </outline>
</glyph>
<glyph name="CrescentBar_khar" format="2">
  <advance width="803"/>
  <unicode hex="10A53"/>
  <outline>
    <contour>
      <point x="443" y="5" type="curve" smooth="yes"/>
      <point x="516" y="5"/>
      <point x="645" y="27"/>
      <point x="725" y="57" type="curve"/>
      <point x="704" y="133" type="line"/>
      <point x="630" y="101"/>
      <point x="518" y="87"/>
      <point x="450" y="87" type="curve" smooth="yes"/>
      <point x="304" y="87"/>
      <point x="188" y="160"/>
      <point x="173" y="334" type="curve"/>
      <point x="233" y="351"/>
      <point x="328" y="364"/>
      <point x="440" y="364" type="curve" smooth="yes"/>
      <point x="539" y="364"/>
      <point x="717" y="347"/>
      <point x="763" y="330" type="curve"/>
      <point x="781" y="399" type="line"/>
      <point x="733" y="419"/>
      <point x="549" y="437"/>
      <point x="441" y="437" type="curve" smooth="yes"/>
      <point x="338" y="437"/>
      <point x="242" y="428"/>
      <point x="173" y="414" type="curve"/>
      <point x="187" y="595"/>
      <point x="296" y="635"/>
      <point x="391" y="635" type="curve" smooth="yes"/>
      <point x="452" y="635"/>
      <point x="577" y="617"/>
      <point x="636" y="589" type="curve"/>
      <point x="668" y="660" type="line"/>
      <point x="604" y="688"/>
      <point x="521" y="710"/>
      <point x="390" y="710" type="curve" smooth="yes"/>
      <point x="231" y="710"/>
      <point x="88" y="615"/>
      <point x="88" y="372" type="curve" smooth="yes"/>
      <point x="88" y="119"/>
      <point x="214" y="5"/>
    </contour>
  </outline>
</glyph>
<glyph name="Mangalam_khar" format="2">
  <advance width="689"/>
  <unicode hex="10A54"/>
  <outline>
    <contour>
      <point x="330" y="122" type="curve" smooth="yes"/>
      <point x="485" y="122"/>
      <point x="623" y="228"/>
      <point x="623" y="393" type="curve" smooth="yes"/>
      <point x="623" y="551"/>
      <point x="521" y="657"/>
      <point x="342" y="657" type="curve" smooth="yes"/>
      <point x="185" y="657"/>
      <point x="66" y="538"/>
      <point x="66" y="378" type="curve" smooth="yes"/>
      <point x="66" y="216"/>
      <point x="172" y="122"/>
    </contour>
    <contour>
      <point x="333" y="176" type="curve" smooth="yes"/>
      <point x="273" y="176"/>
      <point x="226" y="191"/>
      <point x="191" y="220" type="curve"/>
      <point x="251" y="240" type="line"/>
      <point x="233" y="283"/>
      <point x="230" y="306"/>
      <point x="230" y="330" type="curve" smooth="yes"/>
      <point x="230" y="359"/>
      <point x="245" y="371"/>
      <point x="314" y="375" type="curve"/>
      <point x="304" y="347"/>
      <point x="294" y="317"/>
      <point x="294" y="288" type="curve" smooth="yes"/>
      <point x="294" y="250"/>
      <point x="309" y="222"/>
      <point x="366" y="222" type="curve" smooth="yes"/>
      <point x="403" y="222"/>
      <point x="469" y="253"/>
      <point x="504" y="284" type="curve"/>
      <point x="472" y="335" type="line"/>
      <point x="446" y="311"/>
      <point x="403" y="286"/>
      <point x="384" y="286" type="curve" smooth="yes"/>
      <point x="369" y="286"/>
      <point x="356" y="292"/>
      <point x="356" y="314" type="curve" smooth="yes"/>
      <point x="356" y="327"/>
      <point x="365" y="350"/>
      <point x="375" y="376" type="curve"/>
      <point x="453" y="376"/>
      <point x="506" y="380"/>
      <point x="538" y="386" type="curve"/>
      <point x="538" y="381" type="line" smooth="yes"/>
      <point x="538" y="253"/>
      <point x="455" y="176"/>
    </contour>
    <contour>
      <point x="186" y="224" type="curve"/>
      <point x="146" y="260"/>
      <point x="126" y="313"/>
      <point x="126" y="381" type="curve" smooth="yes"/>
      <point x="126" y="509"/>
      <point x="215" y="586"/>
      <point x="333" y="586" type="curve" smooth="yes"/>
      <point x="427" y="586"/>
      <point x="503" y="535"/>
      <point x="528" y="449" type="curve"/>
      <point x="502" y="444"/>
      <point x="464" y="440"/>
      <point x="397" y="440" type="curve"/>
      <point x="399" y="449"/>
      <point x="401" y="458"/>
      <point x="401" y="466" type="curve" smooth="yes"/>
      <point x="401" y="523"/>
      <point x="373" y="549"/>
      <point x="320" y="549" type="curve" smooth="yes"/>
      <point x="289" y="549"/>
      <point x="250" y="541"/>
      <point x="206" y="518" type="curve"/>
      <point x="226" y="464" type="line"/>
      <point x="258" y="480"/>
      <point x="284" y="485"/>
      <point x="303" y="485" type="curve" smooth="yes"/>
      <point x="320" y="485"/>
      <point x="335" y="479"/>
      <point x="335" y="448" type="curve" smooth="yes"/>
      <point x="335" y="445"/>
      <point x="335" y="442"/>
      <point x="334" y="439" type="curve"/>
      <point x="208" y="434"/>
      <point x="158" y="408"/>
      <point x="158" y="339" type="curve" smooth="yes"/>
      <point x="158" y="303"/>
      <point x="165" y="266"/>
    </contour>
  </outline>
</glyph>
<glyph name="Lotus_khar" format="2">
  <advance width="897"/>
  <unicode hex="10A55"/>
  <outline>
    <contour>
      <point x="612" y="484" type="curve" smooth="yes"/>
      <point x="676" y="484"/>
      <point x="733" y="528"/>
      <point x="733" y="596" type="curve" smooth="yes"/>
      <point x="733" y="661"/>
      <point x="691" y="705"/>
      <point x="617" y="705" type="curve" smooth="yes"/>
      <point x="552" y="705"/>
      <point x="503" y="656"/>
      <point x="503" y="590" type="curve" smooth="yes"/>
      <point x="503" y="523"/>
      <point x="547" y="484"/>
    </contour>
    <contour>
      <point x="254" y="69" type="curve" smooth="yes"/>
      <point x="218" y="69"/>
      <point x="198" y="90"/>
      <point x="198" y="125" type="curve" smooth="yes"/>
      <point x="198" y="160"/>
      <point x="222" y="181"/>
      <point x="254" y="181" type="curve" smooth="yes"/>
      <point x="286" y="181"/>
      <point x="310" y="160"/>
      <point x="310" y="125" type="curve" smooth="yes"/>
      <point x="310" y="90"/>
      <point x="287" y="69"/>
    </contour>
    <contour>
      <point x="254" y="19" type="curve" smooth="yes"/>
      <point x="318" y="19"/>
      <point x="375" y="63"/>
      <point x="375" y="131" type="curve" smooth="yes"/>
      <point x="375" y="196"/>
      <point x="333" y="240"/>
      <point x="259" y="240" type="curve" smooth="yes"/>
      <point x="194" y="240"/>
      <point x="145" y="191"/>
      <point x="145" y="125" type="curve" smooth="yes"/>
      <point x="145" y="58"/>
      <point x="189" y="19"/>
    </contour>
    <contour>
      <point x="175" y="308" type="curve" smooth="yes"/>
      <point x="139" y="308"/>
      <point x="119" y="329"/>
      <point x="119" y="364" type="curve" smooth="yes"/>
      <point x="119" y="399"/>
      <point x="143" y="420"/>
      <point x="175" y="420" type="curve" smooth="yes"/>
      <point x="207" y="420"/>
      <point x="231" y="399"/>
      <point x="231" y="364" type="curve" smooth="yes"/>
      <point x="231" y="329"/>
      <point x="208" y="308"/>
    </contour>
    <contour>
      <point x="175" y="258" type="curve" smooth="yes"/>
      <point x="239" y="258"/>
      <point x="296" y="302"/>
      <point x="296" y="370" type="curve" smooth="yes"/>
      <point x="296" y="435"/>
      <point x="254" y="479"/>
      <point x="180" y="479" type="curve" smooth="yes"/>
      <point x="115" y="479"/>
      <point x="66" y="430"/>
      <point x="66" y="364" type="curve" smooth="yes"/>
      <point x="66" y="297"/>
      <point x="110" y="258"/>
    </contour>
    <contour>
      <point x="533" y="41" type="curve" smooth="yes"/>
      <point x="497" y="41"/>
      <point x="477" y="62"/>
      <point x="477" y="97" type="curve" smooth="yes"/>
      <point x="477" y="132"/>
      <point x="501" y="153"/>
      <point x="533" y="153" type="curve" smooth="yes"/>
      <point x="565" y="153"/>
      <point x="589" y="132"/>
      <point x="589" y="97" type="curve" smooth="yes"/>
      <point x="589" y="62"/>
      <point x="566" y="41"/>
    </contour>
    <contour>
      <point x="533" y="-9" type="curve" smooth="yes"/>
      <point x="597" y="-9"/>
      <point x="654" y="35"/>
      <point x="654" y="103" type="curve" smooth="yes"/>
      <point x="654" y="168"/>
      <point x="612" y="212"/>
      <point x="538" y="212" type="curve" smooth="yes"/>
      <point x="473" y="212"/>
      <point x="424" y="163"/>
      <point x="424" y="97" type="curve" smooth="yes"/>
      <point x="424" y="30"/>
      <point x="468" y="-9"/>
    </contour>
    <contour>
      <point x="453" y="300" type="curve" smooth="yes"/>
      <point x="417" y="300"/>
      <point x="397" y="321"/>
      <point x="397" y="356" type="curve" smooth="yes"/>
      <point x="397" y="391"/>
      <point x="421" y="412"/>
      <point x="453" y="412" type="curve" smooth="yes"/>
      <point x="485" y="412"/>
      <point x="509" y="391"/>
      <point x="509" y="356" type="curve" smooth="yes"/>
      <point x="509" y="321"/>
      <point x="486" y="300"/>
    </contour>
    <contour>
      <point x="453" y="250" type="curve" smooth="yes"/>
      <point x="517" y="250"/>
      <point x="574" y="294"/>
      <point x="574" y="362" type="curve" smooth="yes"/>
      <point x="574" y="427"/>
      <point x="532" y="471"/>
      <point x="458" y="471" type="curve" smooth="yes"/>
      <point x="393" y="471"/>
      <point x="344" y="422"/>
      <point x="344" y="356" type="curve" smooth="yes"/>
      <point x="344" y="289"/>
      <point x="388" y="250"/>
    </contour>
    <contour>
      <point x="342" y="550" type="curve" smooth="yes"/>
      <point x="306" y="550"/>
      <point x="286" y="571"/>
      <point x="286" y="606" type="curve" smooth="yes"/>
      <point x="286" y="641"/>
      <point x="310" y="662"/>
      <point x="342" y="662" type="curve" smooth="yes"/>
      <point x="374" y="662"/>
      <point x="398" y="641"/>
      <point x="398" y="606" type="curve" smooth="yes"/>
      <point x="398" y="571"/>
      <point x="375" y="550"/>
    </contour>
    <contour>
      <point x="342" y="500" type="curve" smooth="yes"/>
      <point x="406" y="500"/>
      <point x="463" y="544"/>
      <point x="463" y="612" type="curve" smooth="yes"/>
      <point x="463" y="677"/>
      <point x="421" y="721"/>
      <point x="347" y="721" type="curve" smooth="yes"/>
      <point x="282" y="721"/>
      <point x="233" y="672"/>
      <point x="233" y="606" type="curve" smooth="yes"/>
      <point x="233" y="539"/>
      <point x="277" y="500"/>
    </contour>
    <contour>
      <point x="710" y="273" type="curve" smooth="yes"/>
      <point x="674" y="273"/>
      <point x="654" y="294"/>
      <point x="654" y="329" type="curve" smooth="yes"/>
      <point x="654" y="364"/>
      <point x="678" y="385"/>
      <point x="710" y="385" type="curve" smooth="yes"/>
      <point x="742" y="385"/>
      <point x="766" y="364"/>
      <point x="766" y="329" type="curve" smooth="yes"/>
      <point x="766" y="294"/>
      <point x="743" y="273"/>
    </contour>
    <contour>
      <point x="710" y="223" type="curve" smooth="yes"/>
      <point x="774" y="223"/>
      <point x="831" y="267"/>
      <point x="831" y="335" type="curve" smooth="yes"/>
      <point x="831" y="400"/>
      <point x="789" y="444"/>
      <point x="715" y="444" type="curve" smooth="yes"/>
      <point x="650" y="444"/>
      <point x="601" y="395"/>
      <point x="601" y="329" type="curve" smooth="yes"/>
      <point x="601" y="262"/>
      <point x="645" y="223"/>
    </contour>
    <contour>
      <point x="612" y="534" type="curve" smooth="yes"/>
      <point x="576" y="534"/>
      <point x="556" y="555"/>
      <point x="556" y="590" type="curve" smooth="yes"/>
      <point x="556" y="625"/>
      <point x="580" y="646"/>
      <point x="612" y="646" type="curve" smooth="yes"/>
      <point x="644" y="646"/>
      <point x="668" y="625"/>
      <point x="668" y="590" type="curve" smooth="yes"/>
      <point x="668" y="555"/>
      <point x="645" y="534"/>
    </contour>
  </outline>
</glyph>
<glyph name="Danda_khar" format="2">
  <advance width="337"/>
  <unicode hex="10A56"/>
  <outline>
    <contour>
      <point x="125" y="-16" type="line"/>
      <point x="167" y="85"/>
      <point x="272" y="543"/>
      <point x="293" y="710" type="curve"/>
      <point x="228" y="717" type="line"/>
      <point x="210" y="572"/>
      <point x="85" y="104"/>
      <point x="44" y="6" type="curve"/>
    </contour>
  </outline>
</glyph>
<glyph name="DoubleDanda_khar" format="2">
  <advance width="474"/>
  <unicode hex="10A57"/>
  <outline>
    <contour>
      <point x="262" y="-16" type="line"/>
      <point x="304" y="85"/>
      <point x="409" y="543"/>
      <point x="430" y="710" type="curve"/>
      <point x="365" y="717" type="line"/>
      <point x="347" y="572"/>
      <point x="222" y="104"/>
      <point x="181" y="6" type="curve"/>
    </contour>
    <contour>
      <point x="125" y="-16" type="line"/>
      <point x="167" y="85"/>
      <point x="272" y="543"/>
      <point x="293" y="710" type="curve"/>
      <point x="228" y="717" type="line"/>
      <point x="210" y="572"/>
      <point x="85" y="104"/>
      <point x="44" y="6" type="curve"/>
    </contour>
  </outline>
</glyph>
<glyph name="Lines_khar" format="2">
  <advance width="1010"/>
  <unicode hex="10A58"/>
  <outline>
    <contour>
      <point x="395" y="339" type="curve" smooth="yes"/>
      <point x="499" y="339"/>
      <point x="504" y="402"/>
      <point x="593" y="402" type="curve" smooth="yes"/>
      <point x="682" y="402"/>
      <point x="687" y="339"/>
      <point x="791" y="339" type="curve" smooth="yes"/>
      <point x="866" y="339"/>
      <point x="922" y="361"/>
      <point x="999" y="398" type="curve"/>
      <point x="971" y="474" type="line"/>
      <point x="878" y="430"/>
      <point x="851" y="413"/>
      <point x="791" y="413" type="curve" smooth="yes"/>
      <point x="731" y="413"/>
      <point x="702" y="484"/>
      <point x="593" y="484" type="curve" smooth="yes"/>
      <point x="484" y="484"/>
      <point x="455" y="413"/>
      <point x="395" y="413" type="curve" smooth="yes"/>
      <point x="335" y="413"/>
      <point x="306" y="484"/>
      <point x="197" y="484" type="curve" smooth="yes"/>
      <point x="142" y="484"/>
      <point x="76" y="457"/>
      <point x="31" y="434" type="curve"/>
      <point x="64" y="365" type="line"/>
      <point x="99" y="383"/>
      <point x="139" y="402"/>
      <point x="184" y="402" type="curve" smooth="yes"/>
      <point x="273" y="402"/>
      <point x="291" y="339"/>
    </contour>
    <contour>
      <point x="375" y="169" type="curve" smooth="yes"/>
      <point x="479" y="169"/>
      <point x="484" y="232"/>
      <point x="573" y="232" type="curve" smooth="yes"/>
      <point x="662" y="232"/>
      <point x="667" y="169"/>
      <point x="771" y="169" type="curve" smooth="yes"/>
      <point x="844" y="169"/>
      <point x="902" y="191"/>
      <point x="979" y="228" type="curve"/>
      <point x="951" y="304" type="line"/>
      <point x="858" y="260"/>
      <point x="831" y="243"/>
      <point x="771" y="243" type="curve" smooth="yes"/>
      <point x="711" y="243"/>
      <point x="682" y="314"/>
      <point x="573" y="314" type="curve" smooth="yes"/>
      <point x="464" y="314"/>
      <point x="435" y="243"/>
      <point x="375" y="243" type="curve" smooth="yes"/>
      <point x="315" y="243"/>
      <point x="276" y="314"/>
      <point x="177" y="314" type="curve" smooth="yes"/>
      <point x="122" y="314"/>
      <point x="56" y="287"/>
      <point x="11" y="264" type="curve"/>
      <point x="44" y="195" type="line"/>
      <point x="79" y="213"/>
      <point x="119" y="232"/>
      <point x="164" y="232" type="curve" smooth="yes"/>
      <point x="253" y="232"/>
      <point x="271" y="169"/>
    </contour>
  </outline>
</glyph>
<glyph name="AE_khar" format="2">
  <advance width="802"/>
  <note>
g105
</note>
  <outline>
    <contour>
      <point x="751" y="417" type="line"/>
      <point x="712" y="403"/>
      <point x="645" y="389"/>
      <point x="500" y="385" type="curve"/>
      <point x="482" y="326" type="line"/>
      <point x="653" y="329"/>
      <point x="723" y="344"/>
      <point x="766" y="362" type="curve"/>
    </contour>
    <component base="A_khar"/>
  </outline>
</glyph>
<glyph name="Cauda_khar.short" format="2">
  <outline>
    <contour>
      <point x="-324" y="72" type="curve"/>
      <point x="-353" y="16" type="line"/>
      <point x="-309" y="-3"/>
      <point x="-270" y="-12"/>
      <point x="-228" y="-12" type="curve" smooth="yes"/>
      <point x="-151" y="-12"/>
      <point x="-99" y="18"/>
      <point x="-46" y="56" type="curve"/>
      <point x="-74" y="108" type="line"/>
      <point x="-125" y="71"/>
      <point x="-169" y="56"/>
      <point x="-223" y="54" type="curve" smooth="yes"/>
      <point x="-258" y="53"/>
      <point x="-286" y="58"/>
    </contour>
  </outline>
</glyph>
<glyph name="Cauda_khar.short2" format="2">
  <outline>
    <contour>
      <point x="-14" y="30" type="curve"/>
      <point x="-41" y="85" type="line"/>
      <point x="-66" y="69"/>
      <point x="-99" y="57"/>
      <point x="-137" y="57" type="curve" smooth="yes"/>
      <point x="-164" y="57"/>
      <point x="-192" y="63"/>
      <point x="-223" y="75" type="curve"/>
      <point x="-253" y="17" type="line"/>
      <point x="-209" y="-2"/>
      <point x="-174" y="-9"/>
      <point x="-136" y="-9" type="curve" smooth="yes"/>
      <point x="-90" y="-9"/>
      <point x="-51" y="7"/>
    </contour>
  </outline>
</glyph>
<glyph name="De_khar" format="2">
  <advance width="771"/>
  <note>
g113
</note>
  <outline>
    <contour>
      <point x="392" y="-8" type="curve" smooth="yes"/>
      <point x="574" y="-8"/>
      <point x="659" y="80"/>
      <point x="735" y="259" type="curve"/>
      <point x="661" y="286" type="line"/>
      <point x="594" y="134"/>
      <point x="532" y="67"/>
      <point x="391" y="67" type="curve" smooth="yes"/>
      <point x="250" y="67"/>
      <point x="167" y="204"/>
      <point x="167" y="367" type="curve" smooth="yes"/>
      <point x="167" y="552"/>
      <point x="247" y="655"/>
      <point x="405" y="655" type="curve" smooth="yes"/>
      <point x="464" y="655"/>
      <point x="516" y="645"/>
      <point x="560" y="625" type="curve"/>
      <point x="590" y="694" type="line"/>
      <point x="536" y="718"/>
      <point x="474" y="730"/>
      <point x="404" y="730" type="curve" smooth="yes"/>
      <point x="205" y="730"/>
      <point x="83" y="585"/>
      <point x="83" y="372" type="curve" smooth="yes"/>
      <point x="83" y="156"/>
      <point x="190" y="-8"/>
    </contour>
  </outline>
</glyph>
<glyph name="Dhik_khar" format="2">
  <advance width="598"/>
  <note>
g119
dhik
</note>
  <outline>
    <contour>
      <point x="378" y="-286" type="line"/>
      <point x="415" y="-250"/>
      <point x="433" y="-211"/>
      <point x="433" y="-169" type="curve" smooth="yes"/>
      <point x="433" y="-88"/>
      <point x="383" y="-37"/>
      <point x="283" y="-15" type="curve"/>
      <point x="286" y="4"/>
      <point x="287" y="23"/>
      <point x="287" y="43" type="curve" smooth="yes"/>
      <point x="287" y="150"/>
      <point x="237" y="204"/>
      <point x="136" y="204" type="curve" smooth="yes"/>
      <point x="54" y="204"/>
      <point x="-4" y="152"/>
      <point x="-4" y="80" type="curve" smooth="yes"/>
      <point x="-4" y="42"/>
      <point x="13" y="4"/>
      <point x="48" y="-31" type="curve"/>
      <point x="100" y="13" type="line"/>
      <point x="77" y="38"/>
      <point x="65" y="61"/>
      <point x="65" y="82" type="curve" smooth="yes"/>
      <point x="65" y="117"/>
      <point x="93" y="141"/>
      <point x="136" y="141" type="curve" smooth="yes"/>
      <point x="190" y="141"/>
      <point x="217" y="107"/>
      <point x="217" y="41" type="curve" smooth="yes"/>
      <point x="217" y="-32"/>
      <point x="182" y="-142"/>
      <point x="121" y="-268" type="curve"/>
      <point x="188" y="-285" type="line"/>
      <point x="219" y="-225"/>
      <point x="254" y="-137"/>
      <point x="270" y="-77" type="curve"/>
      <point x="331" y="-94"/>
      <point x="361" y="-126"/>
      <point x="361" y="-173" type="curve" smooth="yes"/>
      <point x="361" y="-194"/>
      <point x="350" y="-217"/>
      <point x="326" y="-242" type="curve"/>
    </contour>
    <contour>
      <point x="237" y="652" type="curve" smooth="yes"/>
      <point x="322" y="652"/>
      <point x="368" y="625"/>
      <point x="368" y="572" type="curve" smooth="yes"/>
      <point x="368" y="488"/>
      <point x="321" y="455"/>
      <point x="238" y="435" type="curve"/>
      <point x="217" y="352" type="line"/>
      <point x="269" y="371"/>
      <point x="311" y="381"/>
      <point x="354" y="381" type="curve" smooth="yes"/>
      <point x="431" y="381"/>
      <point x="468" y="365"/>
      <point x="468" y="316" type="curve" smooth="yes"/>
      <point x="468" y="243"/>
      <point x="425" y="172"/>
      <point x="309" y="69" type="curve"/>
      <point x="353" y="6" type="line"/>
      <point x="487" y="127"/>
      <point x="554" y="236"/>
      <point x="554" y="320" type="curve" smooth="yes"/>
      <point x="554" y="404"/>
      <point x="499" y="450"/>
      <point x="398" y="450" type="curve"/>
      <point x="433" y="483"/>
      <point x="454" y="527"/>
      <point x="454" y="574" type="curve" smooth="yes"/>
      <point x="454" y="683"/>
      <point x="375" y="724"/>
      <point x="243" y="724" type="curve" smooth="yes"/>
      <point x="216" y="724"/>
      <point x="185" y="722"/>
      <point x="151" y="717" type="curve"/>
      <point x="162" y="646" type="line"/>
      <point x="186" y="650"/>
      <point x="211" y="652"/>
    </contour>
    <contour>
      <point x="135" y="261" type="curve"/>
      <point x="198" y="235" type="line"/>
      <point x="235" y="354"/>
      <point x="274" y="501"/>
      <point x="306" y="639" type="curve"/>
      <point x="336" y="794" type="line"/>
      <point x="296" y="806" type="line"/>
      <point x="267" y="662"/>
      <point x="193" y="432"/>
    </contour>
  </outline>
</glyph>
<glyph name="E_vertical" format="2">
  <outline>
    <contour>
      <point x="-136" y="536" type="curve"/>
      <point x="-72" y="536" type="line"/>
      <point x="-68" y="596"/>
      <point x="-56" y="735"/>
      <point x="-51" y="790" type="curve"/>
      <point x="-101" y="795" type="line"/>
      <point x="-110" y="739"/>
      <point x="-130" y="601"/>
    </contour>
  </outline>
</glyph>
<glyph name="He_khar" format="2">
  <advance width="705"/>
  <note>
g107
</note>
  <outline>
    <contour>
      <point x="653" y="417" type="line"/>
      <point x="614" y="403"/>
      <point x="547" y="389"/>
      <point x="402" y="385" type="curve"/>
      <point x="384" y="326" type="line"/>
      <point x="555" y="329"/>
      <point x="625" y="344"/>
      <point x="668" y="362" type="curve"/>
    </contour>
    <component base="Ha_khar"/>
  </outline>
</glyph>
<glyph name="I_diagonal" format="2">
  <outline>
    <contour>
      <point x="-258" y="45" type="line"/>
      <point x="-214" y="157"/>
      <point x="-138" y="411"/>
      <point x="-86" y="639" type="curve"/>
      <point x="-59" y="777" type="line"/>
      <point x="-99" y="790" type="line"/>
      <point x="-144" y="571"/>
      <point x="-270" y="176"/>
      <point x="-313" y="68" type="curve"/>
    </contour>
  </outline>
</glyph>
<glyph name="I_diagonal_short" format="2">
  <outline>
    <contour>
      <point x="-212" y="176" type="line"/>
      <point x="-171" y="303"/>
      <point x="-123" y="477"/>
      <point x="-86" y="639" type="curve"/>
      <point x="-56" y="794" type="line"/>
      <point x="-96" y="806" type="line"/>
      <point x="-129" y="645"/>
      <point x="-207" y="371"/>
      <point x="-267" y="199" type="curve"/>
    </contour>
  </outline>
</glyph>
<glyph name="I_horizontal" format="2">
  <outline>
    <contour>
      <point x="-522" y="392" type="line"/>
      <point x="-468" y="397"/>
      <point x="-406" y="403"/>
      <point x="-281" y="420" type="curve" smooth="yes"/>
      <point x="-183" y="433"/>
      <point x="-101" y="449"/>
      <point x="-35" y="464" type="curve"/>
      <point x="-42" y="504" type="line"/>
      <point x="-153" y="484"/>
      <point x="-384" y="452"/>
      <point x="-534" y="444" type="curve"/>
    </contour>
  </outline>
</glyph>
<glyph name="I_vertical" format="2">
  <outline>
    <contour>
      <point x="-141" y="235" type="line"/>
      <point x="-130" y="296"/>
      <point x="-121" y="355"/>
      <point x="-101" y="504" type="curve" smooth="yes"/>
      <point x="-87" y="607"/>
      <point x="-82" y="693"/>
      <point x="-79" y="762" type="curve"/>
      <point x="-119" y="766" type="line"/>
      <point x="-128" y="651"/>
      <point x="-158" y="397"/>
      <point x="-196" y="238" type="curve"/>
    </contour>
  </outline>
</glyph>
<glyph name="JNya_khar" format="2">
  <advance width="805"/>
  <outline>
    <contour>
      <point x="167" y="-17" type="line"/>
      <point x="275" y="99"/>
      <point x="513" y="449"/>
      <point x="563" y="704" type="curve"/>
      <point x="481" y="718" type="line"/>
      <point x="466" y="641"/>
      <point x="433" y="549"/>
      <point x="390" y="460" type="curve"/>
      <point x="268" y="588"/>
      <point x="207" y="690"/>
      <point x="189" y="730" type="curve"/>
      <point x="113" y="686" type="line"/>
      <point x="132" y="640"/>
      <point x="203" y="519"/>
      <point x="345" y="374" type="curve"/>
      <point x="265" y="231"/>
      <point x="189" y="127"/>
      <point x="114" y="40" type="curve"/>
    </contour>
    <contour>
      <point x="426" y="407" type="curve"/>
      <point x="408" y="337" type="line"/>
      <point x="435" y="330"/>
      <point x="467" y="327"/>
      <point x="503" y="327" type="curve" smooth="yes"/>
      <point x="618" y="327"/>
      <point x="726" y="363"/>
      <point x="726" y="484" type="curve" smooth="yes"/>
      <point x="726" y="531"/>
      <point x="711" y="562"/>
      <point x="711" y="604" type="curve" smooth="yes"/>
      <point x="711" y="628"/>
      <point x="734" y="636"/>
      <point x="778" y="642" type="curve"/>
      <point x="753" y="711" type="line"/>
      <point x="688" y="711"/>
      <point x="630" y="680"/>
      <point x="630" y="606" type="curve" smooth="yes"/>
      <point x="630" y="557"/>
      <point x="640" y="525"/>
      <point x="640" y="482" type="curve" smooth="yes"/>
      <point x="640" y="407"/>
      <point x="580" y="398"/>
      <point x="505" y="398" type="curve" smooth="yes"/>
      <point x="480" y="398"/>
      <point x="452" y="401"/>
    </contour>
  </outline>
</glyph>
<glyph name="KSsa_khar" format="2">
  <advance width="649"/>
  <note>
g120
ksa
</note>
  <outline>
    <contour>
      <point x="284" y="-13" type="line"/>
      <point x="337" y="49"/>
      <point x="379" y="188"/>
      <point x="379" y="321" type="curve" smooth="yes"/>
      <point x="379" y="340"/>
      <point x="377" y="367"/>
      <point x="375" y="394" type="curve"/>
      <point x="504" y="408"/>
      <point x="571" y="484"/>
      <point x="571" y="613" type="curve" smooth="yes"/>
      <point x="571" y="654"/>
      <point x="554" y="708"/>
      <point x="530" y="733" type="curve"/>
      <point x="459" y="703" type="line"/>
      <point x="478" y="675"/>
      <point x="487" y="636"/>
      <point x="487" y="610" type="curve" smooth="yes"/>
      <point x="487" y="514"/>
      <point x="433" y="465"/>
      <point x="331" y="465" type="curve" smooth="yes"/>
      <point x="227" y="465"/>
      <point x="174" y="506"/>
      <point x="174" y="589" type="curve" smooth="yes"/>
      <point x="174" y="624"/>
      <point x="192" y="664"/>
      <point x="214" y="684" type="curve"/>
      <point x="150" y="730" type="line"/>
      <point x="116" y="697"/>
      <point x="88" y="633"/>
      <point x="88" y="582" type="curve" smooth="yes"/>
      <point x="88" y="477"/>
      <point x="166" y="403"/>
      <point x="291" y="393" type="curve"/>
      <point x="292" y="373"/>
      <point x="293" y="349"/>
      <point x="293" y="329" type="curve" smooth="yes"/>
      <point x="293" y="214"/>
      <point x="259" y="73"/>
      <point x="213" y="21" type="curve"/>
    </contour>
  </outline>
</glyph>
<glyph name="KTa_khar" format="2">
  <advance width="792"/>
  <note>
g131
kta
</note>
  <outline>
    <contour>
      <point x="144" y="-289" type="line"/>
      <point x="384" y="-243"/>
      <point x="504" y="-153"/>
      <point x="504" y="-20" type="curve" smooth="yes"/>
      <point x="504" y="45"/>
      <point x="475" y="86"/>
      <point x="417" y="105" type="curve"/>
      <point x="444" y="172"/>
      <point x="467" y="239"/>
      <point x="485" y="307" type="curve"/>
      <point x="596" y="280"/>
      <point x="647" y="226"/>
      <point x="647" y="143" type="curve" smooth="yes"/>
      <point x="647" y="106"/>
      <point x="631" y="71"/>
      <point x="598" y="36" type="curve"/>
      <point x="661" y="-16" type="line"/>
      <point x="709" y="33"/>
      <point x="733" y="88"/>
      <point x="733" y="150" type="curve" smooth="yes"/>
      <point x="733" y="271"/>
      <point x="655" y="350"/>
      <point x="500" y="380" type="curve"/>
      <point x="506" y="413"/>
      <point x="509" y="445"/>
      <point x="509" y="478" type="curve" smooth="yes"/>
      <point x="509" y="638"/>
      <point x="432" y="716"/>
      <point x="287" y="716" type="curve" smooth="yes"/>
      <point x="171" y="716"/>
      <point x="81" y="646"/>
      <point x="81" y="536" type="curve" smooth="yes"/>
      <point x="81" y="479"/>
      <point x="104" y="427"/>
      <point x="151" y="380" type="curve"/>
      <point x="214" y="432" type="line"/>
      <point x="182" y="467"/>
      <point x="165" y="502"/>
      <point x="165" y="539" type="curve" smooth="yes"/>
      <point x="165" y="601"/>
      <point x="214" y="642"/>
      <point x="287" y="642" type="curve" smooth="yes"/>
      <point x="377" y="642"/>
      <point x="423" y="584"/>
      <point x="423" y="474" type="curve" smooth="yes"/>
      <point x="423" y="381"/>
      <point x="393" y="262"/>
      <point x="332" y="116" type="curve"/>
      <point x="296" y="112"/>
      <point x="247" y="108"/>
      <point x="207" y="108" type="curve" smooth="yes"/>
      <point x="156" y="108"/>
      <point x="137" y="116"/>
      <point x="137" y="146" type="curve" smooth="yes"/>
      <point x="137" y="173"/>
      <point x="161" y="196"/>
      <point x="196" y="204" type="curve"/>
      <point x="173" y="260" type="line"/>
      <point x="112" y="252"/>
      <point x="59" y="201"/>
      <point x="59" y="144" type="curve" smooth="yes"/>
      <point x="59" y="72"/>
      <point x="110" y="35"/>
      <point x="195" y="35" type="curve" smooth="yes"/>
      <point x="225" y="35"/>
      <point x="306" y="41"/>
      <point x="330" y="43" type="curve" smooth="yes"/>
      <point x="392" y="49"/>
      <point x="423" y="21"/>
      <point x="423" y="-21" type="curve" smooth="yes"/>
      <point x="423" y="-122"/>
      <point x="331" y="-184"/>
      <point x="126" y="-221" type="curve"/>
    </contour>
  </outline>
</glyph>
<glyph name="KhKSsa_khar" format="2">
  <advance width="649"/>
  <note>
g132
khksa
</note>
  <outline>
    <contour>
      <point x="401" y="495" type="line"/>
      <point x="431" y="537"/>
      <point x="446" y="573"/>
      <point x="446" y="605" type="curve" smooth="yes"/>
      <point x="446" y="659"/>
      <point x="417" y="680"/>
      <point x="361" y="687" type="curve" smooth="yes"/>
      <point x="313" y="693"/>
      <point x="288" y="716"/>
      <point x="288" y="765" type="curve" smooth="yes"/>
      <point x="288" y="807"/>
      <point x="323" y="833"/>
      <point x="372" y="833" type="curve" smooth="yes"/>
      <point x="402" y="833"/>
      <point x="444" y="822"/>
      <point x="471" y="807" type="curve"/>
      <point x="495" y="867" type="line"/>
      <point x="458" y="885"/>
      <point x="406" y="896"/>
      <point x="374" y="896" type="curve" smooth="yes"/>
      <point x="270" y="896"/>
      <point x="217" y="845"/>
      <point x="217" y="750" type="curve" smooth="yes"/>
      <point x="217" y="682"/>
      <point x="266" y="632"/>
      <point x="342" y="625" type="curve" smooth="yes"/>
      <point x="362" y="623"/>
      <point x="375" y="618"/>
      <point x="375" y="604" type="curve" smooth="yes"/>
      <point x="375" y="586"/>
      <point x="353" y="542"/>
      <point x="325" y="505" type="curve"/>
    </contour>
    <contour>
      <point x="284" y="-13" type="line"/>
      <point x="337" y="49"/>
      <point x="379" y="188"/>
      <point x="379" y="321" type="curve" smooth="yes"/>
      <point x="379" y="340"/>
      <point x="377" y="367"/>
      <point x="375" y="394" type="curve"/>
      <point x="504" y="408"/>
      <point x="571" y="484"/>
      <point x="571" y="613" type="curve" smooth="yes"/>
      <point x="571" y="654"/>
      <point x="554" y="708"/>
      <point x="530" y="733" type="curve"/>
      <point x="459" y="703" type="line"/>
      <point x="478" y="675"/>
      <point x="487" y="636"/>
      <point x="487" y="610" type="curve" smooth="yes"/>
      <point x="487" y="514"/>
      <point x="433" y="465"/>
      <point x="331" y="465" type="curve" smooth="yes"/>
      <point x="227" y="465"/>
      <point x="174" y="506"/>
      <point x="174" y="589" type="curve" smooth="yes"/>
      <point x="174" y="624"/>
      <point x="192" y="664"/>
      <point x="214" y="684" type="curve"/>
      <point x="150" y="730" type="line"/>
      <point x="116" y="697"/>
      <point x="88" y="633"/>
      <point x="88" y="582" type="curve" smooth="yes"/>
      <point x="88" y="477"/>
      <point x="166" y="403"/>
      <point x="291" y="393" type="curve"/>
      <point x="292" y="373"/>
      <point x="293" y="349"/>
      <point x="293" y="329" type="curve" smooth="yes"/>
      <point x="293" y="214"/>
      <point x="259" y="73"/>
      <point x="213" y="21" type="curve"/>
    </contour>
  </outline>
</glyph>
<glyph name="LPa_khar" format="2">
  <advance width="732"/>
  <note>
g127
lpa
</note>
  <outline>
    <contour>
      <point x="202" y="-8" type="line"/>
      <point x="226" y="108"/>
      <point x="275" y="304"/>
      <point x="320" y="465" type="curve"/>
      <point x="404" y="462" type="line"/>
      <point x="539" y="440"/>
      <point x="603" y="382"/>
      <point x="603" y="291" type="curve" smooth="yes"/>
      <point x="603" y="247"/>
      <point x="582" y="219"/>
      <point x="555" y="184" type="curve"/>
      <point x="615" y="133" type="line"/>
      <point x="652" y="181"/>
      <point x="689" y="231"/>
      <point x="689" y="298" type="curve" smooth="yes"/>
      <point x="689" y="430"/>
      <point x="603" y="508"/>
      <point x="428" y="534" type="curve"/>
      <point x="342" y="538" type="line"/>
      <point x="363" y="609"/>
      <point x="383" y="667"/>
      <point x="397" y="699" type="curve"/>
      <point x="316" y="721" type="line"/>
      <point x="296" y="671"/>
      <point x="273" y="606"/>
      <point x="250" y="534" type="curve"/>
      <point x="164" y="529"/>
      <point x="102" y="518"/>
      <point x="63" y="502" type="curve"/>
      <point x="81" y="433" type="line"/>
      <point x="122" y="446"/>
      <point x="168" y="454"/>
      <point x="228" y="459" type="curve"/>
      <point x="180" y="298"/>
      <point x="137" y="118"/>
      <point x="122" y="-1" type="curve"/>
    </contour>
  </outline>
</glyph>
<glyph name="LYa_khar" format="2">
  <advance width="598"/>
  <outline>
    <contour>
      <point x="394" y="213" type="curve" smooth="yes"/>
      <point x="381" y="213"/>
      <point x="368" y="212"/>
      <point x="357" y="211" type="curve"/>
      <point x="406" y="407"/>
      <point x="471" y="623"/>
      <point x="504" y="702" type="curve"/>
      <point x="423" y="724" type="line"/>
      <point x="407" y="686"/>
      <point x="384" y="618"/>
      <point x="359" y="538" type="curve"/>
      <point x="188" y="535"/>
      <point x="116" y="520"/>
      <point x="73" y="502" type="curve"/>
      <point x="91" y="433" type="line"/>
      <point x="130" y="447"/>
      <point x="192" y="461"/>
      <point x="337" y="465" type="curve"/>
      <point x="309" y="371"/>
      <point x="283" y="268"/>
      <point x="263" y="176" type="curve"/>
      <point x="258" y="174" type="line"/>
      <point x="221" y="146"/>
      <point x="199" y="106"/>
      <point x="199" y="58" type="curve" smooth="yes"/>
      <point x="199" y="16"/>
      <point x="229" y="-15"/>
      <point x="260" y="-15" type="curve" smooth="yes"/>
      <point x="291" y="-15"/>
      <point x="311" y="10"/>
      <point x="323" y="76" type="curve" smooth="yes"/>
      <point x="326" y="93"/>
      <point x="329" y="110"/>
      <point x="334" y="128" type="curve"/>
      <point x="350" y="136"/>
      <point x="370" y="140"/>
      <point x="392" y="140" type="curve" smooth="yes"/>
      <point x="442" y="140"/>
      <point x="502" y="120"/>
      <point x="502" y="68" type="curve" smooth="yes"/>
      <point x="502" y="29"/>
      <point x="469" y="6"/>
      <point x="414" y="6" type="curve" smooth="yes"/>
      <point x="402" y="6"/>
      <point x="393" y="6"/>
      <point x="387" y="8" type="curve"/>
      <point x="357" y="-63" type="line"/>
      <point x="373" y="-66"/>
      <point x="387" y="-68"/>
      <point x="402" y="-68" type="curve" smooth="yes"/>
      <point x="412" y="-68"/>
      <point x="423" y="-68"/>
      <point x="433" y="-67" type="curve"/>
      <point x="426" y="-124"/>
      <point x="393" y="-152"/>
      <point x="331" y="-152" type="curve" smooth="yes"/>
      <point x="292" y="-152"/>
      <point x="261" y="-140"/>
      <point x="242" y="-118" type="curve"/>
      <point x="184" y="-166" type="line"/>
      <point x="216" y="-197"/>
      <point x="266" y="-216"/>
      <point x="331" y="-216" type="curve" smooth="yes"/>
      <point x="444" y="-216"/>
      <point x="513" y="-153"/>
      <point x="513" y="-42" type="curve"/>
      <point x="552" y="-22"/>
      <point x="580" y="29"/>
      <point x="580" y="71" type="curve" smooth="yes"/>
      <point x="580" y="161"/>
      <point x="488" y="213"/>
    </contour>
  </outline>
</glyph>
<glyph name="La_ZWJ_Ya_khar" format="2">
  <advance width="688"/>
  <outline>
    <contour>
      <point x="549" y="-139" type="line"/>
      <point x="582" y="-97"/>
      <point x="600" y="-24"/>
      <point x="600" y="24" type="curve" smooth="yes"/>
      <point x="600" y="128"/>
      <point x="515" y="213"/>
      <point x="394" y="213" type="curve" smooth="yes"/>
      <point x="276" y="213"/>
      <point x="199" y="148"/>
      <point x="199" y="58" type="curve" smooth="yes"/>
      <point x="199" y="16"/>
      <point x="229" y="-15"/>
      <point x="260" y="-15" type="curve" smooth="yes"/>
      <point x="291" y="-15"/>
      <point x="310" y="10"/>
      <point x="323" y="76" type="curve" smooth="yes"/>
      <point x="367" y="297"/>
      <point x="463" y="604"/>
      <point x="504" y="702" type="curve"/>
      <point x="423" y="724" type="line"/>
      <point x="407" y="686"/>
      <point x="384" y="618"/>
      <point x="359" y="538" type="curve"/>
      <point x="188" y="535"/>
      <point x="116" y="520"/>
      <point x="73" y="502" type="curve"/>
      <point x="91" y="433" type="line"/>
      <point x="130" y="447"/>
      <point x="192" y="461"/>
      <point x="337" y="465" type="curve"/>
      <point x="303" y="351"/>
      <point x="269" y="224"/>
      <point x="245" y="117" type="curve"/>
      <point x="283" y="55" type="line"/>
      <point x="283" y="102"/>
      <point x="326" y="140"/>
      <point x="392" y="140" type="curve" smooth="yes"/>
      <point x="461" y="140"/>
      <point x="514" y="90"/>
      <point x="514" y="15" type="curve" smooth="yes"/>
      <point x="514" y="-19"/>
      <point x="502" y="-74"/>
      <point x="486" y="-97" type="curve"/>
    </contour>
  </outline>
</glyph>
<glyph name="MMa_khar" format="2">
  <advance width="716"/>
  <outline>
    <contour>
      <point x="476" y="-13" type="curve" smooth="yes"/>
      <point x="594" y="-13"/>
      <point x="671" y="52"/>
      <point x="671" y="142" type="curve" smooth="yes"/>
      <point x="671" y="157"/>
      <point x="667" y="180"/>
      <point x="664" y="196" type="curve"/>
      <point x="584" y="172" type="line"/>
      <point x="586" y="162"/>
      <point x="587" y="153"/>
      <point x="587" y="145" type="curve" smooth="yes"/>
      <point x="587" y="98"/>
      <point x="544" y="60"/>
      <point x="478" y="60" type="curve" smooth="yes"/>
      <point x="409" y="60"/>
      <point x="356" y="110"/>
      <point x="356" y="185" type="curve" smooth="yes"/>
      <point x="356" y="219"/>
      <point x="368" y="274"/>
      <point x="384" y="297" type="curve"/>
      <point x="321" y="339" type="line"/>
      <point x="288" y="297"/>
      <point x="270" y="224"/>
      <point x="270" y="176" type="curve" smooth="yes"/>
      <point x="270" y="72"/>
      <point x="355" y="-13"/>
    </contour>
    <component base="Ma_khar"/>
  </outline>
</glyph>
<glyph name="MRa_khar" format="2">
  <advance width="741"/>
  <note>
g121
mra
</note>
  <outline>
    <contour>
      <point x="251" y="-5" type="curve" smooth="yes"/>
      <point x="357" y="-5"/>
      <point x="430" y="54"/>
      <point x="430" y="147" type="curve" smooth="yes"/>
      <point x="430" y="245"/>
      <point x="407" y="402"/>
      <point x="407" y="506" type="curve" smooth="yes"/>
      <point x="407" y="596"/>
      <point x="451" y="649"/>
      <point x="522" y="649" type="curve" smooth="yes"/>
      <point x="568" y="649"/>
      <point x="610" y="625"/>
      <point x="638" y="575" type="curve"/>
      <point x="702" y="614" type="line"/>
      <point x="675" y="677"/>
      <point x="600" y="723"/>
      <point x="522" y="723" type="curve" smooth="yes"/>
      <point x="397" y="723"/>
      <point x="321" y="642"/>
      <point x="321" y="519" type="curve" smooth="yes"/>
      <point x="321" y="370"/>
      <point x="346" y="297"/>
      <point x="346" y="150" type="curve" smooth="yes"/>
      <point x="346" y="102"/>
      <point x="306" y="68"/>
      <point x="252" y="68" type="curve" smooth="yes"/>
      <point x="185" y="68"/>
      <point x="145" y="109"/>
      <point x="145" y="174" type="curve" smooth="yes"/>
      <point x="145" y="204"/>
      <point x="151" y="229"/>
      <point x="166" y="250" type="curve"/>
      <point x="106" y="292" type="line"/>
      <point x="75" y="251"/>
      <point x="59" y="207"/>
      <point x="59" y="161" type="curve" smooth="yes"/>
      <point x="59" y="57"/>
      <point x="132" y="-5"/>
    </contour>
  </outline>
</glyph>
<glyph name="Me_khar" format="2">
  <advance width="696"/>
  <note>
g114
</note>
  <outline>
    <contour>
      <point x="394" y="285" type="curve" smooth="yes"/>
      <point x="547" y="285"/>
      <point x="678" y="369"/>
      <point x="678" y="511" type="curve" smooth="yes"/>
      <point x="678" y="568"/>
      <point x="655" y="620"/>
      <point x="608" y="667" type="curve"/>
      <point x="545" y="615" type="line"/>
      <point x="578" y="581"/>
      <point x="594" y="544"/>
      <point x="594" y="508" type="curve" smooth="yes"/>
      <point x="594" y="416"/>
      <point x="525" y="359"/>
      <point x="407" y="359" type="curve" smooth="yes"/>
      <point x="400" y="359" type="line"/>
      <point x="426" y="479"/>
      <point x="442" y="563"/>
      <point x="448" y="611" type="curve"/>
      <point x="395" y="619" type="line"/>
      <point x="386" y="564"/>
      <point x="355" y="447"/>
      <point x="329" y="367" type="curve"/>
      <point x="240" y="389"/>
      <point x="192" y="449"/>
      <point x="192" y="533" type="curve" smooth="yes"/>
      <point x="192" y="580"/>
      <point x="215" y="648"/>
      <point x="247" y="699" type="curve"/>
      <point x="176" y="731" type="line"/>
      <point x="136" y="676"/>
      <point x="106" y="584"/>
      <point x="106" y="526" type="curve" smooth="yes"/>
      <point x="106" y="370"/>
      <point x="229" y="285"/>
    </contour>
  </outline>
</glyph>
<glyph name="Mo_khar" format="2">
  <advance width="696"/>
  <outline>
    <contour>
      <point x="394" y="285" type="curve" smooth="yes"/>
      <point x="537" y="285"/>
      <point x="678" y="362"/>
      <point x="678" y="511" type="curve" smooth="yes"/>
      <point x="678" y="564"/>
      <point x="656" y="619"/>
      <point x="608" y="667" type="curve"/>
      <point x="545" y="615" type="line"/>
      <point x="578" y="580"/>
      <point x="594" y="542"/>
      <point x="594" y="508" type="curve" smooth="yes"/>
      <point x="594" y="407"/>
      <point x="515" y="359"/>
      <point x="407" y="359" type="curve" smooth="yes"/>
      <point x="281" y="359"/>
      <point x="192" y="417"/>
      <point x="192" y="533" type="curve" smooth="yes"/>
      <point x="192" y="579"/>
      <point x="214" y="645"/>
      <point x="247" y="699" type="curve"/>
      <point x="176" y="731" type="line"/>
      <point x="139" y="680"/>
      <point x="106" y="588"/>
      <point x="106" y="526" type="curve" smooth="yes"/>
      <point x="106" y="364"/>
      <point x="237" y="285"/>
    </contour>
    <contour>
      <point x="229" y="100" type="line"/>
      <point x="306" y="166"/>
      <point x="384" y="236"/>
      <point x="458" y="308" type="curve"/>
      <point x="420" y="352" type="line"/>
      <point x="342" y="281"/>
      <point x="252" y="201"/>
      <point x="182" y="146" type="curve"/>
    </contour>
  </outline>
</glyph>
<glyph name="Mu_khar" format="2">
  <advance width="461"/>
  <note>
g104
</note>
  <outline>
    <contour>
      <point x="183" y="-15" type="curve" smooth="yes"/>
      <point x="215" y="-15"/>
      <point x="250" y="-11"/>
      <point x="287" y="-2" type="curve"/>
      <point x="269" y="69" type="line"/>
      <point x="239" y="61"/>
      <point x="212" y="56"/>
      <point x="188" y="56" type="curve" smooth="yes"/>
      <point x="146" y="56"/>
      <point x="123" y="74"/>
      <point x="123" y="104" type="curve" smooth="yes"/>
      <point x="123" y="140"/>
      <point x="169" y="178"/>
      <point x="214" y="211" type="curve" smooth="yes"/>
      <point x="364" y="321"/>
      <point x="412" y="403"/>
      <point x="412" y="509" type="curve" smooth="yes"/>
      <point x="412" y="592"/>
      <point x="386" y="664"/>
      <point x="335" y="732" type="curve"/>
      <point x="269" y="698" type="line"/>
      <point x="312" y="627"/>
      <point x="328" y="581"/>
      <point x="328" y="496" type="curve" smooth="yes"/>
      <point x="328" y="408"/>
      <point x="275" y="353"/>
      <point x="184" y="283" type="curve" smooth="yes"/>
      <point x="99" y="218"/>
      <point x="39" y="171"/>
      <point x="39" y="98" type="curve" smooth="yes"/>
      <point x="39" y="23"/>
      <point x="89" y="-15"/>
    </contour>
  </outline>
</glyph>
<glyph name="Ne_khar" format="2">
  <advance width="670"/>
  <note>
g106
</note>
  <outline>
    <contour>
      <point x="613" y="417" type="line"/>
      <point x="574" y="403"/>
      <point x="507" y="389"/>
      <point x="362" y="385" type="curve"/>
      <point x="344" y="326" type="line"/>
      <point x="515" y="329"/>
      <point x="585" y="344"/>
      <point x="628" y="362" type="curve"/>
    </contour>
    <component base="Na_khar"/>
  </outline>
</glyph>
<glyph name="Nni_khar" format="2">
  <advance width="494"/>
  <note>
g81
</note>
  <outline>
    <contour>
      <point x="79" y="48" type="line"/>
      <point x="153" y="151"/>
      <point x="285" y="367"/>
      <point x="390" y="565" type="curve"/>
      <point x="464" y="717" type="line"/>
      <point x="423" y="729" type="line"/>
      <point x="327" y="532"/>
      <point x="95" y="169"/>
      <point x="22" y="72" type="curve"/>
    </contour>
    <contour>
      <point x="211" y="-16" type="curve"/>
      <point x="295" y="-4" type="line"/>
      <point x="279" y="55"/>
      <point x="260" y="169"/>
      <point x="260" y="326" type="curve" smooth="yes"/>
      <point x="260" y="406"/>
      <point x="263" y="487"/>
      <point x="273" y="571" type="curve"/>
      <point x="305" y="515"/>
      <point x="342" y="460"/>
      <point x="361" y="435" type="curve"/>
      <point x="431" y="479" type="line"/>
      <point x="375" y="557"/>
      <point x="296" y="667"/>
      <point x="294" y="713" type="curve"/>
      <point x="209" y="720" type="line"/>
      <point x="189" y="593"/>
      <point x="178" y="453"/>
      <point x="178" y="326" type="curve" smooth="yes"/>
      <point x="178" y="165"/>
      <point x="199" y="44"/>
    </contour>
  </outline>
</glyph>
<glyph name="Nno_khar" format="2">
  <advance width="611"/>
  <outline>
    <contour>
      <point x="329" y="-16" type="curve"/>
      <point x="413" y="-4" type="line"/>
      <point x="397" y="55"/>
      <point x="378" y="169"/>
      <point x="378" y="326" type="curve" smooth="yes"/>
      <point x="378" y="406"/>
      <point x="381" y="487"/>
      <point x="391" y="571" type="curve"/>
      <point x="423" y="515"/>
      <point x="460" y="460"/>
      <point x="479" y="435" type="curve"/>
      <point x="549" y="479" type="line"/>
      <point x="493" y="557"/>
      <point x="414" y="667"/>
      <point x="412" y="713" type="curve"/>
      <point x="327" y="720" type="line"/>
      <point x="307" y="593"/>
      <point x="296" y="453"/>
      <point x="296" y="326" type="curve" smooth="yes"/>
      <point x="296" y="165"/>
      <point x="317" y="44"/>
    </contour>
    <contour>
      <point x="100" y="214" type="line"/>
      <point x="191" y="258"/>
      <point x="285" y="305"/>
      <point x="375" y="355" type="curve"/>
      <point x="350" y="408" type="line"/>
      <point x="256" y="359"/>
      <point x="148" y="306"/>
      <point x="66" y="271" type="curve"/>
    </contour>
  </outline>
</glyph>
<glyph name="Nnu_khar" format="2">
  <advance width="551"/>
  <outline>
    <contour>
      <point x="419" y="435" type="curve"/>
      <point x="489" y="479" type="line"/>
      <point x="433" y="557"/>
      <point x="354" y="667"/>
      <point x="352" y="713" type="curve"/>
      <point x="267" y="720" type="line"/>
      <point x="247" y="593"/>
      <point x="236" y="453"/>
      <point x="236" y="326" type="curve" smooth="yes"/>
      <point x="236" y="229"/>
      <point x="244" y="146"/>
      <point x="252" y="82" type="curve"/>
      <point x="241" y="84"/>
      <point x="228" y="85"/>
      <point x="214" y="85" type="curve" smooth="yes"/>
      <point x="110" y="85"/>
      <point x="64" y="25"/>
      <point x="64" y="-30" type="curve" smooth="yes"/>
      <point x="64" y="-97"/>
      <point x="113" y="-136"/>
      <point x="203" y="-136" type="curve" smooth="yes"/>
      <point x="305" y="-136"/>
      <point x="354" y="-81"/>
      <point x="354" y="-19" type="curve" smooth="yes"/>
      <point x="354" y="-4"/>
      <point x="351" y="8"/>
      <point x="348" y="16" type="curve"/>
      <point x="333" y="79"/>
      <point x="318" y="186"/>
      <point x="318" y="326" type="curve" smooth="yes"/>
      <point x="318" y="406"/>
      <point x="321" y="487"/>
      <point x="331" y="571" type="curve"/>
      <point x="363" y="515"/>
      <point x="400" y="460"/>
    </contour>
    <contour>
      <point x="193" y="-86" type="curve" smooth="yes"/>
      <point x="144" y="-86"/>
      <point x="117" y="-65"/>
      <point x="117" y="-30" type="curve" smooth="yes"/>
      <point x="117" y="5"/>
      <point x="150" y="26"/>
      <point x="193" y="26" type="curve" smooth="yes"/>
      <point x="236" y="26"/>
      <point x="269" y="5"/>
      <point x="269" y="-30" type="curve" smooth="yes"/>
      <point x="269" y="-65"/>
      <point x="238" y="-86"/>
    </contour>
  </outline>
</glyph>
<glyph name="O_diag.short" format="2">
  <outline>
    <contour>
      <point x="-347" y="-10" type="line"/>
      <point x="-256" y="34"/>
      <point x="-162" y="81"/>
      <point x="-72" y="131" type="curve"/>
      <point x="-97" y="184" type="line"/>
      <point x="-191" y="135"/>
      <point x="-299" y="82"/>
      <point x="-381" y="47" type="curve"/>
    </contour>
  </outline>
</glyph>
<glyph name="O_vertical" format="2">
  <outline>
    <contour>
      <point x="-145" y="233" type="line"/>
      <point x="-128" y="390"/>
      <point x="-89" y="659"/>
      <point x="-81" y="705" type="curve"/>
      <point x="-121" y="705" type="line"/>
      <point x="-142" y="585"/>
      <point x="-183" y="340"/>
      <point x="-200" y="236" type="curve"/>
    </contour>
  </outline>
</glyph>
<glyph name="O_vertical_short" format="2">
  <outline>
    <contour>
      <point x="-145" y="233" type="line"/>
      <point x="-141" y="278"/>
      <point x="-107" y="541"/>
      <point x="-97" y="605" type="curve"/>
      <point x="-137" y="605" type="line"/>
      <point x="-158" y="485"/>
      <point x="-183" y="340"/>
      <point x="-200" y="236" type="curve"/>
    </contour>
  </outline>
</glyph>
<glyph name="PGa_khar" format="2">
  <advance width="722"/>
  <outline>
    <contour>
      <point x="425" y="537" type="curve"/>
      <point x="446" y="609"/>
      <point x="468" y="668"/>
      <point x="482" y="702" type="curve"/>
      <point x="401" y="724" type="line"/>
      <point x="357" y="618"/>
      <point x="261" y="286"/>
      <point x="215" y="72" type="curve"/>
      <point x="146" y="87"/>
      <point x="104" y="121"/>
      <point x="104" y="189" type="curve" smooth="yes"/>
      <point x="104" y="225"/>
      <point x="119" y="267"/>
      <point x="147" y="311" type="curve"/>
      <point x="81" y="345" type="line"/>
      <point x="51" y="305"/>
      <point x="23" y="244"/>
      <point x="23" y="182" type="curve" smooth="yes"/>
      <point x="23" y="82"/>
      <point x="95" y="26"/>
      <point x="201" y="7" type="curve"/>
      <point x="186" y="-69"/>
      <point x="160" y="-207"/>
      <point x="150" y="-281" type="curve"/>
      <point x="230" y="-289" type="line"/>
      <point x="239" y="-227"/>
      <point x="276" y="-16"/>
      <point x="283" y="1" type="curve"/>
      <point x="452" y="3"/>
      <point x="575" y="71"/>
      <point x="575" y="184" type="curve" smooth="yes"/>
      <point x="575" y="245"/>
      <point x="535" y="296"/>
      <point x="448" y="296" type="curve" smooth="yes"/>
      <point x="401" y="296"/>
      <point x="370" y="276"/>
      <point x="344" y="248" type="curve"/>
      <point x="363" y="319"/>
      <point x="385" y="399"/>
      <point x="404" y="467" type="curve"/>
      <point x="543" y="462"/>
      <point x="592" y="419"/>
      <point x="592" y="361" type="curve" smooth="yes"/>
      <point x="592" y="343"/>
      <point x="587" y="328"/>
      <point x="581" y="318" type="curve"/>
      <point x="644" y="267" type="line"/>
      <point x="664" y="291"/>
      <point x="678" y="320"/>
      <point x="678" y="368" type="curve" smooth="yes"/>
      <point x="678" y="480"/>
      <point x="581" y="532"/>
    </contour>
    <contour>
      <point x="431" y="224" type="curve" smooth="yes"/>
      <point x="473" y="224"/>
      <point x="491" y="202"/>
      <point x="491" y="182" type="curve" smooth="yes"/>
      <point x="491" y="106"/>
      <point x="400" y="69"/>
      <point x="300" y="65" type="curve"/>
      <point x="333" y="168"/>
      <point x="378" y="224"/>
    </contour>
  </outline>
</glyph>
<glyph name="PTa_khar" format="2">
  <advance width="712"/>
  <outline>
    <contour>
      <point x="415" y="537" type="curve"/>
      <point x="436" y="609"/>
      <point x="458" y="668"/>
      <point x="472" y="702" type="curve"/>
      <point x="391" y="724" type="line"/>
      <point x="347" y="619"/>
      <point x="254" y="314"/>
      <point x="213" y="106" type="curve"/>
      <point x="201" y="105"/>
      <point x="188" y="104"/>
      <point x="177" y="104" type="curve" smooth="yes"/>
      <point x="126" y="104"/>
      <point x="107" y="112"/>
      <point x="107" y="142" type="curve" smooth="yes"/>
      <point x="107" y="169"/>
      <point x="131" y="192"/>
      <point x="166" y="200" type="curve"/>
      <point x="143" y="256" type="line"/>
      <point x="82" y="248"/>
      <point x="29" y="197"/>
      <point x="29" y="140" type="curve" smooth="yes"/>
      <point x="29" y="68"/>
      <point x="80" y="31"/>
      <point x="165" y="31" type="curve" smooth="yes"/>
      <point x="224" y="31"/>
      <point x="252" y="39"/>
      <point x="300" y="39" type="curve" smooth="yes"/>
      <point x="362" y="39"/>
      <point x="393" y="17"/>
      <point x="393" y="-25" type="curve" smooth="yes"/>
      <point x="393" y="-126"/>
      <point x="301" y="-188"/>
      <point x="96" y="-225" type="curve"/>
      <point x="114" y="-293" type="line"/>
      <point x="354" y="-247"/>
      <point x="474" y="-157"/>
      <point x="474" y="-24" type="curve" smooth="yes"/>
      <point x="474" y="64"/>
      <point x="423" y="112"/>
      <point x="302" y="112" type="curve"/>
      <point x="331" y="254"/>
      <point x="372" y="395"/>
      <point x="394" y="467" type="curve"/>
      <point x="533" y="462"/>
      <point x="582" y="419"/>
      <point x="582" y="361" type="curve" smooth="yes"/>
      <point x="582" y="330"/>
      <point x="568" y="310"/>
      <point x="556" y="300" type="curve"/>
      <point x="617" y="250" type="line"/>
      <point x="646" y="277"/>
      <point x="668" y="308"/>
      <point x="668" y="368" type="curve" smooth="yes"/>
      <point x="668" y="480"/>
      <point x="571" y="532"/>
    </contour>
  </outline>
</glyph>
<glyph name="RMa_khar" format="2">
  <advance width="714"/>
  <outline>
    <contour>
      <point x="251" y="5" type="curve" smooth="yes"/>
      <point x="357" y="5"/>
      <point x="421" y="54"/>
      <point x="430" y="147" type="curve" smooth="yes"/>
      <point x="440" y="245"/>
      <point x="441" y="402"/>
      <point x="451" y="506" type="curve" smooth="yes"/>
      <point x="460" y="596"/>
      <point x="495" y="649"/>
      <point x="566" y="649" type="curve" smooth="yes"/>
      <point x="592" y="649"/>
      <point x="616" y="642"/>
      <point x="637" y="626" type="curve"/>
      <point x="675" y="692" type="line"/>
      <point x="643" y="711"/>
      <point x="605" y="723"/>
      <point x="566" y="723" type="curve" smooth="yes"/>
      <point x="441" y="723"/>
      <point x="373" y="642"/>
      <point x="365" y="519" type="curve" smooth="yes"/>
      <point x="355" y="367"/>
      <point x="356" y="297"/>
      <point x="346" y="150" type="curve" smooth="yes"/>
      <point x="343" y="102"/>
      <point x="306" y="68"/>
      <point x="252" y="68" type="curve" smooth="yes"/>
      <point x="185" y="68"/>
      <point x="145" y="109"/>
      <point x="145" y="174" type="curve" smooth="yes"/>
      <point x="145" y="204"/>
      <point x="151" y="229"/>
      <point x="166" y="250" type="curve"/>
      <point x="106" y="292" type="line"/>
      <point x="75" y="251"/>
      <point x="59" y="207"/>
      <point x="59" y="161" type="curve" smooth="yes"/>
      <point x="59" y="57"/>
      <point x="132" y="5"/>
    </contour>
    <contour>
      <point x="367" y="438" type="curve"/>
      <point x="390" y="524" type="line"/>
      <point x="350" y="542"/>
      <point x="307" y="551"/>
      <point x="265" y="551" type="curve" smooth="yes"/>
      <point x="245" y="551"/>
      <point x="227" y="549"/>
      <point x="212" y="547" type="curve"/>
      <point x="221" y="463" type="line"/>
      <point x="234" y="465"/>
      <point x="249" y="466"/>
      <point x="263" y="466" type="curve" smooth="yes"/>
      <point x="301" y="466"/>
      <point x="335" y="458"/>
    </contour>
    <contour>
      <point x="440" y="495" type="curve"/>
      <point x="418" y="404" type="line"/>
      <point x="464" y="360"/>
      <point x="503" y="300"/>
      <point x="533" y="222" type="curve"/>
      <point x="612" y="261" type="line"/>
      <point x="569" y="365"/>
      <point x="511" y="444"/>
    </contour>
  </outline>
</glyph>
<glyph name="RTa_khar" format="2">
  <advance width="658"/>
  <note>
g125
rta
</note>
  <outline>
    <contour>
      <point x="535" y="-20" type="line"/>
      <point x="595" y="58"/>
      <point x="609" y="91"/>
      <point x="609" y="167" type="curve" smooth="yes"/>
      <point x="609" y="224"/>
      <point x="588" y="270"/>
      <point x="546" y="306" type="curve"/>
      <point x="554" y="337"/>
      <point x="557" y="369"/>
      <point x="557" y="399" type="curve" smooth="yes"/>
      <point x="557" y="508"/>
      <point x="505" y="551"/>
      <point x="391" y="551" type="curve" smooth="yes"/>
      <point x="354" y="551"/>
      <point x="291" y="543"/>
      <point x="250" y="543" type="curve" smooth="yes"/>
      <point x="198" y="543"/>
      <point x="172" y="560"/>
      <point x="172" y="594" type="curve" smooth="yes"/>
      <point x="172" y="626"/>
      <point x="196" y="652"/>
      <point x="236" y="662" type="curve"/>
      <point x="211" y="731" type="line"/>
      <point x="141" y="719"/>
      <point x="88" y="663"/>
      <point x="88" y="596" type="curve" smooth="yes"/>
      <point x="88" y="513"/>
      <point x="143" y="465"/>
      <point x="238" y="465" type="curve" smooth="yes"/>
      <point x="293" y="465"/>
      <point x="327" y="473"/>
      <point x="379" y="473" type="curve" smooth="yes"/>
      <point x="441" y="473"/>
      <point x="471" y="454"/>
      <point x="471" y="399" type="curve" smooth="yes"/>
      <point x="471" y="380"/>
      <point x="470" y="364"/>
      <point x="468" y="349" type="curve"/>
      <point x="436" y="359"/>
      <point x="399" y="364"/>
      <point x="359" y="364" type="curve" smooth="yes"/>
      <point x="237" y="364"/>
      <point x="131" y="291"/>
      <point x="131" y="177" type="curve" smooth="yes"/>
      <point x="131" y="96"/>
      <point x="194" y="40"/>
      <point x="284" y="40" type="curve" smooth="yes"/>
      <point x="381" y="40"/>
      <point x="453" y="90"/>
      <point x="514" y="214" type="curve"/>
      <point x="524" y="191"/>
      <point x="525" y="180"/>
      <point x="525" y="148" type="curve" smooth="yes"/>
      <point x="525" y="104"/>
      <point x="504" y="66"/>
      <point x="475" y="31" type="curve"/>
    </contour>
    <contour>
      <point x="290" y="114" type="curve" smooth="yes"/>
      <point x="245" y="114"/>
      <point x="215" y="141"/>
      <point x="215" y="182" type="curve" smooth="yes"/>
      <point x="215" y="250"/>
      <point x="271" y="290"/>
      <point x="359" y="290" type="curve" smooth="yes"/>
      <point x="395" y="290"/>
      <point x="424" y="285"/>
      <point x="449" y="275" type="curve"/>
      <point x="403" y="167"/>
      <point x="350" y="114"/>
    </contour>
  </outline>
</glyph>
<glyph name="SPa_khar" format="2">
  <advance width="567"/>
  <outline>
    <contour>
      <point x="310" y="347" type="curve" smooth="yes"/>
      <point x="425" y="347"/>
      <point x="533" y="400"/>
      <point x="533" y="511" type="curve" smooth="yes"/>
      <point x="533" y="622"/>
      <point x="440" y="635"/>
      <point x="313" y="651" type="curve" smooth="yes"/>
      <point x="210" y="664"/>
      <point x="185" y="690"/>
      <point x="176" y="722" type="curve"/>
      <point x="107" y="697" type="line"/>
      <point x="124" y="628"/>
      <point x="158" y="597"/>
      <point x="304" y="580" type="curve" smooth="yes"/>
      <point x="397" y="569"/>
      <point x="447" y="560"/>
      <point x="447" y="509" type="curve" smooth="yes"/>
      <point x="447" y="443"/>
      <point x="387" y="418"/>
      <point x="312" y="418" type="curve" smooth="yes"/>
      <point x="297" y="418"/>
      <point x="282" y="418"/>
      <point x="268" y="420" type="curve"/>
      <point x="264" y="439"/>
      <point x="258" y="454"/>
      <point x="252" y="462" type="curve"/>
      <point x="186" y="446" type="line"/>
      <point x="192" y="425"/>
      <point x="194" y="405"/>
      <point x="194" y="373" type="curve" smooth="yes"/>
      <point x="194" y="313"/>
      <point x="115" y="78"/>
      <point x="75" y="5" type="curve"/>
      <point x="155" y="-16" type="line"/>
      <point x="181" y="38"/>
      <point x="210" y="123"/>
      <point x="238" y="212" type="curve"/>
      <point x="359" y="207"/>
      <point x="401" y="188"/>
      <point x="401" y="133" type="curve" smooth="yes"/>
      <point x="401" y="89"/>
      <point x="380" y="61"/>
      <point x="353" y="26" type="curve"/>
      <point x="413" y="-25" type="line"/>
      <point x="449" y="22"/>
      <point x="484" y="70"/>
      <point x="487" y="133" type="curve" smooth="yes"/>
      <point x="487" y="135"/>
      <point x="487" y="137"/>
      <point x="487" y="140" type="curve" smooth="yes"/>
      <point x="487" y="142" type="line" smooth="yes"/>
      <point x="486" y="236"/>
      <point x="423" y="276"/>
      <point x="259" y="284" type="curve"/>
      <point x="273" y="348" type="line"/>
      <point x="284" y="347"/>
      <point x="296" y="347"/>
    </contour>
  </outline>
</glyph>
<glyph name="STa_khar" format="2">
  <advance width="706"/>
  <note>
g123
sta
</note>
  <outline>
    <contour>
      <point x="510" y="407" type="curve" smooth="yes"/>
      <point x="507" y="407" type="line"/>
      <point x="521" y="453"/>
      <point x="530" y="497"/>
      <point x="530" y="535" type="curve" smooth="yes"/>
      <point x="530" y="627"/>
      <point x="487" y="713"/>
      <point x="349" y="713" type="curve" smooth="yes"/>
      <point x="280" y="713"/>
      <point x="184" y="697"/>
      <point x="99" y="666" type="curve"/>
      <point x="117" y="597" type="line"/>
      <point x="198" y="624"/>
      <point x="269" y="635"/>
      <point x="338" y="635" type="curve" smooth="yes"/>
      <point x="406" y="635"/>
      <point x="444" y="589"/>
      <point x="444" y="531" type="curve" smooth="yes"/>
      <point x="444" y="492"/>
      <point x="436" y="450"/>
      <point x="423" y="407" type="curve"/>
      <point x="333" y="405"/>
      <point x="259" y="403"/>
      <point x="201" y="399" type="curve"/>
      <point x="185" y="324" type="line"/>
      <point x="250" y="328"/>
      <point x="322" y="331"/>
      <point x="398" y="333" type="curve"/>
      <point x="348" y="210"/>
      <point x="278" y="90"/>
      <point x="240" y="26" type="curve"/>
      <point x="309" y="-17" type="line"/>
      <point x="354" y="64"/>
      <point x="428" y="201"/>
      <point x="481" y="333" type="curve"/>
      <point x="486" y="333" type="line" smooth="yes"/>
      <point x="550" y="333"/>
      <point x="614" y="332"/>
      <point x="680" y="328" type="curve"/>
      <point x="696" y="400" type="line"/>
      <point x="636" y="404"/>
      <point x="574" y="407"/>
    </contour>
  </outline>
</glyph>
<glyph name="STha_khar" format="2">
  <advance width="887"/>
  <outline>
    <contour>
      <point x="804" y="710" type="line"/>
      <point x="760" y="578"/>
      <point x="721" y="452"/>
      <point x="695" y="431" type="curve" smooth="yes"/>
      <point x="670" y="411"/>
      <point x="621" y="407"/>
      <point x="510" y="407" type="curve"/>
      <point x="523" y="455"/>
      <point x="530" y="498"/>
      <point x="530" y="535" type="curve" smooth="yes"/>
      <point x="530" y="650"/>
      <point x="465" y="713"/>
      <point x="349" y="713" type="curve" smooth="yes"/>
      <point x="271" y="713"/>
      <point x="176" y="695"/>
      <point x="99" y="666" type="curve"/>
      <point x="117" y="597" type="line"/>
      <point x="192" y="622"/>
      <point x="265" y="635"/>
      <point x="338" y="635" type="curve" smooth="yes"/>
      <point x="403" y="635"/>
      <point x="444" y="591"/>
      <point x="444" y="531" type="curve" smooth="yes"/>
      <point x="444" y="494"/>
      <point x="438" y="453"/>
      <point x="425" y="407" type="curve"/>
      <point x="334" y="405"/>
      <point x="259" y="403"/>
      <point x="201" y="399" type="curve"/>
      <point x="185" y="324" type="line"/>
      <point x="251" y="328"/>
      <point x="324" y="331"/>
      <point x="401" y="333" type="curve"/>
      <point x="364" y="229"/>
      <point x="298" y="108"/>
      <point x="236" y="26" type="curve"/>
      <point x="305" y="-17" type="line"/>
      <point x="379" y="88"/>
      <point x="449" y="228"/>
      <point x="486" y="333" type="curve"/>
      <point x="597" y="333" type="line" smooth="yes"/>
      <point x="657" y="333"/>
      <point x="720" y="346"/>
      <point x="743" y="365" type="curve" smooth="yes"/>
      <point x="769" y="387"/>
      <point x="795" y="411"/>
      <point x="885" y="688" type="curve"/>
    </contour>
  </outline>
</glyph>
<glyph name="SYa_khar" format="2">
  <advance width="920"/>
  <note>
g124
sya
</note>
  <outline>
    <contour>
      <point x="182" y="-85" type="curve" smooth="yes"/>
      <point x="295" y="-85"/>
      <point x="364" y="-22"/>
      <point x="364" y="89" type="curve"/>
      <point x="379" y="98"/>
      <point x="392" y="109"/>
      <point x="402" y="122" type="curve"/>
      <point x="496" y="184"/>
      <point x="576" y="311"/>
      <point x="603" y="439" type="curve"/>
      <point x="618" y="438"/>
      <point x="635" y="438"/>
      <point x="653" y="438" type="curve" smooth="yes"/>
      <point x="771" y="438"/>
      <point x="876" y="510"/>
      <point x="876" y="630" type="curve" smooth="yes"/>
      <point x="876" y="747"/>
      <point x="797" y="776"/>
      <point x="656" y="793" type="curve" smooth="yes"/>
      <point x="574" y="803"/>
      <point x="531" y="825"/>
      <point x="519" y="873" type="curve"/>
      <point x="450" y="847" type="line"/>
      <point x="471" y="753"/>
      <point x="539" y="736"/>
      <point x="647" y="722" type="curve" smooth="yes"/>
      <point x="758" y="708"/>
      <point x="790" y="683"/>
      <point x="790" y="627" type="curve" smooth="yes"/>
      <point x="790" y="556"/>
      <point x="735" y="508"/>
      <point x="655" y="508" type="curve" smooth="yes"/>
      <point x="642" y="508"/>
      <point x="630" y="508"/>
      <point x="617" y="509" type="curve"/>
      <point x="617" y="554"/>
      <point x="607" y="597"/>
      <point x="595" y="612" type="curve"/>
      <point x="529" y="596" type="line"/>
      <point x="534" y="579"/>
      <point x="537" y="554"/>
      <point x="537" y="523" type="curve" smooth="yes"/>
      <point x="537" y="422"/>
      <point x="492" y="313"/>
      <point x="424" y="241" type="curve"/>
      <point x="411" y="286"/>
      <point x="369" y="320"/>
      <point x="313" y="329" type="curve"/>
      <point x="289" y="261" type="line"/>
      <point x="328" y="257"/>
      <point x="353" y="232"/>
      <point x="353" y="199" type="curve" smooth="yes"/>
      <point x="353" y="160"/>
      <point x="320" y="137"/>
      <point x="265" y="137" type="curve" smooth="yes"/>
      <point x="253" y="137"/>
      <point x="244" y="137"/>
      <point x="238" y="139" type="curve"/>
      <point x="208" y="68" type="line"/>
      <point x="224" y="65"/>
      <point x="238" y="63"/>
      <point x="253" y="63" type="curve" smooth="yes"/>
      <point x="263" y="63"/>
      <point x="274" y="63"/>
      <point x="284" y="64" type="curve"/>
      <point x="277" y="7"/>
      <point x="244" y="-21"/>
      <point x="182" y="-21" type="curve" smooth="yes"/>
      <point x="113" y="-21"/>
      <point x="71" y="16"/>
      <point x="71" y="81" type="curve" smooth="yes"/>
      <point x="71" y="89"/>
      <point x="72" y="100"/>
      <point x="74" y="111" type="curve"/>
      <point x="2" y="123" type="line"/>
      <point x="-2" y="104"/>
      <point x="-5" y="85"/>
      <point x="-5" y="67" type="curve" smooth="yes"/>
      <point x="-5" y="-24"/>
      <point x="65" y="-85"/>
    </contour>
  </outline>
</glyph>
<glyph name="ShPa_khar" format="2">
  <advance width="794"/>
  <outline>
    <contour>
      <point x="379" y="-16" type="line"/>
      <point x="422" y="75"/>
      <point x="478" y="241"/>
      <point x="505" y="389" type="curve"/>
      <point x="620" y="383"/>
      <point x="662" y="364"/>
      <point x="662" y="311" type="curve" smooth="yes"/>
      <point x="662" y="268"/>
      <point x="641" y="241"/>
      <point x="614" y="206" type="curve"/>
      <point x="674" y="155" type="line"/>
      <point x="728" y="228"/>
      <point x="748" y="262"/>
      <point x="748" y="317" type="curve" smooth="yes"/>
      <point x="748" y="414"/>
      <point x="680" y="453"/>
      <point x="516" y="461" type="curve"/>
      <point x="519" y="487"/>
      <point x="520" y="512"/>
      <point x="520" y="535" type="curve" smooth="yes"/>
      <point x="520" y="627"/>
      <point x="477" y="713"/>
      <point x="339" y="713" type="curve" smooth="yes"/>
      <point x="277" y="713"/>
      <point x="187" y="702"/>
      <point x="112" y="684" type="curve"/>
      <point x="131" y="614" type="line"/>
      <point x="200" y="629"/>
      <point x="275" y="635"/>
      <point x="328" y="635" type="curve" smooth="yes"/>
      <point x="396" y="635"/>
      <point x="434" y="589"/>
      <point x="434" y="531" type="curve" smooth="yes"/>
      <point x="434" y="360"/>
      <point x="352" y="108"/>
      <point x="299" y="5" type="curve"/>
    </contour>
  </outline>
</glyph>
<glyph name="SubLa.alt" format="2">
  <outline>
    <contour>
      <point x="-91" y="136" type="curve"/>
      <point x="-21" y="187" type="line"/>
      <point x="-82" y="265"/>
      <point x="-182" y="359"/>
      <point x="-312" y="359" type="curve" smooth="yes"/>
      <point x="-335" y="359"/>
      <point x="-371" y="353"/>
      <point x="-397" y="347" type="curve"/>
      <point x="-374" y="265" type="line"/>
      <point x="-362" y="268"/>
      <point x="-334" y="271"/>
      <point x="-320" y="271" type="curve" smooth="yes"/>
      <point x="-217" y="271"/>
      <point x="-139" y="197"/>
    </contour>
  </outline>
</glyph>
<glyph name="SubLa_khar" format="2">
  <outline>
    <contour>
      <point x="-99" y="56" type="curve"/>
      <point x="-21" y="94" type="line"/>
      <point x="-75" y="194"/>
      <point x="-175" y="318"/>
      <point x="-337" y="318" type="curve" smooth="yes"/>
      <point x="-346" y="318"/>
      <point x="-355" y="318"/>
      <point x="-364" y="317" type="curve"/>
      <point x="-355" y="233" type="line"/>
      <point x="-350" y="233"/>
      <point x="-344" y="233"/>
      <point x="-339" y="233" type="curve"/>
      <point x="-215" y="233"/>
      <point x="-140" y="133"/>
    </contour>
  </outline>
</glyph>
<glyph name="SubMa.alt" format="2">
  <outline>
    <contour>
      <point x="-66" y="31" type="line"/>
      <point x="-125" y="16"/>
      <point x="-160" y="12"/>
      <point x="-183" y="12" type="curve" smooth="yes"/>
      <point x="-247" y="12"/>
      <point x="-286" y="54"/>
      <point x="-286" y="118" type="curve" smooth="yes"/>
      <point x="-286" y="148"/>
      <point x="-280" y="173"/>
      <point x="-265" y="194" type="curve"/>
      <point x="-325" y="236" type="line"/>
      <point x="-356" y="195"/>
      <point x="-372" y="151"/>
      <point x="-372" y="105" type="curve" smooth="yes"/>
      <point x="-372" y="3"/>
      <point x="-304" y="-61"/>
      <point x="-179" y="-61" type="curve" smooth="yes"/>
      <point x="-123" y="-61"/>
      <point x="-79" y="-51"/>
      <point x="-52" y="-41" type="curve"/>
    </contour>
  </outline>
</glyph>
<glyph name="SubMa.alt1" format="2">
  <outline>
    <contour>
      <point x="-30" y="160" type="curve" smooth="yes"/>
      <point x="-30" y="168"/>
      <point x="-30" y="176"/>
      <point x="-32" y="185" type="curve"/>
      <point x="-114" y="160" type="line"/>
      <point x="-114" y="157" type="line" smooth="yes"/>
      <point x="-114" y="50"/>
      <point x="-163" y="14"/>
      <point x="-223" y="14" type="curve" smooth="yes"/>
      <point x="-295" y="14"/>
      <point x="-332" y="66"/>
      <point x="-332" y="136" type="curve" smooth="yes"/>
      <point x="-332" y="143"/>
      <point x="-331" y="150"/>
      <point x="-330" y="157" type="curve"/>
      <point x="-410" y="181" type="line"/>
      <point x="-415" y="164"/>
      <point x="-418" y="146"/>
      <point x="-418" y="129" type="curve" smooth="yes"/>
      <point x="-418" y="17"/>
      <point x="-331" y="-60"/>
      <point x="-220" y="-60" type="curve" smooth="yes"/>
      <point x="-107" y="-60"/>
      <point x="-30" y="28"/>
    </contour>
  </outline>
</glyph>
<glyph name="SubMa.alt2" format="2">
  <outline>
    <contour>
      <point x="-204" y="8" type="curve"/>
      <point x="-285" y="28" type="line"/>
      <point x="-302" y="-12"/>
      <point x="-323" y="-60"/>
      <point x="-339" y="-93" type="curve"/>
      <point x="-260" y="-115" type="line"/>
      <point x="-239" y="-70"/>
      <point x="-214" y="-15"/>
    </contour>
    <component base="SubMa_khar" xOffset="-30" yOffset="-100"/>
  </outline>
</glyph>
<glyph name="SubMa.alt3" format="2">
  <outline>
    <contour>
      <point x="-211" y="0" type="line"/>
      <point x="-291" y="6" type="line"/>
      <point x="-301" y="-48"/>
      <point x="-326" y="-207"/>
      <point x="-331" y="-244" type="curve"/>
      <point x="-252" y="-252" type="line"/>
    </contour>
    <component base="SubMa_khar" xOffset="-37" yOffset="-209"/>
  </outline>
</glyph>
<glyph name="SubMa_khar" format="2">
  <outline>
    <contour>
      <point x="-334" y="193" type="curve"/>
      <point x="-411" y="218" type="line"/>
      <point x="-422" y="185"/>
      <point x="-428" y="149"/>
      <point x="-428" y="122" type="curve" smooth="yes"/>
      <point x="-428" y="18"/>
      <point x="-343" y="-67"/>
      <point x="-222" y="-67" type="curve" smooth="yes"/>
      <point x="-104" y="-67"/>
      <point x="-27" y="-2"/>
      <point x="-27" y="88" type="curve" smooth="yes"/>
      <point x="-27" y="103"/>
      <point x="-31" y="126"/>
      <point x="-34" y="142" type="curve"/>
      <point x="-114" y="118" type="line"/>
      <point x="-112" y="108"/>
      <point x="-111" y="99"/>
      <point x="-111" y="91" type="curve" smooth="yes"/>
      <point x="-111" y="44"/>
      <point x="-154" y="6"/>
      <point x="-220" y="6" type="curve" smooth="yes"/>
      <point x="-289" y="6"/>
      <point x="-342" y="56"/>
      <point x="-342" y="131" type="curve" smooth="yes"/>
      <point x="-342" y="148"/>
      <point x="-339" y="172"/>
    </contour>
  </outline>
</glyph>
<glyph name="SubRa.alt" format="2">
  <outline>
    <contour>
      <point x="-387" y="-48" type="curve" smooth="yes"/>
      <point x="-387" y="-129"/>
      <point x="-301" y="-189"/>
      <point x="-165" y="-189" type="curve" smooth="yes"/>
      <point x="-109" y="-189"/>
      <point x="-55" y="-179"/>
      <point x="-28" y="-169" type="curve"/>
      <point x="-21" y="-90" type="line"/>
      <point x="-96" y="-111"/>
      <point x="-146" y="-115"/>
      <point x="-172" y="-115" type="curve" smooth="yes"/>
      <point x="-248" y="-115"/>
      <point x="-306" y="-82"/>
      <point x="-306" y="-40" type="curve" smooth="yes"/>
      <point x="-306" y="-25"/>
      <point x="-303" y="-8"/>
      <point x="-300" y="9" type="curve"/>
      <point x="-379" y="23" type="line"/>
      <point x="-384" y="-2"/>
      <point x="-387" y="-27"/>
    </contour>
  </outline>
</glyph>
<glyph name="SubRa.alt1" format="2">
  <outline>
    <contour>
      <point x="-156" y="-67" type="curve"/>
      <point x="-100" y="-67"/>
      <point x="-56" y="-55"/>
      <point x="-29" y="-47" type="curve"/>
      <point x="-22" y="30" type="line"/>
      <point x="-97" y="7"/>
      <point x="-137" y="4"/>
      <point x="-163" y="4" type="curve" smooth="yes"/>
      <point x="-223" y="4"/>
      <point x="-240" y="25"/>
      <point x="-249" y="44" type="curve"/>
      <point x="-331" y="14" type="line"/>
      <point x="-301" y="-59"/>
      <point x="-238" y="-67"/>
    </contour>
  </outline>
</glyph>
<glyph name="SubRa.alt3" format="2">
  <outline>
    <contour>
      <point x="-297" y="81" type="curve" smooth="yes"/>
      <point x="-297" y="106"/>
      <point x="-285" y="131"/>
      <point x="-264" y="161" type="curve"/>
      <point x="-327" y="204" type="line"/>
      <point x="-358" y="166"/>
      <point x="-380" y="121"/>
      <point x="-380" y="73" type="curve" smooth="yes"/>
      <point x="-380" y="-8"/>
      <point x="-296" y="-64"/>
      <point x="-170" y="-64" type="curve" smooth="yes"/>
      <point x="-114" y="-64"/>
      <point x="-70" y="-54"/>
      <point x="-43" y="-44" type="curve"/>
      <point x="-36" y="35" type="line"/>
      <point x="-111" y="14"/>
      <point x="-151" y="10"/>
      <point x="-177" y="10" type="curve" smooth="yes"/>
      <point x="-243" y="10"/>
      <point x="-297" y="39"/>
    </contour>
  </outline>
</glyph>
<glyph name="SubRa.alt4" format="2">
  <outline>
    <contour>
      <point x="-276" y="-93" type="curve" smooth="yes"/>
      <point x="-276" y="-52"/>
      <point x="-246" y="-30"/>
      <point x="-219" y="-5" type="curve"/>
      <point x="-263" y="54" type="line"/>
      <point x="-331" y="-6"/>
      <point x="-364" y="-27"/>
      <point x="-364" y="-103" type="curve" smooth="yes"/>
      <point x="-364" y="-184"/>
      <point x="-280" y="-238"/>
      <point x="-154" y="-238" type="curve" smooth="yes"/>
      <point x="-98" y="-238"/>
      <point x="-54" y="-228"/>
      <point x="-27" y="-218" type="curve"/>
      <point x="-20" y="-139" type="line"/>
      <point x="-95" y="-160"/>
      <point x="-135" y="-164"/>
      <point x="-161" y="-164" type="curve" smooth="yes"/>
      <point x="-227" y="-164"/>
      <point x="-276" y="-135"/>
    </contour>
  </outline>
</glyph>
<glyph name="SubRa_khar" format="2">
  <outline>
    <contour>
      <point x="-19" y="-197" type="curve"/>
      <point x="-12" y="-118" type="line"/>
      <point x="-87" y="-139"/>
      <point x="-127" y="-143"/>
      <point x="-153" y="-143" type="curve" smooth="yes"/>
      <point x="-219" y="-143"/>
      <point x="-267" y="-110"/>
      <point x="-267" y="-68" type="curve" smooth="yes"/>
      <point x="-267" y="-52"/>
      <point x="-259" y="-25"/>
      <point x="-238" y="18" type="curve"/>
      <point x="-317" y="38" type="line"/>
      <point x="-338" y="-1"/>
      <point x="-356" y="-37"/>
      <point x="-356" y="-80" type="curve" smooth="yes"/>
      <point x="-356" y="-161"/>
      <point x="-272" y="-217"/>
      <point x="-146" y="-217" type="curve" smooth="yes"/>
      <point x="-90" y="-217"/>
      <point x="-46" y="-207"/>
    </contour>
  </outline>
</glyph>
<glyph name="SubVa.alt" format="2">
  <outline>
    <contour>
      <point x="-340" y="9" type="curve"/>
      <point x="-419" y="23" type="line"/>
      <point x="-424" y="-2"/>
      <point x="-427" y="-27"/>
      <point x="-427" y="-48" type="curve" smooth="yes"/>
      <point x="-427" y="-140"/>
      <point x="-369" y="-178"/>
      <point x="-300" y="-178" type="curve" smooth="yes"/>
      <point x="-203" y="-178"/>
      <point x="-86" y="-96"/>
      <point x="-32" y="54" type="curve" smooth="yes"/>
      <point x="-27" y="68"/>
      <point x="-22" y="82"/>
      <point x="-18" y="96" type="curve"/>
      <point x="-93" y="127" type="line"/>
      <point x="-145" y="-74"/>
      <point x="-246" y="-99"/>
      <point x="-288" y="-99" type="curve" smooth="yes"/>
      <point x="-327" y="-99"/>
      <point x="-346" y="-78"/>
      <point x="-346" y="-40" type="curve" smooth="yes"/>
      <point x="-346" y="-25"/>
      <point x="-343" y="-8"/>
    </contour>
  </outline>
</glyph>
<glyph name="SubVa.alt1" format="2">
  <outline>
    <contour>
      <point x="-249" y="-65" type="line" smooth="yes"/>
      <point x="-161" y="-65"/>
      <point x="-71" y="-13"/>
      <point x="-71" y="130" type="curve" smooth="yes"/>
      <point x="-71" y="173"/>
      <point x="-76" y="223"/>
      <point x="-85" y="264" type="curve"/>
      <point x="-161" y="266" type="line"/>
      <point x="-152" y="211"/>
      <point x="-152" y="182"/>
      <point x="-152" y="128" type="curve" smooth="yes"/>
      <point x="-152" y="55"/>
      <point x="-172" y="6"/>
      <point x="-244" y="6" type="curve" smooth="yes"/>
      <point x="-270" y="6"/>
      <point x="-289" y="25"/>
      <point x="-299" y="44" type="curve"/>
      <point x="-381" y="14" type="line"/>
      <point x="-361" y="-36"/>
      <point x="-317" y="-65"/>
      <point x="-254" y="-65" type="curve" smooth="yes"/>
    </contour>
  </outline>
</glyph>
<glyph name="SubVa.alt2" format="2">
  <outline>
    <contour>
      <point x="-40" y="334" type="curve"/>
      <point x="-116" y="367" type="line"/>
      <point x="-155" y="179"/>
      <point x="-243" y="67"/>
      <point x="-426" y="56" type="curve"/>
      <point x="-426" y="32"/>
      <point x="-426" y="9"/>
      <point x="-426" y="-15" type="curve"/>
      <point x="-371" y="-14"/>
      <point x="-306" y="0"/>
      <point x="-263" y="19" type="curve" smooth="yes"/>
      <point x="-183" y="54"/>
      <point x="-111" y="132"/>
      <point x="-69" y="237" type="curve" smooth="yes"/>
      <point x="-57" y="267"/>
      <point x="-48" y="299"/>
    </contour>
    <contour>
      <point x="-426" y="-15" type="line"/>
      <point x="-431" y="-15" type="line"/>
    </contour>
  </outline>
</glyph>
<glyph name="SubVa.alt3" format="2">
  <outline>
    <contour>
      <point x="-97" y="245" type="line"/>
      <point x="-142" y="64"/>
      <point x="-238" y="19"/>
      <point x="-292" y="19" type="curve" smooth="yes"/>
      <point x="-330" y="19"/>
      <point x="-357" y="44"/>
      <point x="-357" y="81" type="curve" smooth="yes"/>
      <point x="-357" y="106"/>
      <point x="-345" y="131"/>
      <point x="-324" y="161" type="curve"/>
      <point x="-387" y="204" type="line"/>
      <point x="-418" y="166"/>
      <point x="-440" y="121"/>
      <point x="-440" y="73" type="curve" smooth="yes"/>
      <point x="-440" y="4"/>
      <point x="-394" y="-60"/>
      <point x="-301" y="-60" type="curve" smooth="yes"/>
      <point x="-192" y="-60"/>
      <point x="-84" y="38"/>
      <point x="-36" y="172" type="curve" smooth="yes"/>
      <point x="-31" y="186"/>
      <point x="-26" y="200"/>
      <point x="-22" y="214" type="curve"/>
    </contour>
  </outline>
</glyph>
<glyph name="SubVa.alt4" format="2">
  <outline>
    <contour>
      <point x="-294" y="-233" type="curve" smooth="yes"/>
      <point x="-285" y="-233" type="line" smooth="yes"/>
      <point x="-193" y="-233"/>
      <point x="-81" y="-146"/>
      <point x="-29" y="-1" type="curve" smooth="yes"/>
      <point x="-24" y="13"/>
      <point x="-19" y="27"/>
      <point x="-15" y="41" type="curve"/>
      <point x="-88" y="71" type="line"/>
      <point x="-133" y="-110"/>
      <point x="-231" y="-156"/>
      <point x="-285" y="-156" type="curve" smooth="yes"/>
      <point x="-342" y="-156"/>
      <point x="-376" y="-130"/>
      <point x="-376" y="-93" type="curve" smooth="yes"/>
      <point x="-376" y="-52"/>
      <point x="-346" y="-30"/>
      <point x="-319" y="-5" type="curve"/>
      <point x="-363" y="54" type="line"/>
      <point x="-425" y="0"/>
      <point x="-464" y="-27"/>
      <point x="-464" y="-103" type="curve" smooth="yes"/>
      <point x="-464" y="-190"/>
      <point x="-374" y="-233"/>
    </contour>
  </outline>
</glyph>
<glyph name="SubVa_khar" format="2">
  <outline>
    <contour>
      <point x="-31" y="66" type="curve"/>
      <point x="-106" y="97" type="line"/>
      <point x="-151" y="-84"/>
      <point x="-247" y="-129"/>
      <point x="-301" y="-129" type="curve" smooth="yes"/>
      <point x="-339" y="-129"/>
      <point x="-357" y="-110"/>
      <point x="-357" y="-72" type="curve" smooth="yes"/>
      <point x="-357" y="-52"/>
      <point x="-349" y="-25"/>
      <point x="-328" y="18" type="curve"/>
      <point x="-407" y="38" type="line"/>
      <point x="-428" y="-1"/>
      <point x="-446" y="-37"/>
      <point x="-446" y="-80" type="curve" smooth="yes"/>
      <point x="-446" y="-161"/>
      <point x="-382" y="-208"/>
      <point x="-310" y="-208" type="curve" smooth="yes"/>
      <point x="-216" y="-208"/>
      <point x="-99" y="-126"/>
      <point x="-45" y="24" type="curve" smooth="yes"/>
      <point x="-40" y="38"/>
      <point x="-35" y="52"/>
    </contour>
  </outline>
</glyph>
<glyph name="SubYa.alt" format="2">
  <outline>
    <contour>
      <point x="-392" y="-197" type="curve"/>
      <point x="-419" y="-259" type="line"/>
      <point x="-394" y="-269"/>
      <point x="-364" y="-274"/>
      <point x="-330" y="-274" type="curve" smooth="yes"/>
      <point x="-217" y="-274"/>
      <point x="-148" y="-208"/>
      <point x="-148" y="-100" type="curve"/>
      <point x="-110" y="-79"/>
      <point x="-90" y="-59"/>
      <point x="-81" y="9" type="curve"/>
      <point x="-160" y="23" type="line"/>
      <point x="-177" y="-29"/>
      <point x="-190" y="-52"/>
      <point x="-247" y="-52" type="curve" smooth="yes"/>
      <point x="-259" y="-52"/>
      <point x="-268" y="-52"/>
      <point x="-274" y="-50" type="curve"/>
      <point x="-304" y="-121" type="line"/>
      <point x="-288" y="-124"/>
      <point x="-274" y="-126"/>
      <point x="-259" y="-126" type="curve" smooth="yes"/>
      <point x="-249" y="-126"/>
      <point x="-238" y="-126"/>
      <point x="-228" y="-125" type="curve"/>
      <point x="-235" y="-182"/>
      <point x="-268" y="-210"/>
      <point x="-330" y="-210" type="curve" smooth="yes"/>
      <point x="-354" y="-210"/>
      <point x="-375" y="-205"/>
    </contour>
  </outline>
</glyph>
<glyph name="SubYa.alt1" format="2">
  <outline>
    <contour>
      <point x="-115" y="-122" type="curve"/>
      <point x="-89" y="-111"/>
      <point x="-45" y="-79"/>
      <point x="-45" y="-17" type="curve" smooth="yes"/>
      <point x="-45" y="-4"/>
      <point x="-48" y="10"/>
      <point x="-53" y="21" type="curve"/>
      <point x="-142" y="10" type="line"/>
      <point x="-136" y="-4"/>
      <point x="-131" y="-17"/>
      <point x="-131" y="-23" type="curve" smooth="yes"/>
      <point x="-131" y="-46"/>
      <point x="-153" y="-74"/>
      <point x="-204" y="-74" type="curve" smooth="yes"/>
      <point x="-216" y="-74"/>
      <point x="-235" y="-74"/>
      <point x="-241" y="-72" type="curve"/>
      <point x="-271" y="-143" type="line"/>
      <point x="-255" y="-146"/>
      <point x="-241" y="-148"/>
      <point x="-226" y="-148" type="curve" smooth="yes"/>
      <point x="-216" y="-148"/>
      <point x="-205" y="-148"/>
      <point x="-195" y="-147" type="curve"/>
      <point x="-202" y="-204"/>
      <point x="-235" y="-232"/>
      <point x="-297" y="-232" type="curve" smooth="yes"/>
      <point x="-321" y="-232"/>
      <point x="-342" y="-227"/>
      <point x="-359" y="-219" type="curve"/>
      <point x="-385" y="-282" type="line"/>
      <point x="-359" y="-291"/>
      <point x="-330" y="-296"/>
      <point x="-297" y="-296" type="curve" smooth="yes"/>
      <point x="-184" y="-296"/>
      <point x="-115" y="-231"/>
    </contour>
  </outline>
</glyph>
<glyph name="SubYa.alt3" format="2">
  <outline>
    <contour>
      <point x="-150" y="-59" type="curve"/>
      <point x="-141" y="-56"/>
      <point x="-115" y="-45"/>
      <point x="-84" y="15" type="curve"/>
      <point x="-153" y="49" type="line"/>
      <point x="-179" y="0"/>
      <point x="-200" y="-11"/>
      <point x="-246" y="-11" type="curve" smooth="yes"/>
      <point x="-255" y="-11"/>
      <point x="-268" y="-10"/>
      <point x="-276" y="-9" type="curve"/>
      <point x="-306" y="-80" type="line"/>
      <point x="-290" y="-83"/>
      <point x="-276" y="-85"/>
      <point x="-261" y="-85" type="curve" smooth="yes"/>
      <point x="-251" y="-85"/>
      <point x="-240" y="-85"/>
      <point x="-230" y="-84" type="curve"/>
      <point x="-237" y="-141"/>
      <point x="-270" y="-169"/>
      <point x="-332" y="-169" type="curve" smooth="yes"/>
      <point x="-356" y="-169"/>
      <point x="-377" y="-164"/>
      <point x="-394" y="-156" type="curve"/>
      <point x="-420" y="-219" type="line"/>
      <point x="-395" y="-228"/>
      <point x="-365" y="-233"/>
      <point x="-332" y="-233" type="curve" smooth="yes"/>
      <point x="-219" y="-233"/>
      <point x="-150" y="-167"/>
    </contour>
  </outline>
</glyph>
<glyph name="SubYa.alt4" format="2">
  <outline>
    <contour>
      <point x="-266" y="-233" type="curve" smooth="yes"/>
      <point x="-153" y="-233"/>
      <point x="-84" y="-167"/>
      <point x="-84" y="-59" type="curve"/>
      <point x="-61" y="-46"/>
      <point x="-41" y="-26"/>
      <point x="-20" y="-5" type="curve"/>
      <point x="-56" y="60" type="line"/>
      <point x="-100" y="22" type="line" smooth="yes"/>
      <point x="-131" y="-4"/>
      <point x="-144" y="-11"/>
      <point x="-183" y="-11" type="curve" smooth="yes"/>
      <point x="-195" y="-11"/>
      <point x="-204" y="-11"/>
      <point x="-210" y="-9" type="curve"/>
      <point x="-240" y="-80" type="line"/>
      <point x="-224" y="-83"/>
      <point x="-210" y="-85"/>
      <point x="-195" y="-85" type="curve" smooth="yes"/>
      <point x="-185" y="-85"/>
      <point x="-174" y="-85"/>
      <point x="-164" y="-84" type="curve"/>
      <point x="-171" y="-141"/>
      <point x="-204" y="-169"/>
      <point x="-266" y="-169" type="curve" smooth="yes"/>
      <point x="-290" y="-169"/>
      <point x="-311" y="-164"/>
      <point x="-328" y="-156" type="curve"/>
      <point x="-354" y="-219" type="line"/>
      <point x="-329" y="-228"/>
      <point x="-299" y="-233"/>
    </contour>
  </outline>
</glyph>
<glyph name="SubYa_khar" format="2">
  <outline>
    <contour>
      <point x="-266" y="-233" type="curve" smooth="yes"/>
      <point x="-153" y="-233"/>
      <point x="-84" y="-168"/>
      <point x="-84" y="-59" type="curve"/>
      <point x="-52" y="-43"/>
      <point x="-35" y="-30"/>
      <point x="-17" y="18" type="curve"/>
      <point x="-96" y="38" type="line"/>
      <point x="-96" y="36"/>
      <point x="-99" y="30"/>
      <point x="-100" y="28" type="curve" smooth="yes"/>
      <point x="-115" y="-2"/>
      <point x="-138" y="-11"/>
      <point x="-183" y="-11" type="curve" smooth="yes"/>
      <point x="-195" y="-11"/>
      <point x="-204" y="-11"/>
      <point x="-210" y="-9" type="curve"/>
      <point x="-240" y="-80" type="line"/>
      <point x="-224" y="-83"/>
      <point x="-210" y="-85"/>
      <point x="-195" y="-85" type="curve" smooth="yes"/>
      <point x="-185" y="-85"/>
      <point x="-174" y="-85"/>
      <point x="-164" y="-84" type="curve"/>
      <point x="-171" y="-141"/>
      <point x="-204" y="-169"/>
      <point x="-266" y="-169" type="curve" smooth="yes"/>
      <point x="-290" y="-169"/>
      <point x="-311" y="-164"/>
      <point x="-328" y="-156" type="curve"/>
      <point x="-354" y="-219" type="line"/>
      <point x="-328" y="-228"/>
      <point x="-299" y="-233"/>
    </contour>
  </outline>
</glyph>
<glyph name="TRa_khar" format="2">
  <advance width="697"/>
  <note>
g126
tra
</note>
  <outline>
    <contour>
      <point x="488" y="-5" type="curve" smooth="yes"/>
      <point x="567" y="-5"/>
      <point x="623" y="36"/>
      <point x="648" y="104" type="curve"/>
      <point x="569" y="135" type="line"/>
      <point x="555" y="94"/>
      <point x="527" y="73"/>
      <point x="486" y="73" type="curve" smooth="yes"/>
      <point x="439" y="73"/>
      <point x="416" y="92"/>
      <point x="416" y="128" type="curve" smooth="yes"/>
      <point x="416" y="230"/>
      <point x="513" y="306"/>
      <point x="513" y="441" type="curve" smooth="yes"/>
      <point x="513" y="532"/>
      <point x="456" y="569"/>
      <point x="332" y="569" type="curve" smooth="yes"/>
      <point x="284" y="569"/>
      <point x="250" y="570"/>
      <point x="230" y="572" type="curve" smooth="yes"/>
      <point x="191" y="576"/>
      <point x="178" y="583"/>
      <point x="178" y="612" type="curve" smooth="yes"/>
      <point x="178" y="632"/>
      <point x="185" y="664"/>
      <point x="197" y="707" type="curve"/>
      <point x="117" y="720" type="line"/>
      <point x="107" y="689"/>
      <point x="99" y="637"/>
      <point x="99" y="596" type="curve" smooth="yes"/>
      <point x="99" y="534"/>
      <point x="118" y="511"/>
      <point x="174" y="500" type="curve" smooth="yes"/>
      <point x="202" y="494"/>
      <point x="251" y="491"/>
      <point x="321" y="491" type="curve" smooth="yes"/>
      <point x="398" y="491"/>
      <point x="427" y="478"/>
      <point x="427" y="437" type="curve" smooth="yes"/>
      <point x="427" y="321"/>
      <point x="329" y="221"/>
      <point x="329" y="123" type="curve" smooth="yes"/>
      <point x="329" y="42"/>
      <point x="388" y="-5"/>
    </contour>
  </outline>
</glyph>
<glyph name="TSa_khar" format="2">
  <advance width="541"/>
  <outline>
    <contour>
      <point x="290" y="177" type="curve" smooth="yes"/>
      <point x="405" y="177"/>
      <point x="513" y="228"/>
      <point x="513" y="329" type="curve" smooth="yes"/>
      <point x="513" y="386"/>
      <point x="486" y="416"/>
      <point x="447" y="434" type="curve"/>
      <point x="437" y="415" type="line"/>
      <point x="501" y="432"/>
      <point x="535" y="466"/>
      <point x="535" y="536" type="curve" smooth="yes"/>
      <point x="535" y="611"/>
      <point x="477" y="669"/>
      <point x="369" y="669" type="curve" smooth="yes"/>
      <point x="319" y="669"/>
      <point x="264" y="661"/>
      <point x="218" y="661" type="curve" smooth="yes"/>
      <point x="164" y="661"/>
      <point x="150" y="668"/>
      <point x="150" y="680" type="curve" smooth="yes"/>
      <point x="150" y="687"/>
      <point x="152" y="695"/>
      <point x="155" y="698" type="curve"/>
      <point x="80" y="730" type="line"/>
      <point x="71" y="714"/>
      <point x="66" y="696"/>
      <point x="66" y="677" type="curve" smooth="yes"/>
      <point x="66" y="611"/>
      <point x="126" y="583"/>
      <point x="214" y="583" type="curve" smooth="yes"/>
      <point x="264" y="583"/>
      <point x="313" y="591"/>
      <point x="359" y="591" type="curve" smooth="yes"/>
      <point x="432" y="591"/>
      <point x="449" y="562"/>
      <point x="449" y="536" type="curve" smooth="yes"/>
      <point x="449" y="488"/>
      <point x="412" y="464"/>
      <point x="279" y="464" type="curve" smooth="yes"/>
      <point x="219" y="464" type="line"/>
      <point x="219" y="396" type="line"/>
      <point x="269" y="396" type="line" smooth="yes"/>
      <point x="396" y="396"/>
      <point x="427" y="382"/>
      <point x="427" y="327" type="curve" smooth="yes"/>
      <point x="427" y="271"/>
      <point x="367" y="248"/>
      <point x="292" y="248" type="curve" smooth="yes"/>
      <point x="274" y="248"/>
      <point x="255" y="248"/>
      <point x="239" y="251" type="curve"/>
      <point x="226" y="180" type="line"/>
      <point x="245" y="178"/>
      <point x="265" y="177"/>
    </contour>
    <contour>
      <point x="263" y="261" type="curve" smooth="yes"/>
      <point x="263" y="269"/>
      <point x="263" y="275"/>
      <point x="261" y="293" type="curve"/>
      <point x="184" y="293" type="line"/>
      <point x="184" y="242"/>
      <point x="165" y="192"/>
      <point x="135" y="149" type="curve"/>
      <point x="136" y="149" type="line"/>
      <point x="103" y="102"/>
      <point x="67" y="64"/>
      <point x="39" y="42" type="curve"/>
      <point x="78" y="-22" type="line"/>
      <point x="134" y="26"/>
      <point x="190" y="84"/>
      <point x="229" y="154" type="curve" smooth="yes"/>
      <point x="249" y="190"/>
      <point x="263" y="228"/>
    </contour>
  </outline>
</glyph>
<glyph name="TVa_khar" format="2">
  <advance width="861"/>
  <note>
g130
tva
</note>
  <outline>
    <contour>
      <point x="322" y="-5" type="curve" smooth="yes"/>
      <point x="560" y="-5"/>
      <point x="724" y="235"/>
      <point x="814" y="714" type="curve"/>
      <point x="732" y="728" type="line"/>
      <point x="691" y="427"/>
      <point x="553" y="69"/>
      <point x="322" y="69" type="curve" smooth="yes"/>
      <point x="283" y="69"/>
      <point x="251" y="75"/>
      <point x="251" y="103" type="curve" smooth="yes"/>
      <point x="251" y="125"/>
      <point x="293" y="151"/>
      <point x="370" y="184" type="curve" smooth="yes"/>
      <point x="505" y="242"/>
      <point x="557" y="310"/>
      <point x="557" y="399" type="curve" smooth="yes"/>
      <point x="557" y="508"/>
      <point x="505" y="551"/>
      <point x="391" y="551" type="curve" smooth="yes"/>
      <point x="354" y="551"/>
      <point x="291" y="543"/>
      <point x="250" y="543" type="curve" smooth="yes"/>
      <point x="198" y="543"/>
      <point x="172" y="560"/>
      <point x="172" y="594" type="curve" smooth="yes"/>
      <point x="172" y="626"/>
      <point x="196" y="652"/>
      <point x="236" y="662" type="curve"/>
      <point x="211" y="731" type="line"/>
      <point x="141" y="719"/>
      <point x="88" y="663"/>
      <point x="88" y="596" type="curve" smooth="yes"/>
      <point x="88" y="513"/>
      <point x="143" y="465"/>
      <point x="238" y="465" type="curve" smooth="yes"/>
      <point x="293" y="465"/>
      <point x="327" y="473"/>
      <point x="379" y="473" type="curve" smooth="yes"/>
      <point x="441" y="473"/>
      <point x="471" y="454"/>
      <point x="471" y="399" type="curve" smooth="yes"/>
      <point x="471" y="330"/>
      <point x="419" y="282"/>
      <point x="311" y="238" type="curve" smooth="yes"/>
      <point x="201" y="193"/>
      <point x="166" y="156"/>
      <point x="166" y="100" type="curve" smooth="yes"/>
      <point x="166" y="25"/>
      <point x="223" y="-5"/>
    </contour>
  </outline>
</glyph>
<glyph name="U.alt" format="2">
  <outline>
    <contour>
      <point x="-256" y="112" type="curve" smooth="yes"/>
      <point x="-256" y="135"/>
      <point x="-235" y="157"/>
      <point x="-185" y="157" type="curve" smooth="yes"/>
      <point x="-127" y="157"/>
      <point x="-83" y="127"/>
      <point x="-52" y="79" type="curve"/>
      <point x="-86" y="63"/>
      <point x="-119" y="63"/>
      <point x="-141" y="63" type="curve" smooth="yes"/>
      <point x="-199" y="63"/>
      <point x="-256" y="83"/>
    </contour>
    <contour>
      <point x="-314" y="107" type="curve" smooth="yes"/>
      <point x="-314" y="14"/>
      <point x="-219" y="-14"/>
      <point x="-140" y="-14" type="curve" smooth="yes"/>
      <point x="-42" y="-14"/>
      <point x="-7" y="43"/>
      <point x="-7" y="80" type="curve"/>
      <point x="-40" y="135"/>
      <point x="-96" y="197"/>
      <point x="-199" y="197" type="curve" smooth="yes"/>
      <point x="-284" y="197"/>
      <point x="-314" y="154"/>
    </contour>
  </outline>
</glyph>
<glyph name="U.alt2" format="2">
  <outline>
    <contour>
      <point x="-217" y="43" type="curve" smooth="yes"/>
      <point x="-250" y="43"/>
      <point x="-281" y="56"/>
      <point x="-281" y="87" type="curve" smooth="yes"/>
      <point x="-281" y="105"/>
      <point x="-260" y="139"/>
      <point x="-203" y="139" type="curve" smooth="yes"/>
      <point x="-184" y="139"/>
      <point x="-148" y="135"/>
      <point x="-111" y="106" type="curve"/>
      <point x="-141" y="61"/>
      <point x="-187" y="43"/>
    </contour>
    <contour>
      <point x="-336" y="74" type="curve" smooth="yes"/>
      <point x="-336" y="-6"/>
      <point x="-263" y="-33"/>
      <point x="-199" y="-33" type="curve" smooth="yes"/>
      <point x="-159" y="-33"/>
      <point x="-98" y="-15"/>
      <point x="-33" y="86" type="curve"/>
      <point x="-88" y="154"/>
      <point x="-158" y="177"/>
      <point x="-208" y="177" type="curve" smooth="yes"/>
      <point x="-309" y="177"/>
      <point x="-336" y="106"/>
    </contour>
  </outline>
</glyph>
<glyph name="U.alt3" format="2">
  <outline>
    <contour>
      <point x="-181" y="-132" type="curve" smooth="yes"/>
      <point x="-64" y="-132"/>
      <point x="-14" y="-55"/>
      <point x="-13" y="4" type="curve"/>
      <point x="-67" y="49"/>
      <point x="-107" y="66"/>
      <point x="-174" y="66" type="curve" smooth="yes"/>
      <point x="-241" y="66"/>
      <point x="-299" y="26"/>
      <point x="-299" y="-34" type="curve" smooth="yes"/>
      <point x="-299" y="-86"/>
      <point x="-266" y="-132"/>
    </contour>
    <contour>
      <point x="-198" y="-71" type="curve" smooth="yes"/>
      <point x="-224" y="-71"/>
      <point x="-250" y="-59"/>
      <point x="-250" y="-29" type="curve" smooth="yes"/>
      <point x="-250" y="-7"/>
      <point x="-228" y="20"/>
      <point x="-174" y="20" type="curve" smooth="yes"/>
      <point x="-150" y="20"/>
      <point x="-126" y="13"/>
      <point x="-96" y="-6" type="curve"/>
      <point x="-108" y="-51"/>
      <point x="-158" y="-71"/>
    </contour>
  </outline>
</glyph>
<glyph name="U_spacing" format="2">
  <outline>
    <contour>
      <point x="-207" y="-14" type="curve" smooth="yes"/>
      <point x="-132" y="-14"/>
      <point x="-66" y="30"/>
      <point x="-66" y="103" type="curve" smooth="yes"/>
      <point x="-66" y="161"/>
      <point x="-113" y="207"/>
      <point x="-196" y="207" type="curve" smooth="yes"/>
      <point x="-272" y="207"/>
      <point x="-336" y="158"/>
      <point x="-336" y="92" type="curve" smooth="yes"/>
      <point x="-336" y="25"/>
      <point x="-284" y="-14"/>
    </contour>
    <contour>
      <point x="-207" y="36" type="curve" smooth="yes"/>
      <point x="-256" y="36"/>
      <point x="-283" y="57"/>
      <point x="-283" y="92" type="curve" smooth="yes"/>
      <point x="-283" y="127"/>
      <point x="-250" y="148"/>
      <point x="-207" y="148" type="curve" smooth="yes"/>
      <point x="-164" y="148"/>
      <point x="-131" y="127"/>
      <point x="-131" y="92" type="curve" smooth="yes"/>
      <point x="-131" y="57"/>
      <point x="-162" y="36"/>
    </contour>
  </outline>
</glyph>
<glyph name="vocR.short" format="2">
  <outline>
    <contour>
      <point x="-202" y="65" type="curve" smooth="yes"/>
      <point x="-141" y="65"/>
      <point x="-74" y="83"/>
      <point x="-74" y="136" type="curve" smooth="yes"/>
      <point x="-74" y="234"/>
      <point x="-245" y="168"/>
      <point x="-245" y="223" type="curve" smooth="yes"/>
      <point x="-245" y="234"/>
      <point x="-242" y="248"/>
      <point x="-203" y="248" type="curve" smooth="yes"/>
      <point x="-182" y="248"/>
      <point x="-152" y="242"/>
      <point x="-126" y="233" type="curve"/>
      <point x="-107" y="275" type="line"/>
      <point x="-143" y="286"/>
      <point x="-169" y="291"/>
      <point x="-207" y="291" type="curve" smooth="yes"/>
      <point x="-258" y="291"/>
      <point x="-307" y="264"/>
      <point x="-307" y="217" type="curve" smooth="yes"/>
      <point x="-307" y="118"/>
      <point x="-138" y="192"/>
      <point x="-138" y="132" type="curve" smooth="yes"/>
      <point x="-138" y="112"/>
      <point x="-169" y="109"/>
      <point x="-202" y="109" type="curve" smooth="yes"/>
      <point x="-233" y="109"/>
      <point x="-264" y="117"/>
      <point x="-285" y="117" type="curve" smooth="yes"/>
      <point x="-305" y="117"/>
      <point x="-342" y="116"/>
      <point x="-362" y="109" type="curve"/>
      <point x="-350" y="68" type="line"/>
      <point x="-333" y="71"/>
      <point x="-308" y="71"/>
      <point x="-284" y="71" type="curve" smooth="yes"/>
      <point x="-261" y="71"/>
      <point x="-232" y="65"/>
    </contour>
  </outline>
</glyph>
<glyph name="vocR.shorter" format="2">
  <outline>
    <contour>
      <point x="-162" y="73" type="curve" smooth="yes"/>
      <point x="-87" y="73"/>
      <point x="-20" y="87"/>
      <point x="-20" y="125" type="curve" smooth="yes"/>
      <point x="-20" y="204"/>
      <point x="-219" y="151"/>
      <point x="-219" y="191" type="curve" smooth="yes"/>
      <point x="-219" y="201"/>
      <point x="-216" y="209"/>
      <point x="-163" y="209" type="curve" smooth="yes"/>
      <point x="-138" y="209"/>
      <point x="-103" y="206"/>
      <point x="-72" y="199" type="curve"/>
      <point x="-53" y="230" type="line"/>
      <point x="-89" y="239"/>
      <point x="-124" y="243"/>
      <point x="-167" y="243" type="curve" smooth="yes"/>
      <point x="-232" y="243"/>
      <point x="-281" y="222"/>
      <point x="-281" y="190" type="curve" smooth="yes"/>
      <point x="-281" y="111"/>
      <point x="-84" y="170"/>
      <point x="-84" y="127" type="curve" smooth="yes"/>
      <point x="-84" y="110"/>
      <point x="-122" y="109"/>
      <point x="-162" y="109" type="curve" smooth="yes"/>
      <point x="-198" y="109"/>
      <point x="-242" y="115"/>
      <point x="-263" y="115" type="curve" smooth="yes"/>
      <point x="-283" y="115"/>
      <point x="-316" y="114"/>
      <point x="-336" y="109" type="curve"/>
      <point x="-324" y="73" type="line"/>
      <point x="-307" y="77"/>
      <point x="-284" y="78"/>
      <point x="-258" y="78" type="curve" smooth="yes"/>
      <point x="-235" y="78"/>
      <point x="-206" y="73"/>
    </contour>
  </outline>
</glyph>
<glyph name="vocR.wide" format="2">
  <outline>
    <contour>
      <point x="-222" y="97" type="curve" smooth="yes"/>
      <point x="-129" y="97"/>
      <point x="-45" y="116"/>
      <point x="-45" y="177" type="curve" smooth="yes"/>
      <point x="-45" y="287"/>
      <point x="-294" y="212"/>
      <point x="-294" y="274" type="curve" smooth="yes"/>
      <point x="-294" y="287"/>
      <point x="-290" y="303"/>
      <point x="-224" y="303" type="curve" smooth="yes"/>
      <point x="-192" y="303"/>
      <point x="-149" y="295"/>
      <point x="-110" y="285" type="curve"/>
      <point x="-86" y="333" type="line"/>
      <point x="-131" y="345"/>
      <point x="-175" y="350"/>
      <point x="-229" y="350" type="curve" smooth="yes"/>
      <point x="-310" y="350"/>
      <point x="-371" y="321"/>
      <point x="-371" y="268" type="curve" smooth="yes"/>
      <point x="-371" y="156"/>
      <point x="-125" y="239"/>
      <point x="-125" y="172" type="curve" smooth="yes"/>
      <point x="-125" y="149"/>
      <point x="-172" y="146"/>
      <point x="-222" y="146" type="curve" smooth="yes"/>
      <point x="-267" y="146"/>
      <point x="-317" y="155"/>
      <point x="-344" y="155" type="curve" smooth="yes"/>
      <point x="-369" y="155"/>
      <point x="-415" y="153"/>
      <point x="-440" y="146" type="curve"/>
      <point x="-425" y="99" type="line"/>
      <point x="-404" y="103"/>
      <point x="-372" y="103"/>
      <point x="-342" y="103" type="curve" smooth="yes"/>
      <point x="-314" y="103"/>
      <point x="-277" y="97"/>
    </contour>
  </outline>
</glyph>
